<svg xmlns="http://www.w3.org/2000/svg" width="32.266" height="257.197" viewBox="0 0 32.266 257.197"><path d="M12.544-26.934h9.639q2.393,0,2.393,1.436a2.324,2.324,0,0,1-.718,1.538l-3.11,3.008H26.9q3.726-.239,3.486,3.486v8.955q.205,3.726-3.486,3.486H8.545q-3.691.239-3.452-3.486v-8.955a4.194,4.194,0,0,1,.41-2.119q-1.914,1.572-2.769,1.572-1.333,0-1.333-1.5,0-.82,1.914-2.034a18.392,18.392,0,0,0,3.5-2.888,26.657,26.657,0,0,0,3.025-3.9,1.976,1.976,0,0,1,1.675-1.06q1.606,0,1.606,1.2A2.723,2.723,0,0,1,12.544-26.934ZM10.527-24.3a38.027,38.027,0,0,1-3.691,3.589,5.046,5.046,0,0,1,1.709-.239h8.818q2.734-2.6,2.734-2.939,0-.41-.513-.41ZM18.8-14.458h8.716v-2.5a1.284,1.284,0,0,0-1.47-1.436H18.8Zm0,2.529v4.341h7.246a1.3,1.3,0,0,0,1.47-1.47v-2.871ZM16.03-7.588v-4.341H7.964v2.871A1.266,1.266,0,0,0,9.4-7.588Zm0-6.87v-3.931H9.023a.976.976,0,0,0-1.06,1.06v2.871Zm13.3,9.81q.82,0,1.743,1.333Q33.6.308,33.6,1.128a1.465,1.465,0,0,1-1.675,1.641,1.465,1.465,0,0,1-1.333-.718L28.677-1.47a6.378,6.378,0,0,1-.854-1.846Q27.822-4.648,29.326-4.648ZM5.3-4.819A1.284,1.284,0,0,1,6.733-3.35,10.842,10.842,0,0,1,5.469.171Q4.2,2.8,3.042,2.8,1.4,2.8,1.4,1.3A3.062,3.062,0,0,1,1.982-.068,41.2,41.2,0,0,0,3.9-3.862,1.468,1.468,0,0,1,5.3-4.819Zm7.144.684a1.712,1.712,0,0,1,1.675,1.3A13.84,13.84,0,0,1,15.176.889q0,1.538-1.606,1.538-1.4,0-1.812-2.085L11.313-1.47,11.006-2.8Q11.006-4.136,12.441-4.136Zm8.408-.137q1.094,0,1.709,1.367A15.2,15.2,0,0,1,23.926.786a1.345,1.345,0,0,1-1.538,1.5q-1.23,0-1.982-2.393L19.79-1.777a3.7,3.7,0,0,1-.376-1.162Q19.414-4.272,20.85-4.272Zm-3.145,32.9a43.108,43.108,0,0,1-3.794,8.032A36.1,36.1,0,0,1,8.1,43.65q-3.657,3.5-5.161,3.5Q1.4,47.153,1.4,45.41a1.531,1.531,0,0,1,.513-1.162l2.358-1.777q8.853-6.562,12.373-19.209l-.068-1.538q-.068-1.675-1.333-1.709H10.63q-1.914,0-1.914-1.641,0-1.606,1.914-1.606h5.776q3.315-.1,3.213,3.828a26.636,26.636,0,0,0,3.452,13.022,28.83,28.83,0,0,0,9.263,9.741A2.323,2.323,0,0,1,33.6,45.171q0,1.846-1.641,1.846-1.47,0-5.366-3.589A31.764,31.764,0,0,1,17.705,28.628ZM18.73,77.251V90.923q0,1.88-1.538,1.88-1.5,0-1.5-1.88V76.978A40.4,40.4,0,0,1,8.408,85.8q-4.1,3.691-5.366,3.691-1.641,0-1.641-1.709,0-.991,1.333-1.709a32.6,32.6,0,0,0,7.007-5.264,27.8,27.8,0,0,0,5.2-6.631H3.486q-1.846,0-1.846-1.5t1.846-1.5h12.2V62.485q0-1.88,1.538-1.88,1.5,0,1.5,1.88v8.682H31.514q1.812,0,1.812,1.5t-1.812,1.5H19.38A27.4,27.4,0,0,0,31.992,85.728q1.606.752,1.606,1.846a1.707,1.707,0,0,1-.53,1.248,1.569,1.569,0,0,1-1.111.53,7.432,7.432,0,0,1-3.384-1.5A28.375,28.375,0,0,1,18.73,77.251ZM6.631,62.759q.854,0,2.529,2.358t1.675,3.042a1.405,1.405,0,0,1-1.606,1.572,1.621,1.621,0,0,1-1.4-.854L6.221,66.211a5.6,5.6,0,0,1-1.094-2.017Q5.127,62.759,6.631,62.759Zm21.362-.205a1.359,1.359,0,0,1,1.538,1.538q0,.752-1.829,3.333T24.985,70a1.284,1.284,0,0,1-1.47-1.436,1.4,1.4,0,0,1,.342-.923,32.8,32.8,0,0,0,2.6-4.067A1.735,1.735,0,0,1,27.993,62.554Zm-9.365,52.417h6.426q3.726-.205,3.486,3.486v5.708q.205,3.691-3.486,3.452H18.936a11.267,11.267,0,0,0,2.837,3.35,36.756,36.756,0,0,0,7.212-4.136,2.245,2.245,0,0,1,1.23-.581,1.39,1.39,0,0,1,1.572,1.572q0,1.47-7.656,4.58a21.267,21.267,0,0,0,7.417,2.188q2.085.205,2.085,1.47,0,1.606-1.5,1.606a18.734,18.734,0,0,1-5.469-1.2Q19,133.906,16.133,127.617H9.468V133.7l1.025-.171,1.025-.137,5.879-1.025q1.333,0,1.333,1.4a1.273,1.273,0,0,1-1.128,1.282q-1.128.291-5.366,1.042l-6.87,1.162-1.538.273-.376.034q-1.47,0-1.47-1.572a1.266,1.266,0,0,1,.649-1.23,17.072,17.072,0,0,1,3.9-.649V118.457q-.239-3.726,3.486-3.486H15.62V112.92q0-1.641,1.5-1.641t1.5,1.641Zm-9.16,5.161H25.6V118.7a1.277,1.277,0,0,0-1.4-1.4H10.869a1.277,1.277,0,0,0-1.4,1.4Zm0,2.222v2.939H24.2a1.263,1.263,0,0,0,1.4-1.367v-1.572Zm9.3-15.073a31.332,31.332,0,0,0,12.407,5.879q2.427.547,2.427,1.606,0,1.709-1.538,1.709-2.051,0-6.6-2.153a42.967,42.967,0,0,1-8.442-5.264l-.1.1a42.319,42.319,0,0,1-7.93,5.315q-4.614,2.444-6.152,2.444-1.436,0-1.436-1.606,0-.957,1.88-1.572a29.685,29.685,0,0,0,12.2-7.144,2.883,2.883,0,0,1,2.017-.991q1.572,0,1.572.957A1.566,1.566,0,0,1,18.765,107.28ZM11.45,164.79l-8.306,1.025a1.345,1.345,0,0,1-1.5-1.538q0-1.47,1.812-1.709l8-.991V152.9q0-2.085,1.675-2.085T14.8,152.9v8.237l16.475-2.085.649-.034q1.436,0,1.436,1.538,0,1.47-1.846,1.709L14.8,164.38v12.065a1.654,1.654,0,0,0,.342,1.094q.444.581,2.666.547l3.418.068q5.845,0,6.46-.632t.854-3.469a1.533,1.533,0,0,1,1.709-1.572q1.777,0,1.777,1.709,0,5.571-2.427,6.46-2.051.752-10.117.752-5.024,0-6.528-.752t-1.5-3.247Zm-2.119,44.9v16.3q0,1.812-1.47,1.812t-1.47-1.812V212.866Q3.726,215.6,2.769,215.6q-1.4,0-1.4-1.606,0-.923,1.367-1.982a32.123,32.123,0,0,0,6.87-7.485,1.988,1.988,0,0,1,1.572-.991q1.606,0,1.606,1.4Q12.783,206.03,9.331,209.688Zm19.209.205V223.53q.239,4.272-3.9,4H21.7q-1.914,0-1.914-1.641,0-1.606,1.914-1.606h2.119a1.416,1.416,0,0,0,1.641-1.641V209.893H15.142q-1.777,0-1.777-1.5t1.777-1.5H31.787q1.846,0,1.846,1.5t-1.846,1.5ZM10.356,195.811q1.572,0,1.572,1.5,0,.991-3.828,3.794t-5.127,2.8q-1.333,0-1.333-1.675,0-.923,1.675-1.743a31.692,31.692,0,0,0,5.5-3.862A2.735,2.735,0,0,1,10.356,195.811Zm6.357,4.443q-1.675,0-1.675-1.5t1.675-1.5H30.488q1.675,0,1.675,1.5t-1.675,1.5Z" transform="translate(-1.367 29.395)"/></svg>