<svg xmlns="http://www.w3.org/2000/svg" width="1001" height="1001" viewBox="0 0 1001 1001"><defs><style>.a{fill:#f5f5f5;}</style></defs><path class="a" d="M614.923-547.62Q670.18-428.6,775.912-312.247T998.534-127.88q42.505,24.441,42.505,56.32,0,55.257-51.006,55.257-48.881,0-181.179-134.954T583.044-461.546v352.794H755.191q48.881,0,48.881,45.693,0,44.631-48.881,44.631H583.044v122.2q0,57.382-47.818,57.382-46.756,0-46.756-57.382v-122.2H324.825q-48.881,0-48.881-45.693,0-44.631,48.881-44.631H488.47V-463.672l-4.251,8.5Q400.272-298.964,266.38-154.977T91.045-10.99q-51.006,0-51.006-53.132,0-29.754,35.067-54.194,113.7-79.7,219.965-205.088T448.09-547.62H113.361q-58.445,0-58.445-47.818t58.445-47.818H488.47v-137.08q0-59.507,47.818-59.507,46.756,0,46.756,59.507v137.08H967.717q59.507,0,59.507,47.818T967.717-547.62Z" transform="translate(-40.039 839.844)"/></svg>