<svg xmlns="http://www.w3.org/2000/svg" width="32.197" height="75.253" viewBox="0 0 32.197 75.253"><path d="M25.635.854H9.912q-4.341.273-4.067-4.067V-23.379a4.074,4.074,0,0,1,1.094-3.213,4.474,4.474,0,0,1,2.837-.854H25.635a4.135,4.135,0,0,1,3.213,1.094,4.387,4.387,0,0,1,.854,2.837v20.3Q29.976,1.128,25.635.854ZM9.058-15H26.489v-7.383a1.81,1.81,0,0,0-1.982-1.982H11.04a1.821,1.821,0,0,0-1.982,2.051Zm0,3.008V-4.2a1.821,1.821,0,0,0,2.051,1.982h13.4A1.81,1.81,0,0,0,26.489-4.2V-12ZM19.893,25a30.41,30.41,0,0,0,5.178,7.571,30.429,30.429,0,0,0,7.161,5.93q1.367.786,1.367,1.812,0,1.777-1.641,1.777-1.572,0-5.828-4.341a43.183,43.183,0,0,1-7.263-9.98V39.121H24.4q1.572,0,1.572,1.47,0,1.436-1.572,1.436H18.867v3.931q0,1.846-1.538,1.846-1.5,0-1.5-1.846V42.026H10.562q-1.572,0-1.572-1.47,0-1.436,1.572-1.436h5.264V27.705l-.137.273a46.641,46.641,0,0,1-7.007,9.656q-4.307,4.631-5.64,4.631-1.641,0-1.641-1.709a2.18,2.18,0,0,1,1.128-1.743,37.875,37.875,0,0,0,7.075-6.6A34.453,34.453,0,0,0,14.526,25H3.76q-1.88,0-1.88-1.538t1.88-1.538H15.825V17.52q0-1.914,1.538-1.914,1.5,0,1.5,1.914v4.409H31.24q1.914,0,1.914,1.538T31.24,25Z" transform="translate(-1.401 27.45)"/></svg>