<svg xmlns="http://www.w3.org/2000/svg" width="712.504" height="844.655" viewBox="0 0 712.504 844.655"><defs><style>.a{fill:#f5f5f5;}</style></defs><path class="a" d="M757.242,59.884H288.32Q158.857,68.039,167.012-61.424V-662.867q-2.039-62.183,32.621-95.823,32.621-25.485,84.61-25.485h473q61.164-2.039,95.823,32.621,25.485,31.6,25.485,84.61v605.52Q886.7,68.039,757.242,59.884Zm-494.406-473H782.727V-633.3q-1.02-57.086-59.125-59.125H321.96q-59.125,2.039-59.125,61.164Zm0,89.707V-90.987Q264.874-31.862,324-31.862H723.6q57.086-1.019,59.125-59.125V-323.409Z" transform="translate(-166.529 784.288)"/></svg>