<svg xmlns="http://www.w3.org/2000/svg" width="181.033" height="172" viewBox="0 0 181.033 172"><defs><style>.a{fill:#ddbb8b;}.a,.b,.c,.g{isolation:isolate;}.b{fill:#ebd4b4;}.c{fill:#cca571;}.d{fill:#5b4220;}.e{fill:#966e30;}.f{fill:#7c541f;}.g{fill:#6d502f;opacity:0.5;}</style></defs><g transform="translate(-0.003 0.006)"><rect class="a" width="35.878" height="13.718" transform="translate(145.966 25.376) rotate(-45)"/><rect class="b" width="35.878" height="3.166" transform="translate(145.972 25.364) rotate(-45)"/><path class="b" d="M14.173,161.181l-5.6,9.328,9.328-5.593L152.209,30.606l-3.725-3.736Z" transform="translate(0.473 1.485)"/><path class="b" d="M43.51,127.672a22.339,22.339,0,0,0,2.406,2.11l-2.986,2.986a23.416,23.416,0,0,1-2.406-2.11,19.607,19.607,0,0,1-1.414-1.572L42.1,126.11A19.481,19.481,0,0,0,43.51,127.672Z" transform="translate(2.16 6.967)"/><path class="c" d="M42.1,126.11a19.481,19.481,0,0,0,1.414,1.562,22.339,22.339,0,0,0,2.406,2.11l-2.986,2.986a23.416,23.416,0,0,1-2.406-2.11,19.607,19.607,0,0,1-1.414-1.572Z" transform="translate(2.16 6.967)"/><circle class="d" cx="0.528" cy="0.528" r="0.528" transform="translate(132.443 52.034)"/><circle class="e" cx="21.105" cy="21.105" r="21.105" transform="translate(99.182 38.918)"/><path class="f" d="M135.154,63.755a20.83,20.83,0,0,1-5.128,8.336A21.1,21.1,0,0,1,94.739,51.63a22.445,22.445,0,0,0,6.553,14.109,22.677,22.677,0,0,0,32.079,0,21.021,21.021,0,0,0,1.783-1.984Z" transform="translate(5.192 2.852)"/><circle class="e" cx="21.105" cy="21.105" r="21.105" transform="translate(69.34 68.76)"/><path class="f" d="M106.862,92.045A21.1,21.1,0,0,1,66.457,79.92a22.677,22.677,0,0,0,40.405,12.125Z" transform="translate(3.632 4.415)"/><circle class="e" cx="21.105" cy="21.105" r="21.105" transform="translate(39.487 98.613)"/><path class="f" d="M78.572,120.325A21.1,21.1,0,0,1,38.167,108.2,22.677,22.677,0,0,0,76.81,122.319,20.893,20.893,0,0,0,78.572,120.325Z" transform="translate(2.069 5.977)"/><circle class="d" cx="0.528" cy="0.528" r="0.528" transform="translate(121.996 44.574)"/><ellipse class="d" cx="1.055" cy="1.583" rx="1.055" ry="1.583" transform="translate(54.176 112.109)"/><ellipse class="d" cx="0.528" cy="1.055" rx="0.528" ry="1.055" transform="translate(64.855 104.596)"/><ellipse class="d" cx="0.528" cy="0.739" rx="0.528" ry="0.739" transform="translate(65.91 125.701)"/><ellipse class="d" cx="0.528" cy="1.055" rx="0.528" ry="1.055" transform="translate(71.186 115.148)"/><ellipse class="d" cx="1.055" cy="1.583" rx="1.055" ry="1.583" transform="translate(78.045 85.253)"/><ellipse class="d" cx="0.528" cy="1.055" rx="0.528" ry="1.055" transform="translate(84.999 74.004)"/><ellipse class="d" cx="0.528" cy="1.055" rx="0.528" ry="1.055" transform="translate(100.67 77.729)"/><ellipse class="d" cx="0.528" cy="0.739" rx="0.528" ry="0.739" transform="translate(88.292 91.374)"/><ellipse class="d" cx="0.327" cy="0.454" rx="0.327" ry="0.454" transform="translate(114.409 69.741)"/><ellipse class="d" cx="0.528" cy="1.055" rx="0.528" ry="1.055" transform="translate(99.541 94.254)"/><ellipse class="d" cx="0.791" cy="0.929" rx="0.791" ry="0.929" transform="translate(92.354 81.57)"/><ellipse class="d" cx="0.834" cy="1.245" rx="0.834" ry="1.245" transform="translate(123.262 52.414)"/><ellipse class="d" cx="0.528" cy="1.055" rx="0.528" ry="1.055" transform="translate(108.13 50.873)"/><ellipse class="d" cx="0.791" cy="0.929" rx="0.791" ry="0.929" transform="translate(116.235 57.69)"/><path class="g" d="M74.285,102.02a21.983,21.983,0,0,0-2.11-2.4,20.047,20.047,0,0,0-1.541-1.382A20.978,20.978,0,0,0,59.68,93.62,23.732,23.732,0,0,0,61.949,99.5c.2.38.422.76.654,1.129a24.872,24.872,0,0,0,6.247,6.87,24.271,24.271,0,0,0,9.36,4.348,20.883,20.883,0,0,0-3.926-9.824Z" transform="translate(3.297 5.172)"/><rect class="a" width="35.878" height="13.718" transform="translate(25.373 35.069) rotate(-135)"/><rect class="b" width="35.878" height="3.166" transform="translate(32.829 27.61) rotate(-135)"/><path class="b" d="M164.916,161.181l5.593,9.328-9.328-5.593L26.87,30.606l3.736-3.736Z" transform="translate(1.484 1.485)"/><path class="b" d="M128.406,127.672a22.341,22.341,0,0,1-2.406,2.11l2.986,2.986a22.339,22.339,0,0,0,2.406-2.11,19.607,19.607,0,0,0,1.414-1.572l-2.976-2.976A19.639,19.639,0,0,1,128.406,127.672Z" transform="translate(6.96 6.967)"/><path class="c" d="M126.09,129.84a19.477,19.477,0,0,0,1.562-1.414,21.106,21.106,0,0,0,2.11-2.406l2.986,2.986a23.419,23.419,0,0,1-2.11,2.406,19.482,19.482,0,0,1-1.562,1.414Z" transform="translate(6.965 6.962)"/><circle class="d" cx="0.528" cy="0.528" r="0.528" transform="translate(47.538 52.034)"/><circle class="e" cx="21.105" cy="21.105" r="21.105" transform="translate(39.645 38.918)"/><path class="f" d="M38.57,63.755A20.83,20.83,0,0,0,43.7,72.07,21.1,21.1,0,0,0,78.975,51.63a22.445,22.445,0,0,1-6.553,14.109A22.688,22.688,0,0,1,38.57,63.744Z" transform="translate(2.13 2.852)"/><circle class="e" cx="21.105" cy="21.105" r="21.105" transform="translate(69.498 68.76)"/><path class="f" d="M66.86,92.045A21.1,21.1,0,0,0,107.265,79.92,22.677,22.677,0,0,1,68.622,94.039a20.894,20.894,0,0,1-1.762-1.994Z" transform="translate(3.693 4.415)"/><circle class="e" cx="21.105" cy="21.105" r="21.105" transform="translate(99.34 98.613)"/><path class="f" d="M95.14,120.325A21.1,21.1,0,0,0,135.545,108.2a22.677,22.677,0,0,1-38.632,14.119,21.019,21.019,0,0,1-1.773-1.994Z" transform="translate(5.255 5.977)"/><circle class="d" cx="0.528" cy="0.528" r="0.528" transform="translate(57.985 44.574)"/><ellipse class="d" cx="1.055" cy="1.583" rx="1.055" ry="1.583" transform="translate(124.761 112.109)"/><ellipse class="d" cx="0.528" cy="1.055" rx="0.528" ry="1.055" transform="translate(115.127 104.596)"/><ellipse class="d" cx="0.528" cy="0.739" rx="0.528" ry="0.739" transform="translate(114.071 125.701)"/><ellipse class="d" cx="0.528" cy="1.055" rx="0.528" ry="1.055" transform="translate(108.795 115.148)"/><ellipse class="d" cx="1.055" cy="1.583" rx="1.055" ry="1.583" transform="translate(100.881 85.253)"/><ellipse class="d" cx="0.528" cy="1.055" rx="0.528" ry="1.055" transform="translate(94.982 74.004)"/><ellipse class="d" cx="0.528" cy="1.055" rx="0.528" ry="1.055" transform="translate(79.312 77.729)"/><ellipse class="d" cx="0.528" cy="0.739" rx="0.528" ry="0.739" transform="translate(91.69 91.374)"/><ellipse class="d" cx="0.327" cy="0.454" rx="0.327" ry="0.454" transform="translate(65.973 69.741)"/><ellipse class="d" cx="0.528" cy="1.055" rx="0.528" ry="1.055" transform="translate(80.441 94.254)"/><ellipse class="d" cx="0.791" cy="0.929" rx="0.791" ry="0.929" transform="translate(87.099 81.57)"/><ellipse class="d" cx="0.834" cy="1.245" rx="0.834" ry="1.245" transform="translate(56.107 52.414)"/><ellipse class="d" cx="0.528" cy="1.055" rx="0.528" ry="1.055" transform="translate(71.851 50.873)"/><ellipse class="d" cx="0.791" cy="0.929" rx="0.791" ry="0.929" transform="translate(63.219 57.69)"/></g></svg>