<svg xmlns="http://www.w3.org/2000/svg" width="184.277" height="172.226" viewBox="0 0 184.277 172.226"><defs><style>.a{fill:#ddbb8b;}.a,.b,.c,.d,.e,.f,.h{isolation:isolate;}.b{fill:#ebd4b4;}.c{fill:#966e30;}.d{fill:#4f300c;}.e{fill:#ccad7f;opacity:0.58;}.f{fill:#e5c583;}.g{fill:#f1d852;}.h{fill:#6d502f;opacity:0.5;}</style></defs><g transform="translate(0.005 0.004)"><rect class="a" width="35.707" height="13.653" transform="translate(149.369 25.249) rotate(-45)"/><rect class="b" width="35.707" height="3.151" transform="translate(149.368 25.245) rotate(-45)"/><path class="b" d="M18.047,160.539l-5.577,9.284,9.284-5.566L155.423,30.588l-3.707-3.718Z" transform="translate(0.626 1.349)"/><path class="c" d="M128.333,34.537l15.186,15.238a3.434,3.434,0,0,1,0,4.862l-17.454,17.4a3.4,3.4,0,0,1-4.421.357.336.336,0,0,1-.137-.105,1.691,1.691,0,0,1-.294-.252l-15.165-15.2a1.691,1.691,0,0,1-.252-.294.336.336,0,0,1-.105-.137,3.4,3.4,0,0,1,.357-4.421L123.5,34.537a3.434,3.434,0,0,1,4.831,0Z" transform="translate(5.273 1.684)"/><path class="c" d="M123.408,75.8l-9.452,9.452h0L102.079,97.137h0l-8.16,8.171-2.51,2.5h0l-1.943,1.953h0l-3.025,3.014-3.434,3.466a3.392,3.392,0,0,1-4.558.252l-.158-.116L68.7,106.789l-.4-.315-4.085-4.085-1.344-1.355a2.017,2.017,0,0,1-.189-.231,3.413,3.413,0,0,1,.252-4.558l3.476-3.476,2.941-3.1,1.953-1.953,2.51-2.5,8.2-8.15,4.463-4.453,7.425-7.435,9.452-9.452a3.424,3.424,0,0,1,4.568-.252l.147.126,1.418,1.418h0l13.9,13.9a3.5,3.5,0,0,1,.263.294,3.413,3.413,0,0,1-.252,4.579Z" transform="translate(3.109 2.747)"/><path class="c" d="M64.025,98.848l15.186,15.186c.095.095.179.2.263.294a.63.63,0,0,1,.095.137,3.424,3.424,0,0,1-.357,4.432L61.756,136.351a3.434,3.434,0,0,1-4.862,0L41.708,121.165a3.434,3.434,0,0,1,0-4.862L59.162,98.848a3.424,3.424,0,0,1,4.432-.357.631.631,0,0,1,.137.095Z" transform="translate(2.043 4.912)"/><rect class="d" width="6.301" height="28.355" transform="translate(120.032 44.925) rotate(-45)"/><path class="d" d="M108.077,49.14,128.1,69.2,126,71.3a3.4,3.4,0,0,1-4.421.357L105.661,55.63a3.4,3.4,0,0,1,.357-4.421Z" transform="translate(5.271 2.467)"/><rect class="d" width="6.301" height="28.355" transform="translate(97.011 67.945) rotate(-45)"/><rect class="d" width="6.301" height="28.355" transform="translate(85.134 79.832) rotate(-45)"/><path class="d" d="M93.552,103.848l-2.5,2.5L89.1,108.3h-.011L77.211,96.423l-.368-.378L72.758,91.96,69.04,88.253,70.993,86.3l2.51-2.5Z" transform="translate(3.466 4.207)"/><path class="d" d="M62.81,98.491l15.973,15.973a3.424,3.424,0,0,1-.357,4.432l-2.1,2.1L56.32,100.907l2.1-2.1A3.424,3.424,0,0,1,62.81,98.491Z" transform="translate(2.827 4.912)"/><rect class="d" width="6.301" height="28.355" transform="translate(47.264 117.699) rotate(-45)"/><rect class="e" width="127.074" height="6.301" transform="translate(45.031 127.356) rotate(-45)"/><path class="f" d="M48.122,129.121c0,.4-.378.525-1.481,1.481a7.026,7.026,0,0,0-1.491,1.491,3.319,3.319,0,0,0-.326,2.552L42.84,136.63a.63.63,0,0,1-.336-.105c-.683-.42-.63-2.1,0-3.151a7.593,7.593,0,0,1,1.575-1.565c1.166-1.05,1.544-1.145,1.565-1.575a2,2,0,0,0-1.565-1.586c.158-.116.273-.21.347-.252a3.014,3.014,0,0,1,2.237-.746C47.408,127.8,48.164,128.491,48.122,129.121Z" transform="translate(2.109 6.407)"/><path class="g" d="M43.138,118.458a3.151,3.151,0,0,0-2.972,0,2.9,2.9,0,0,0-.746,3.718c.651.924,1.68.41,2.972,1.481.074.063,1.712,1.449,1.491,2.972-.116.777-1.05,1.523-2.972,2.972-1.649,1.25-2.541,1.764-2.972,2.972-.084.242-.389,1.05,0,1.481s1.313.063,1.481,0c.945-.357,1.271-1.05,2.237-2.226a12.729,12.729,0,0,1,2.962-2.972,3.014,3.014,0,0,1,2.237-.746c.767.168,1.523.872,1.481,1.491,0,.4-.378.525-1.481,1.481a7.025,7.025,0,0,0-1.491,1.491c-.588,1.05-.651,2.573,0,2.962s1.953-.536,2.226-.735c1.344-1,1.281-1.974,2.226-2.226a2.783,2.783,0,0,1,2.237.735c.851.767.588,1.407,1.481,2.972.557.966,1.166,2.027,2.226,2.226a2.888,2.888,0,0,0,2.226-.735,3.56,3.56,0,0,0,1.491-2.972c-.168-1.155-1.208-1.586-2.972-2.972a30.738,30.738,0,0,1-4.453-4.453c-2.478-3.088-1.848-4.033-3.718-5.251-1.365-.861-2.457-.83-3.718-2.237C44.051,119.308,43.862,118.836,43.138,118.458Z" transform="translate(1.895 5.928)"/><path class="g" d="M125.66,35.958a3.151,3.151,0,0,1-.746-3.718,2.731,2.731,0,0,1,.746-.735,3.812,3.812,0,0,1,2.226-.746,3.875,3.875,0,0,1,2.226.746,5.4,5.4,0,0,1,1.491,1.481,15.531,15.531,0,0,1,1.481,2.972,9.452,9.452,0,0,0,2.972,2.972c1.922,1.491,2.447,1.334,4.453,2.972a10,10,0,0,1,2.237,2.226c1.05,1.46.672,1.985,1.481,2.972,1.323,1.607,2.867.987,3.718,2.226,1.05,1.5-.168,3.991-.746,5.251a13.852,13.852,0,0,1-5.944,5.839,27.074,27.074,0,0,0-2.972,1.491,17.392,17.392,0,0,0-3.707,3.76,36.756,36.756,0,0,1-5.944,5.944,2.846,2.846,0,0,1-2.226.746,2.153,2.153,0,0,1-1.491-1.491c-.347-1.46,1.365-2.962,2.237-3.707,1.659-1.449,2.815-1.68,4.453-2.972a8.192,8.192,0,0,0,2.972-4.453,13.285,13.285,0,0,1,1.481-2.972c1.155-1.691,2.1-.515,3.718-2.226a4.757,4.757,0,0,0,1.481-2.972c.095-2.415-2.457-4.138-2.972-4.453-1.922-1.229-2.594-.368-4.453-1.491a8.685,8.685,0,0,1-3.718-5.156c-.483-1.974.105-2.983-.735-3.707C128.307,35.78,126.91,36.946,125.66,35.958Z" transform="translate(6.255 1.544)"/><path class="h" d="M91.2,106.228l-1.953,1.953h-.011l-3,3L66.18,91.137l3-3,1.953-1.953,3.718,3.707,4.085,4.085.368.378,11.878,11.878Z" transform="translate(3.322 4.326)"/><rect class="a" width="35.707" height="13.653" transform="translate(25.249 35.944) rotate(-135)"/><rect class="b" width="35.707" height="3.151" transform="translate(25.243 35.956) rotate(-135)"/><path class="b" d="M160.539,165.257l9.284,5.566-5.566-9.284L30.588,27.87,26.87,31.588Z" transform="translate(1.349 1.399)"/><path class="c" d="M34.538,50.025l15.238-15.2a3.434,3.434,0,0,1,4.862,0l17.4,17.454a3.424,3.424,0,0,1,.357,4.432.3.3,0,0,1-.105.126,2.279,2.279,0,0,1-.252.3l-15.2,15.186a1.691,1.691,0,0,1-.294.252.336.336,0,0,1-.137.105,3.4,3.4,0,0,1-4.421-.357L34.538,54.876a3.424,3.424,0,0,1,0-4.852Z" transform="translate(1.683 1.698)"/><path class="c" d="M55.748,71.234l15.2-15.186.284-.263a3.445,3.445,0,0,1,4.568.263L116.24,96.481a3.413,3.413,0,0,1,.252,4.558,3.531,3.531,0,0,1-.252.3l-15.2,15.186a1.69,1.69,0,0,1-.294.252,3.392,3.392,0,0,1-4.558-.252L55.748,76.086a3.434,3.434,0,0,1-.263-4.568A3.361,3.361,0,0,1,55.748,71.234Z" transform="translate(2.748 2.763)"/><path class="c" d="M98.848,114.334l15.186-15.2.294-.263a.63.63,0,0,1,.137-.095,3.424,3.424,0,0,1,4.432.357l17.454,17.454a3.434,3.434,0,0,1,0,4.862l-15.186,15.2a3.434,3.434,0,0,1-4.862,0L98.848,119.186a3.4,3.4,0,0,1-.357-4.421,1.157,1.157,0,0,1,.095-.147A3.362,3.362,0,0,1,98.848,114.334Z" transform="translate(4.912 4.926)"/><rect class="d" width="28.355" height="6.301" transform="translate(40.473 60.835) rotate(-45)"/><path class="d" d="M49.14,69.488,69.2,49.44l2.1,2.1a3.424,3.424,0,0,1,.357,4.432L55.63,71.9a3.4,3.4,0,0,1-4.421-.357Z" transform="translate(2.467 2.482)"/><rect class="d" width="28.355" height="6.301" transform="translate(63.493 83.855) rotate(-45)"/><rect class="d" width="28.355" height="6.301" transform="translate(75.373 95.725) rotate(-45)"/><rect class="d" width="28.355" height="6.301" transform="translate(87.995 108.359) rotate(-45)"/><path class="d" d="M98.491,114.8l15.973-15.984a3.424,3.424,0,0,1,4.432.357l2.1,2.1-20.048,20.048-2.1-2.1a3.4,3.4,0,0,1-.357-4.421Z" transform="translate(4.912 4.928)"/><rect class="d" width="28.355" height="6.301" transform="translate(113.24 133.606) rotate(-45)"/><rect class="e" width="6.301" height="127.074" transform="translate(44.187 43.755) rotate(-45)"/><path class="f" d="M129.122,128.63c.221,0,.357.137.6.41a2.216,2.216,0,0,0-.6,1.05,2.983,2.983,0,0,0,.735,2.226,13.138,13.138,0,0,0,2.972,2.972c1.229.956,1.869,1.292,2.226,2.226.074.168.41,1.05,0,1.481a.746.746,0,0,1-.546.2l-.746-.746a2.919,2.919,0,0,0-.189-.935c-.357-.935-1-1.271-2.226-2.226a12.875,12.875,0,0,1-2.972-2.972,2.993,2.993,0,0,1-.746-2.226C127.8,129.344,128.492,128.588,129.122,128.63Z" transform="translate(6.406 6.457)"/><path class="g" d="M118.458,134.362a3.151,3.151,0,0,0,0,2.972,2.9,2.9,0,0,0,3.718.746c.924-.641.41-1.67,1.481-2.972.063-.074,1.449-1.712,2.972-1.481.777.116,1.523,1.05,2.972,2.962,1.25,1.649,1.764,2.552,2.972,2.972.242.084,1.05.389,1.481,0s.063-1.313,0-1.481c-.357-.935-1.05-1.271-2.226-2.226a12.876,12.876,0,0,1-2.972-2.972,2.983,2.983,0,0,1-.746-2.226c.168-.777.872-1.533,1.491-1.491.4,0,.525.389,1.481,1.491a7.163,7.163,0,0,0,1.491,1.481c1.05.588,2.573.651,2.962,0s-.536-1.953-.735-2.226c-1-1.334-1.974-1.281-2.226-2.226a2.773,2.773,0,0,1,.735-2.226c.767-.861,1.407-.588,2.972-1.491.966-.546,2.027-1.155,2.226-2.226a2.9,2.9,0,0,0-.735-2.226A3.518,3.518,0,0,0,134.8,118c-1.155.158-1.586,1.2-2.972,2.962a31.107,31.107,0,0,1-4.453,4.463c-3.088,2.468-4.033,1.838-5.251,3.707-.861,1.365-.83,2.457-2.237,3.718C119.308,133.448,118.836,133.637,118.458,134.362Z" transform="translate(5.928 5.923)"/><path class="g" d="M52.754,36.548a3.151,3.151,0,0,0,.746-3.718,2.468,2.468,0,0,0-.746-.735,3.749,3.749,0,0,0-2.226-.746A3.938,3.938,0,0,0,48.3,32.1a5.419,5.419,0,0,0-1.5,1.481,16.3,16.3,0,0,0-1.47,2.972,9.378,9.378,0,0,1-2.972,2.972c-1.922,1.491-2.447,1.334-4.453,2.972a10.166,10.166,0,0,0-2.226,2.226c-1,1.46-.672,1.985-1.481,2.972-1.334,1.607-2.867.987-3.718,2.226-1.05,1.5.168,3.991.746,5.2a13.9,13.9,0,0,0,5.934,5.934,28.031,28.031,0,0,1,2.972,1.491c1.05.725,2.1,2.583,4.033,4.883,1.439,1.691,2.667,1.848,5.2,3.718.515.378,5.251,6.679,7.425,4.453,1.481-1.491.735-3.718-.746-5.251s-2.941-1.439-5.2-2.174-2.825-3.151-4.453-4.463c-2.342-1.838-2.237-2.594-2.541-3.392a13.233,13.233,0,0,0-1.491-2.972c-1.145-1.691-2.1-.515-3.707-2.226a4.715,4.715,0,0,1-1.491-2.972c-.095-2.415,2.468-4.127,2.972-4.453,1.932-1.229,2.594-.357,4.463-1.491A8.717,8.717,0,0,0,48.3,40.949c.483-1.974-.105-2.972.746-3.707C50.108,36.37,51.515,37.536,52.754,36.548Z" transform="translate(1.51 1.574)"/></g></svg>