<svg xmlns="http://www.w3.org/2000/svg" width="211.867" height="122.891" viewBox="0 0 211.867 122.891"><defs><style>.a{fill:#e2ded5;}.a,.b,.d,.f,.g,.h,.i,.k,.l,.m{isolation:isolate;}.b{fill:#eaeaea;}.c{fill:#fff;}.d{fill:#ad3d3d;}.e{fill:#f9d6bb;opacity:0.45;}.f{fill:#8da32e;}.g{fill:none;stroke:#22353b;stroke-miterlimit:10;stroke-width:2px;}.h{fill:#1f2a2d;}.i{fill:#b29c74;}.j{opacity:0.16;}.k{fill:#9b9789;}.l{fill:#d3cfc9;}.m{fill:#cb5847;}</style></defs><g transform="translate(-0.001 0.01)"><path class="a" d="M52.5,117.67c2.28,1.94,6.79,2.63,10.09,1.54a7,7,0,0,0,1.6-.76,3.73,3.73,0,0,0,.6.3,10.11,10.11,0,0,0,8.65-1.29,4.39,4.39,0,0,0,1.29-1.41,3.64,3.64,0,0,0,1.2.72,10.1,10.1,0,0,0,8.64-1.29,5.33,5.33,0,0,0,.9-.86,10.83,10.83,0,0,0,8.58-.85,4,4,0,0,0,2.19-2.54,10.41,10.41,0,0,0,6.88-1.69c1.33-1,1.81-2.11,1.51-3.08a7.77,7.77,0,0,0,2.72.06c2.69-.43,4.05-2.24,3-4a3.09,3.09,0,0,0-.48-.66,9,9,0,0,0,1.27-.08c2.69-.44,4-2.25,3-4a5,5,0,0,0-2.35-1.9,6.6,6.6,0,0,0,3.33-.74,1.74,1.74,0,0,0,1-1.46V24.78c0-1-1.06-2.18-3-3.06a12,12,0,0,0-1.59-.57,4.2,4.2,0,0,0,1.62-.94c1.43-1.48-.16-3.43-3.56-4.37a14,14,0,0,0-3-.47c1.61-1.41.55-3.44-2.54-4.63a13.51,13.51,0,0,0-5.46-.83h0c1.07-1.39-.7-3.09-4-3.8a12,12,0,0,0-6.11.17c.72-1.34-1-2.9-4.07-3.57A11.67,11.67,0,0,0,78.08,3a3.13,3.13,0,0,0-1.74-1.43,10.82,10.82,0,0,0-8.21.89,3.55,3.55,0,0,0-2-1.69,11.35,11.35,0,0,0-8.93.94A5.92,5.92,0,0,0,53.72.1a9.25,9.25,0,0,0-7,1.76,6.73,6.73,0,0,0-2.9-1.1c-3.32-.49-7,.89-8.12,3.09a3.55,3.55,0,0,0-.21.5,11.47,11.47,0,0,0-6.42-.82c-2.73.44-4.53,1.78-4.79,3.34a11.67,11.67,0,0,0-3.87,0c-2.57.41-4.31,1.63-4.73,3.06a12.84,12.84,0,0,0-2.14.15c-3.56.57-5.66,2.58-5.14,4.68a11.649,11.649,0,0,0-1.6.36c-3.24,1-4.41,3.23-2.95,5.22C1.58,21.08.14,22.35.14,23.72V53.54c0,.18,0,39.37.08,39.55a4.709,4.709,0,0,0,3,2.54c-1.44.89-2.17,2.05-1.82,3.26.39,1.36,2.05,2.45,4.31,3a2.35,2.35,0,0,0-.6,2.24c.55,1.94,3.71,3.35,7.46,3.5a2.31,2.31,0,0,0,.92,2.28c1.4,1.19,4,1.79,6.65,1.66A3.09,3.09,0,0,0,22,114a12.2,12.2,0,0,0,8.23.58c.27,1.13,1.4,2.14,3.28,2.72a12.25,12.25,0,0,0,7.41-.23A6.75,6.75,0,0,0,44.83,119a11.29,11.29,0,0,0,7.67-1.33Z"/><path class="b" d="M52.36,48.85c2.28,1.94,6.79,2.63,10.09,1.54a7,7,0,0,0,1.6-.76,3.73,3.73,0,0,0,.6.3,10.11,10.11,0,0,0,8.65-1.29,4.39,4.39,0,0,0,1.29-1.41,3.64,3.64,0,0,0,1.2.72,10.1,10.1,0,0,0,8.64-1.29,5.33,5.33,0,0,0,.9-.86,10.83,10.83,0,0,0,8.58-.8,4,4,0,0,0,2.19-2.54,10.42,10.42,0,0,0,6.88-1.7c1.33-1,1.81-2.1,1.51-3.07a7.77,7.77,0,0,0,2.72.06c2.69-.43,4.05-2.24,3-4a3.31,3.31,0,0,0-.48-.65,9,9,0,0,0,1.27-.08c2.69-.44,4-2.25,3-4A4.9,4.9,0,0,0,111.72,27a6.6,6.6,0,0,0,3.33-.74c1.84-1.15.92-3.17-2-4.52a12,12,0,0,0-1.59-.57,4.2,4.2,0,0,0,1.62-.94c1.43-1.47-.16-3.43-3.56-4.37a14,14,0,0,0-3-.47c1.61-1.41.55-3.43-2.54-4.63a13.34,13.34,0,0,0-5.46-.83h0c1.07-1.39-.7-3.09-4-3.8a12,12,0,0,0-6.11.17c.72-1.34-1-2.9-4.07-3.57a11.67,11.67,0,0,0-6.4.27A3.13,3.13,0,0,0,76.2,1.54a10.82,10.82,0,0,0-8.2.89A3.55,3.55,0,0,0,66,.74a11.35,11.35,0,0,0-9,.94A5.92,5.92,0,0,0,53.58.1a9.25,9.25,0,0,0-7,1.76,6.6,6.6,0,0,0-2.9-1.1c-3.32-.5-7,.89-8.12,3.09a3.55,3.55,0,0,0-.21.5,11.47,11.47,0,0,0-6.42-.82C26.2,4,24.4,5.31,24.14,6.87a11.67,11.67,0,0,0-3.87,0C17.7,7.24,16,8.46,15.54,9.89A12.84,12.84,0,0,0,13.4,10c-3.56.57-5.66,2.58-5.14,4.69a10.33,10.33,0,0,0-1.6.35c-3.24,1-4.41,3.23-2.95,5.23-2.57.87-4.08,2.39-3.63,4,.3,1.05,1.43,1.94,3,2.54-1.44.89-2.17,2.05-1.82,3.26s2.05,2.45,4.31,3A2.35,2.35,0,0,0,5,35.35c.55,1.94,3.71,3.35,7.46,3.5a2.29,2.29,0,0,0,.92,2.27c1.4,1.21,4,1.79,6.65,1.67a3.11,3.11,0,0,0,1.88,2.38,12.2,12.2,0,0,0,8.23.58c.27,1.13,1.4,2.15,3.28,2.72a12.25,12.25,0,0,0,7.41-.23,6.69,6.69,0,0,0,3.87,1.89,11.29,11.29,0,0,0,7.66-1.28Z"/><ellipse class="c" cx="4.33" cy="2.31" rx="4.33" ry="2.31" transform="translate(95.11 14.56)"/><ellipse class="c" cx="4.33" cy="2.31" rx="4.33" ry="2.31" transform="translate(102.53 25.13)"/><ellipse class="c" cx="4.33" cy="2.31" rx="4.33" ry="2.31" transform="translate(88.92 33.71)"/><path class="c" d="M90.78,28.43a7.14,7.14,0,0,1-1.92-.25,5.93,5.93,0,0,0,.68-2.73,5.61,5.61,0,0,0-.21-1.51,7.51,7.51,0,0,1,1.45-.14c2.38,0,4.33,1,4.33,2.31S93.16,28.43,90.78,28.43Z"/><path class="c" d="M82.12,16.54a6.45,6.45,0,0,1-1-.07c-.87-.39-1.78-.76-2.75-1.09a1.57,1.57,0,0,1-.58-1.15c0-1.28,1.94-2.31,4.33-2.31s4.33,1,4.33,2.31S84.51,16.54,82.12,16.54Z"/><ellipse class="c" cx="4.33" cy="2.31" rx="4.33" ry="2.31" transform="translate(74.08 4)"/><ellipse class="c" cx="4.33" cy="2.31" rx="4.33" ry="2.31" transform="translate(44.39 7.96)"/><ellipse class="c" cx="4.33" cy="2.31" rx="4.33" ry="2.31" transform="translate(4.81 25.79)"/><ellipse class="c" cx="4.33" cy="2.31" rx="4.33" ry="2.31" transform="translate(14.71 34.37)"/><path class="c" d="M38.83,40.31c-2.39,0-4.33-1-4.33-2.31s1.58-2.11,3.66-2.28h0c1.43.48,2.95.91,4.55,1.29h0a1.47,1.47,0,0,1,.42,1C43.16,39.27,41.22,40.31,38.83,40.31Z"/><ellipse class="c" cx="4.33" cy="2.31" rx="4.33" ry="2.31" transform="translate(45.63 42.95)"/><path class="c" d="M66,42.29c-2.39,0-4.33-1-4.33-2.31a1.85,1.85,0,0,1,1-1.47c1.87-.11,3.69-.3,5.43-.55,1.34.39,2.24,1.15,2.24,2C70.37,41.25,68.43,42.29,66,42.29Z"/><ellipse class="c" cx="4.33" cy="2.31" rx="4.33" ry="2.31" transform="translate(79.03 40.97)"/><ellipse class="c" cx="4.33" cy="2.31" rx="4.33" ry="2.31" transform="translate(27.08 5.98)"/><ellipse class="c" cx="4.33" cy="2.31" rx="4.33" ry="2.31" transform="translate(12.23 13.9)"/><ellipse class="c" cx="3.71" cy="1.98" rx="3.71" ry="1.98" transform="translate(88.92 7.3)"/><path class="c" d="M65.66,50.23a1.17,1.17,0,0,1-.24-.68c0-1.09,1.66-2,3.71-2,1.72,0,3.16.62,3.58,1.46a10.59,10.59,0,0,1-7.05,1.22Z"/><path class="c" d="M33.26,48.23a5.52,5.52,0,0,1-.58,0,3.92,3.92,0,0,1-2.55-2.47l-.5.13c.32-.91,1.83-1.6,3.63-1.6,2.06,0,3.71.89,3.71,2S35.32,48.23,33.26,48.23Z"/><ellipse class="c" cx="3.71" cy="1.98" rx="3.71" ry="1.98" transform="translate(58 2.68)"/><path class="c" d="M25.84,24.46c-2.05,0-3.71-.88-3.71-2s1.66-2,3.71-2a5.82,5.82,0,0,1,2.46.5,7.3,7.3,0,0,0-1.74,3.42,5.691,5.691,0,0,1-.72.08Z"/><path class="c" d="M44.39,4c-2,0-3.71-.88-3.71-2a1.65,1.65,0,0,1,1-1.33,9.84,9.84,0,0,1,2,.09,6.48,6.48,0,0,1,2.88,1.09,8,8,0,0,1,1.11-.76A1.25,1.25,0,0,1,48.1,2C48.1,3.11,46.45,4,44.39,4Z"/><path class="d" d="M58.14,38.66H58c-1.31,0-2.6,0-3.86-.1-2-.1-4-.28-5.84-.54-1.51-.2-3-.45-4.37-.74l-1.79-.41a40.65,40.65,0,0,1-7.69-2.63,18.76,18.76,0,0,1-5.84-4,7.06,7.06,0,0,1-2.16-4.82,7.05,7.05,0,0,1,2.16-4.81,18.76,18.76,0,0,1,5.84-4A40.65,40.65,0,0,1,42.14,14c.58-.15,1.18-.28,1.79-.41,1.4-.29,2.86-.54,4.37-.74,1.87-.26,3.83-.44,5.84-.54,1.26-.07,2.55-.1,3.86-.1h.14c17.36,0,31.4,5.93,31.4,13.2S75.5,38.63,58.14,38.66Z"/><path class="e" d="M28.61,30.27a7.06,7.06,0,0,1-2.16-4.82,7.05,7.05,0,0,1,2.16-4.81Z"/><path class="e" d="M42.14,36.87a40.65,40.65,0,0,1-7.69-2.63V16.67A40.65,40.65,0,0,1,42.14,14Z"/><path class="e" d="M54.14,12.35V38.56c-2-.1-4-.28-5.84-.54V12.89Z"/><path class="f" d="M58.14,38.66V12.25c17.36,0,31.4,5.93,31.4,13.2S75.5,38.63,58.14,38.66Z"/><path class="g" d="M58.14,38.66H58c-1.31,0-2.6,0-3.86-.1-2-.1-4-.28-5.84-.54-1.51-.2-3-.45-4.37-.74l-1.79-.41a40.65,40.65,0,0,1-7.69-2.63,18.76,18.76,0,0,1-5.84-4,7.06,7.06,0,0,1-2.16-4.82,7.05,7.05,0,0,1,2.16-4.81,18.76,18.76,0,0,1,5.84-4A40.65,40.65,0,0,1,42.14,14c.58-.15,1.18-.28,1.79-.41,1.4-.29,2.86-.54,4.37-.74,1.87-.26,3.83-.44,5.84-.54,1.26-.07,2.55-.1,3.86-.1h.14c17.36,0,31.4,5.93,31.4,13.2S75.5,38.63,58.14,38.66Z"/><path class="h" d="M109.53,53.31c-.75.66-3.06,1.09-3.46.63s.32-2.69,1.07-3.35a1.81,1.81,0,1,1,2.39,2.72Z"/><path class="h" d="M90.12,85.55c-1-.19-2.75-1.75-2.63-2.34S89.8,81.8,90.78,82a1.81,1.81,0,0,1-.66,3.56Z"/><path class="i" d="M72.43,72c.42.9.17,3.24-.38,3.49s-2.49-1.07-2.91-2A1.81,1.81,0,1,1,72.43,72Z"/><path class="h" d="M62.14,106.8c-1,.07-3.1-1-3.15-1.57s1.87-2,2.87-2a1.81,1.81,0,0,1,.28,3.61Z"/><path class="h" d="M41.56,75.28c-1-.28-2.57-2-2.4-2.57s2.44-1.18,3.4-.91a1.81,1.81,0,1,1-1,3.48Z"/><path class="h" d="M31.7,92.73c-.84.55-3.18.66-3.52.15s.69-2.62,1.52-3.17a1.81,1.81,0,1,1,2,3Z"/><path class="i" d="M23.09,75.21c-.32-.8,0-2.79.48-3s2.09,1,2.4,1.82a1.552,1.552,0,0,1-2.88,1.16Z"/><path class="h" d="M11.09,83.21c-.32-.8,0-2.79.48-3s2.09,1,2.4,1.82a1.552,1.552,0,1,1-2.88,1.16Z"/><path class="i" d="M36.73,106.44c.12-.85,1.39-2.41,1.9-2.34s1.3,1.93,1.18,2.78a1.56,1.56,0,0,1-3.08-.44Z"/><path class="i" d="M57.82,85.45c.1.85-.72,2.69-1.23,2.75s-1.75-1.53-1.85-2.38a1.551,1.551,0,1,1,3.08-.37Z"/><path class="i" d="M82.38,99.42c-.81.3-2.79,0-3-.54s1.06-2.06,1.86-2.37a1.56,1.56,0,1,1,1.11,2.91Z"/><path class="i" d="M102,99.06c-.22.82-1.67,2.22-2.17,2.09s-1-2.08-.82-2.91a1.555,1.555,0,0,1,3,.82Z"/><path class="h" d="M93,65.1c-.25.82-1.74,2.18-2.23,2s-1-2.1-.75-2.92a1.565,1.565,0,1,1,3,.89Z"/><path class="i" d="M107,80.1c-.25.82-1.74,2.18-2.23,2s-1-2.1-.75-2.92a1.565,1.565,0,1,1,3,.89Z"/><path class="h" d="M16.67,56.76c-.6.8-2.79,1.67-3.27,1.31s-.22-2.7.39-3.5a1.81,1.81,0,1,1,2.88,2.19Z"/><path class="h" d="M55.67,60.76c-.6.8-2.79,1.67-3.27,1.31s-.22-2.7.39-3.5a1.81,1.81,0,1,1,2.88,2.19Z"/><g class="j"><path class="k" d="M72.9,20.53a8.1,8.1,0,0,0-1.59,5.58h0C68.59,25,65.32,26.8,64,30.13a6.85,6.85,0,0,0,.33,6.25c-2.58-.73-5.57,1-6.86,4.17A6.73,6.73,0,0,0,58,47.14a4.79,4.79,0,0,0-2.73,1.78,4.08,4.08,0,0,0-.62,1.21,12.37,12.37,0,0,0,7.77.28,4.87,4.87,0,0,1,.78-3.74,4.8,4.8,0,0,1,2.67-1.74,6.57,6.57,0,0,1-.54-6.43c1.26-3.08,4.19-4.8,6.71-4.08a6.71,6.71,0,0,1-.33-6.11c1.34-3.25,4.54-5,7.15-4h0a7.94,7.94,0,0,1,1.55-5.45,8.52,8.52,0,0,1,1-1.18C78.78,16.37,75.11,17.5,72.9,20.53Z"/><path class="k" d="M91.09,11.22c-2.83-1.47-6.59.17-8.39,3.64a7.91,7.91,0,0,0-.83,2.53c2.22-1.86,5.12-2.31,7.26-1a8.24,8.24,0,0,1,2.29-4.95,2,2,0,0,0-.33-.22Z"/></g><path class="a" d="M208,70.37c3.65-2.28,4.95-6.79,2.89-10.09a6.42,6.42,0,0,0-1.42-1.6,4.611,4.611,0,0,0,.57-.6c1.81-2.49.72-6.36-2.43-8.65A8.5,8.5,0,0,0,205,48.14a4.3,4.3,0,0,0,1.35-1.2c1.81-2.48.72-6.35-2.43-8.64a8.87,8.87,0,0,0-1.61-.9c1.8-2.29,1.15-6-1.6-8.58a8.11,8.11,0,0,0-4.77-2.19c.48-2.31-.7-5.08-3.18-6.88A7.83,7.83,0,0,0,187,18.24a4.3,4.3,0,0,0,.11-2.72c-.81-2.69-4.21-4-7.58-3a8,8,0,0,0-1.24.48,4,4,0,0,0-.15-1.27c-.81-2.69-4.21-4-7.59-3A7.38,7.38,0,0,0,166.94,11a4.32,4.32,0,0,0-1.4-3.33,4.13,4.13,0,0,0-2.73-.95h-56a8,8,0,0,0-5.75,3A9.49,9.49,0,0,0,100,11.3a4.65,4.65,0,0,0-1.76-1.62c-2.77-1.43-6.44.16-8.21,3.56a8.24,8.24,0,0,0-.88,3c-2.64-1.61-6.45-.55-8.7,2.54a8,8,0,0,0-1.55,5.46c-2.61-1.07-5.81.7-7.15,4A6.72,6.72,0,0,0,72,34.28c-2.52-.72-5.45,1-6.71,4.07a6.6,6.6,0,0,0,.54,6.44,4.75,4.75,0,0,0-2.67,1.74c-1.64,2.26-.87,5.7,1.66,8.21a5.46,5.46,0,0,0-3.17,2c-1.86,2.56-1,6.37,1.77,8.93a5.59,5.59,0,0,0-3,3.43c-.73,2.59.69,5.36,3.31,7a5.48,5.48,0,0,0-2.07,2.89c-.93,3.32,1.66,7,5.8,8.12.31.09.62.15.94.21a6.77,6.77,0,0,0-1.5,6.48,7,7,0,0,0,6.27,4.79,6.38,6.38,0,0,0-.07,3.87,6.94,6.94,0,0,0,5.75,4.73,6.85,6.85,0,0,0,.28,2.14c1.07,3.56,4.83,5.66,8.79,5.14a7,7,0,0,0,.67,1.6c1.87,3.24,6.06,4.41,9.81,3a7.72,7.72,0,0,0,6.41,3.71h56a7.4,7.4,0,0,0,1-.08,7.17,7.17,0,0,0,4.76-3,7.58,7.58,0,0,0,6.13,1.82,7.67,7.67,0,0,0,5.71-4.31,7.34,7.34,0,0,0,4.21.6,8,8,0,0,0,6.56-7.46,6.63,6.63,0,0,0,4.28-.92,7,7,0,0,0,3.12-6.65,6.65,6.65,0,0,0,4.48-1.88,7.11,7.11,0,0,0,1.08-8.23,6.81,6.81,0,0,0,5.12-3.28,7,7,0,0,0-.44-7.41A6.67,6.67,0,0,0,210.41,78,7.07,7.07,0,0,0,208,70.37Z"/><path class="b" d="M152,70.51c3.65-2.28,4.94-6.79,2.88-10.09a6.39,6.39,0,0,0-1.41-1.6,4.641,4.641,0,0,0,.57-.6c1.81-2.49.72-6.36-2.44-8.65a8.73,8.73,0,0,0-2.6-1.29,4.55,4.55,0,0,0,1.36-1.19c1.81-2.49.72-6.36-2.44-8.65a8.8,8.8,0,0,0-1.6-.9c1.8-2.29,1.14-6-1.61-8.57a8,8,0,0,0-4.77-2.19c.48-2.32-.7-5.09-3.18-6.89A7.81,7.81,0,0,0,131,18.38a4.36,4.36,0,0,0,.12-2.72c-.82-2.69-4.21-4.05-7.59-3a7.329,7.329,0,0,0-1.23.49,4.28,4.28,0,0,0-.16-1.28c-.81-2.69-4.21-4-7.58-3A7.27,7.27,0,0,0,111,11.15a4.36,4.36,0,0,0-1.4-3.33c-2.15-1.84-6-.92-8.49,2A9.35,9.35,0,0,0,100,11.44a4.75,4.75,0,0,0-1.77-1.62C95.46,8.39,91.78,10,90,13.38a8,8,0,0,0-.87,3c-2.65-1.61-6.45-.54-8.7,2.54a7.92,7.92,0,0,0-1.55,5.46h-.06c-2.6-1.07-5.8.7-7.14,4A6.68,6.68,0,0,0,72,34.42c-2.52-.72-5.44,1-6.71,4.08a6.58,6.58,0,0,0,.54,6.43,4.78,4.78,0,0,0-2.67,1.74c-1.64,2.26-.87,5.7,1.66,8.21a5.42,5.42,0,0,0-3.17,2.06c-1.86,2.55-1,6.36,1.77,8.92a5.57,5.57,0,0,0-3,3.43c-.73,2.59.68,5.37,3.3,7a5.35,5.35,0,0,0-2.06,2.88c-.94,3.32,1.65,7,5.79,8.12.31.09.63.15.94.21a6.77,6.77,0,0,0-1.54,6.42,7,7,0,0,0,6.27,4.8,6.43,6.43,0,0,0-.07,3.86,6.93,6.93,0,0,0,5.75,4.73,7.16,7.16,0,0,0,.28,2.14c1.07,3.56,4.83,5.66,8.8,5.14a6.52,6.52,0,0,0,.66,1.6c1.88,3.24,6.06,4.42,9.82,3a7.55,7.55,0,0,0,7.44,3.63,7.12,7.12,0,0,0,4.76-3,7.51,7.51,0,0,0,11.84-2.48,7.53,7.53,0,0,0,4.21.6,8,8,0,0,0,6.56-7.47,6.61,6.61,0,0,0,4.28-.92,7,7,0,0,0,3.12-6.65,6.63,6.63,0,0,0,4.53-1.9,7.09,7.09,0,0,0,1.08-8.23,6.77,6.77,0,0,0,5.12-3.28,7,7,0,0,0-.43-7.41,6.66,6.66,0,0,0,3.54-3.87A7.06,7.06,0,0,0,152,70.51Z"/><path class="l" d="M207,42.76H151a8,8,0,0,0-3.09-4.32,9.52,9.52,0,0,0-1.61-.9c1.8-2.29,1.15-6-1.6-8.57a8.11,8.11,0,0,0-4.77-2.19c.48-2.32-.7-5.09-3.18-6.89a8.39,8.39,0,0,0-3-1.39h56.48a8.25,8.25,0,0,1,2.5,1.25c2.48,1.8,3.66,4.57,3.18,6.88a8.11,8.11,0,0,1,4.77,2.19c2.75,2.54,3.4,6.29,1.6,8.58a8.87,8.87,0,0,1,1.61.9A7.91,7.91,0,0,1,207,42.76Z"/><path class="b" d="M190.23,18.5H133.75a7,7,0,0,0-2.79-.12,4.26,4.26,0,0,0,.11-2.71c-.81-2.7-4.21-4.06-7.58-3a8,8,0,0,0-1.24.49,3.91,3.91,0,0,0-.15-1.27c-.81-2.7-4.21-4.06-7.59-3a7.31,7.31,0,0,0-3.57,2.35,4.33,4.33,0,0,0-1.4-3.34c-2-1.74-5.56-1-8.07,1.6h-.12a7.8,7.8,0,0,1,5.46-2.66h56a4.13,4.13,0,0,1,2.73.95,4.32,4.32,0,0,1,1.4,3.33,7.38,7.38,0,0,1,3.57-2.35c3.38-1,6.78.35,7.59,3a4,4,0,0,1,.15,1.27,8,8,0,0,1,1.24-.48c3.37-1,6.77.34,7.58,3a4.3,4.3,0,0,1-.11,2.72,7.11,7.11,0,0,1,3.27.22Z"/><ellipse class="c" cx="4.34" cy="4.33" rx="4.34" ry="4.33" transform="translate(87.61 19.11)"/><ellipse class="c" cx="4.34" cy="4.33" rx="4.34" ry="4.33" transform="translate(107.45 11.68)"/><ellipse class="c" cx="4.34" cy="4.33" rx="4.34" ry="4.33" transform="translate(123.57 25.29)"/><path class="c" d="M113.65,32.09a4.09,4.09,0,0,1-.46,1.92,19.76,19.76,0,0,0-5.12-.68,20.64,20.64,0,0,0-2.84.21,4.14,4.14,0,0,1-.26-1.45,4.34,4.34,0,1,1,8.68,0Z"/><path class="c" d="M91.33,40.75a3.66,3.66,0,0,1-.12,1,29.389,29.389,0,0,0-2.06,2.75,4.28,4.28,0,0,1-2.16.58,4.33,4.33,0,1,1,4.34-4.33Z"/><ellipse class="c" cx="4.34" cy="4.33" rx="4.34" ry="4.33" transform="translate(67.77 40.13)"/><ellipse class="c" cx="4.34" cy="4.33" rx="4.34" ry="4.33" transform="translate(75.21 69.82)"/><ellipse class="c" cx="4.34" cy="4.33" rx="4.34" ry="4.33" transform="translate(108.69 109.4)"/><ellipse class="c" cx="4.34" cy="4.33" rx="4.34" ry="4.33" transform="translate(124.81 99.5)"/><path class="c" d="M136,84a4.34,4.34,0,0,1-8.62.67h0a32.281,32.281,0,0,0,2.42-4.55h0a4.27,4.27,0,0,1,1.86-.42A4.34,4.34,0,0,1,136,84Z"/><ellipse class="c" cx="4.34" cy="4.33" rx="4.34" ry="4.33" transform="translate(140.93 68.58)"/><path class="c" d="M139.69,56.83a4.33,4.33,0,0,1-4.34,4.33,4.28,4.28,0,0,1-2.75-1,38,38,0,0,0-1-5.43,4.33,4.33,0,0,1,8.13,2.09Z"/><ellipse class="c" cx="4.34" cy="4.33" rx="4.34" ry="4.33" transform="translate(137.21 35.19)"/><ellipse class="c" cx="4.34" cy="4.33" rx="4.34" ry="4.33" transform="translate(71.49 87.13)"/><ellipse class="c" cx="4.34" cy="4.33" rx="4.34" ry="4.33" transform="translate(86.37 101.98)"/><ellipse class="c" cx="3.72" cy="3.71" rx="3.72" ry="3.71" transform="translate(73.97 26.53)"/><path class="c" d="M154.61,57.22a3.87,3.87,0,0,1-1.28.23,3.7,3.7,0,0,1-1-7.28C154.57,52.17,155.46,55,154.61,57.22Z"/><path class="c" d="M150.85,89.61a2.719,2.719,0,0,1,0,.58,6.86,6.86,0,0,1-4.62,2.55c.08.17.16.33.23.51a3.71,3.71,0,1,1,4.44-3.64Z"/><ellipse class="c" cx="3.72" cy="3.71" rx="3.72" ry="3.71" transform="translate(65.29 57.45)"/><path class="c" d="M106.21,97a3.72,3.72,0,0,1-7.44,0,3.66,3.66,0,0,1,1-2.46,19.92,19.92,0,0,0,6.42,1.74,3.45,3.45,0,0,1,.02.72Z"/><path class="c" d="M67.77,78.48a3.71,3.71,0,0,1-6.22,2.73,5.37,5.37,0,0,1,.16-2,5.47,5.47,0,0,1,2.06-2.88,8.38,8.38,0,0,1-1.43-1.11,3.64,3.64,0,0,1,1.71-.42,3.7,3.7,0,0,1,3.72,3.68Z"/><path class="m" d="M132.87,64.73v.14a40.13,40.13,0,0,1-1.2,9.7,35.938,35.938,0,0,1-1.4,4.37c-.24.61-.49,1.21-.77,1.79a30.87,30.87,0,0,1-4.93,7.69,24.4,24.4,0,0,1-7.46,5.84,20,20,0,0,1-18.08,0,24.4,24.4,0,0,1-7.46-5.84,30.87,30.87,0,0,1-4.93-7.69c-.28-.58-.53-1.18-.77-1.79a35.942,35.942,0,0,1-1.4-4.37,40.13,40.13,0,0,1-1.2-9.7v-.14c.06-17.36,11.14-31.4,24.8-31.4S132.81,47.37,132.87,64.73Z"/><path class="e" d="M117.11,94.26a20,20,0,0,1-18.08,0Z"/><path class="e" d="M129.5,80.73a30.87,30.87,0,0,1-4.93,7.69h-33a30.87,30.87,0,0,1-4.93-7.69Z"/><path class="e" d="M83.46,68.73h49.22a37.872,37.872,0,0,1-1,5.84H84.47Z"/><path class="f" d="M132.87,64.73H83.27c.06-17.36,11.14-31.4,24.8-31.4S132.81,47.37,132.87,64.73Z"/><path class="g" d="M132.87,64.73v.14a40.13,40.13,0,0,1-1.2,9.7,35.938,35.938,0,0,1-1.4,4.37c-.24.61-.49,1.21-.77,1.79a30.87,30.87,0,0,1-4.93,7.69,24.4,24.4,0,0,1-7.46,5.84,20,20,0,0,1-18.08,0,24.4,24.4,0,0,1-7.46-5.84,30.87,30.87,0,0,1-4.93-7.69c-.28-.58-.53-1.18-.77-1.79a35.942,35.942,0,0,1-1.4-4.37,40.13,40.13,0,0,1-1.2-9.7v-.14c.06-17.36,11.14-31.4,24.8-31.4S132.81,47.37,132.87,64.73Z"/><path class="h" d="M148.58,14.34c.66.75,1.09,3.06.64,3.46s-2.69-.32-3.35-1.07a1.81,1.81,0,0,1,2.71-2.39Z"/><path class="h" d="M181.82,35.76c-.19,1-1.74,2.74-2.34,2.63s-1.4-2.32-1.22-3.3a1.811,1.811,0,1,1,3.56.67Z"/><path class="i" d="M166.29,56.44c.91-.42,3.24-.17,3.5.38s-1.08,2.49-2,2.91a1.812,1.812,0,1,1-1.52-3.29Z"/><path class="h" d="M193.07,63.73c.08,1-1,3.1-1.57,3.15s-2-1.87-2-2.87a1.81,1.81,0,0,1,3.61-.28Z"/><path class="h" d="M168.55,84.32c-.27,1-2,2.56-2.57,2.39s-1.18-2.44-.91-3.4a1.81,1.81,0,0,1,3.48,1Z"/><path class="h" d="M185,96.17c.55.84.66,3.19.16,3.52S182.53,99,182,98.17a1.81,1.81,0,1,1,3-2Z"/><path class="i" d="M169.48,102.78c-.8.32-2.79,0-3-.48s1-2.08,1.82-2.4a1.552,1.552,0,1,1,1.16,2.88Z"/><path class="h" d="M175.48,114.78c-.8.32-2.79,0-3-.48s1-2.08,1.82-2.4a1.552,1.552,0,1,1,1.16,2.88Z"/><path class="i" d="M196.72,86.14c-.85-.12-2.42-1.39-2.35-1.9s1.93-1.29,2.78-1.17a1.55,1.55,0,1,1-.43,3.07Z"/><path class="h" d="M179.72,68.05c.85-.1,2.69.72,2.76,1.23s-1.54,1.75-2.39,1.85a1.551,1.551,0,1,1-.37-3.08Z"/><path class="i" d="M187.69,44.5c.3.8-.05,2.78-.53,3s-2.07-1.07-2.37-1.87a1.551,1.551,0,1,1,2.9-1.1Z"/><path class="h" d="M161.37,29.9c.82.24,2.18,1.73,2,2.22s-2.1,1-2.92.75a1.565,1.565,0,1,1,.89-3Z"/><path class="i" d="M174.37,18.9c.82.24,2.18,1.73,2,2.22s-2.1,1-2.92.75a1.565,1.565,0,1,1,.89-3Z"/><path class="h" d="M153,109.2c.8.61,1.67,2.79,1.31,3.27s-2.7.22-3.5-.39A1.81,1.81,0,0,1,153,109.2Z"/></g></svg>