<?xml version="1.0" encoding="UTF-8"?>
<!DOCTYPE svg PUBLIC "-//W3C//DTD SVG 1.1//EN" "http://www.w3.org/Graphics/SVG/1.1/DTD/svg11.dtd">
<svg version="1.1" xmlns="http://www.w3.org/2000/svg" xmlns:xlink="http://www.w3.org/1999/xlink" x="0" y="0" width="366" height="257" viewBox="0, 0, 366, 257">
  <defs>
    <clipPath id="Clip_1">
      <path d="M0,0.13 L365.434,0.13 L365.434,256.94 L0,256.94 z"/>
    </clipPath>
  </defs>
  <g id="Layer_1">
    <g clip-path="url(#Clip_1)">
      <path d="M331.571,44.812 C314.71,35.834 271.571,11.478 166.237,32.145 C108.905,44.812 -0.429,95.479 2.238,182.812 C3.571,207.478 28.237,261.478 157.571,252.145 C214.905,246.145 298.905,219.478 343.571,162.145 C361.571,137.478 382.905,72.146 331.571,44.812" fill="#FFFFFE"/>
      <path d="M4.905,193.478 C4.905,193.478 23.571,244.145 128.905,246.812 C234.238,249.479 351.571,182.812 362.34,106.891 C362.237,120.812 363.571,162.146 281.571,214.812 C240.905,241.478 165.571,258.145 120.905,254.145 C76.237,250.145 14.905,242.811 4.905,193.478" fill="#9E9F9E"/>
      <path d="M362.34,106.891 C359.112,166.92 296.264,205.945 266.571,220.145 C151.032,271.784 68.005,246.959 46.059,235.986 C-23.007,201.13 7.171,132.192 35.571,103.145 C80.571,62.145 111.897,46.217 181.607,30.08 C255.137,13.059 325.548,34.598 346.202,56.545 C362.469,73.828 362.34,87.528 362.34,106.891 M363.63,83.655 C352.162,24.817 239.106,6.12 141.589,37.826 C44.069,69.533 -9.947,133.258 1.522,192.094 C12.99,250.927 126.098,278.587 235.827,237.276 C331.795,201.147 375.1,142.487 363.63,83.655" fill="#1A1919"/>
      <path d="M228.695,42.811 C133.571,55.478 122.905,60.145 69.571,96.145 C29.292,126.894 -9.762,197.478 67.931,219.864 C137.78,239.99 234.237,224.145 305.571,166.145 C323.13,148.122 351.599,105.369 335.075,80.982 C339.206,102.187 338.173,126.573 304.091,163.685 C291.696,175.346 194.905,251.408 68.905,217.478 C46.183,210.056 -13.654,180.214 66.905,102.812 C135.571,42.145 228.695,42.811 228.695,42.811" fill="#1A1919"/>
    </g>
    <path d="M138.294,224.813 C137.579,224.813 136.891,224.812 136.237,224.812 C126.706,224.812 90.716,222.595 83.567,218.145 C76.419,213.695 66.227,208.106 57.173,204.645 C48.118,201.184 46.257,197.026 41.491,188.127 C36.726,179.227 43.874,175.271 43.874,175.271 C43.874,175.271 44.195,175.03 44.798,174.579 C46.463,177.994 47.566,180.845 47.649,182.736 C47.768,185.445 48.774,189.202 55.742,193.872 C56.589,194.51 57.448,195.071 58.294,195.556 C59.057,195.994 60.16,196.557 61.527,197.221 C63.11,198.028 64.873,198.858 66.837,199.709 C71.913,202.034 78.374,204.898 84.717,207.773 C93.696,212.118 100.937,215.605 102.816,216.975 C103.327,217.347 105.241,217.756 108.023,218.136 C113.309,219.727 118.144,220.213 123.378,220.213 C127.095,220.213 131.015,219.968 135.438,219.699 C140.114,219.415 143.101,219.106 145.279,218.517 C147.114,218.135 148.505,217.631 149.27,216.985 C154.814,212.304 165.983,205.387 176.88,200.247 C185.347,196.253 195.478,191.594 195.679,185.074 C195.691,185.049 195.702,185.024 195.713,184.999 C197.419,180.931 212.548,169.18 220.722,164.738 C227.919,160.829 231.301,159.622 234.669,155.245 C237.766,154.361 240.098,153.268 240.623,151.988 C242.001,148.632 254.013,135.793 262.089,129.852 C269.259,129.282 278.205,127.763 279.358,125.187 C280.67,122.255 290.89,111.872 298.701,105.98 C298.965,105.987 299.248,105.99 299.547,105.99 C306.141,105.99 320.505,104.472 321.968,101.204 C322.936,99.039 328.898,92.698 335.035,87.264 C335.401,87.296 335.763,87.33 336.121,87.366 C336.564,90.786 336.814,94.31 336.766,97.968 C331.482,101.679 325.336,105.789 324.558,109.018 C323.128,114.952 299.778,115.94 300.254,120.884 C300.731,125.829 273.091,137.695 263.084,141.651 C253.077,145.606 241.025,153.662 243.885,155.145 C246.744,156.629 236.675,169.178 222.379,172.145 C208.082,175.112 198.014,182.728 200.873,190.145 C203.731,197.561 203.255,200.528 193.725,203.494 C184.194,206.461 176.739,211.223 169.591,218.145 C162.933,224.593 148.011,224.813 138.294,224.813 M339.95,95.674 C339.748,92.884 339.235,90.19 338.366,87.625 C341.689,88.077 344.228,88.797 344.573,90.231 C344.897,91.577 342.849,93.495 339.95,95.674 M181.84,79.682 L181.84,79.682 C179.717,79.652 177.946,79.292 176.418,78.739 C177.573,77.855 178.721,76.98 179.856,76.119 C180.476,77.301 181.152,78.495 181.84,79.682 M225.471,53.948 C225.336,53.938 225.2,53.93 225.063,53.923 C223.927,53.872 222.899,53.724 221.96,53.504 C223.039,53.528 224.165,53.589 225.331,53.683 C225.377,53.772 225.424,53.859 225.471,53.948" fill="#9E9F9E"/>
    <path d="M336.766,97.968 C336.814,94.31 336.564,90.786 336.121,87.366 C336.896,87.443 337.649,87.528 338.366,87.625 C339.235,90.19 339.748,92.884 339.95,95.674 C338.966,96.413 337.886,97.181 336.766,97.968" fill="#1A1919"/>
    <path d="M356.929,59.473 C355.781,58.066 353.889,60.797 351.409,63.529 C349.273,65.88 346.702,68.231 343.793,67.943 C335.331,67.106 323.641,64.622 319.926,63.253 C317.218,62.255 316.978,60.57 314.179,59.842 C311.379,59.115 305.651,58.777 304.204,56.01 C302.755,53.248 298.549,50.582 295.722,50.452 C292.895,50.322 287.821,49.416 282.782,42.59 C277.743,35.761 274.093,32.971 265.639,31.985 C261.582,31.2 256.778,26.108 254.307,25.095 C251.835,24.083 252.517,22.916 252.928,20.834 C253.337,18.754 251.112,5.46 248.709,2.949 C246.838,2.565 245.882,2.82 244.447,6.654 C243.013,10.486 237.468,14.731 235.773,17.351 C234.079,19.973 233.097,27.724 232.372,29.79 C231.647,31.856 230.131,37.485 227.877,38.581 C225.624,39.675 221.95,44.304 226.306,52.301 C230.662,60.297 235.033,67.993 235.183,71.597 C235.331,75.203 237.271,80.989 257.073,88.491 C268.151,94.094 278.626,99.07 280.756,100.668 C282.886,102.264 314.571,104.613 319.161,100.625 C323.751,96.636 334.132,83.019 343.145,78.632 C352.161,74.248 363.784,67.882 356.929,59.473" fill="#FFF9BE"/>
    <path d="M308.036,100.535 C311.11,99.001 313.214,97.857 315.155,95.92 C317.262,95.638 319.189,95.293 320.835,94.888 C320.671,95.021 320.509,95.153 320.351,95.282 C315.395,99.298 312.727,100.152 308.036,100.535 M233.676,57.256 C232.238,56.141 230.602,55.195 228.761,54.597 C228.599,54.313 228.441,54.028 228.286,53.741 C225.642,48.838 225.395,45.082 226.74,42.043 C226.012,43.974 225.847,46.842 228.442,50.299 C230.213,52.657 232.048,54.959 233.676,57.256" fill="#FBD47F"/>
    <path d="M247.581,3.498 C250.318,2.764 245.498,18.094 245.498,18.094 C245.498,18.094 247.56,24.636 249.639,25.63 C252.609,27.051 256.388,30.651 260.189,32.41 C268.28,36.154 278.876,41.961 280.104,46.065 C280.551,47.554 279.046,50.289 292.77,53.016 C295.667,53.59 299.829,53.564 302.759,56.62 C305.983,59.987 310.998,60.854 314.508,63.005 C318.87,65.678 324.77,67.902 326.308,68.267 C331.989,69.622 341.806,69.529 347.135,67.121 C351.957,64.942 354.953,58.503 356.434,59.974 C361.176,64.689 346.458,71.589 343.038,74.13 C342.352,74.64 341.057,74.571 339.529,74.502 C336.785,74.378 333.293,74.254 331.237,77.49 C329.202,80.694 322.593,81.239 320.706,82.835 C319.169,84.13 312.276,83.794 311.459,85.41 C309.354,89.57 292.693,83.344 283.926,78.896 C275.157,74.447 278.025,73.677 267.659,73.202 C257.293,72.728 256.757,63.652 243.687,60.357 C235.294,58.239 239.447,58.936 238.284,51.319 C237.313,44.98 237,52.491 234.666,41.589 C233.731,37.227 230.862,28.371 233.505,22.195 C236.149,16.019 242.2,11.048 247.581,3.498" fill="#F1A948"/>
    <path d="M250.529,26.104 C250.225,25.928 249.928,25.769 249.639,25.63 C248.58,25.125 247.527,23.182 246.747,21.395 C248.075,21.948 249.402,23.852 250.529,26.104" fill="#50341D"/>
    <g>
      <path d="M310.05,81.558 C306.668,81.558 302.366,80.947 297.474,80.182 C286.424,78.45 282.061,74.625 274.118,69.649 C270.702,67.509 268.01,67.187 265.683,67.187 C265.183,67.187 264.699,67.202 264.229,67.217 C263.759,67.232 263.302,67.247 262.855,67.247 C260.994,67.247 259.303,66.989 257.522,65.401 C252.897,61.276 251.636,59.526 243.513,57.308 C235.389,55.089 242.825,50.596 239.994,45.269 C237.162,39.946 238.997,40.275 242.587,36.104 C246.177,31.934 239.095,34.462 237.924,28.676 C236.753,22.89 240.962,21.526 245.889,21.236 C245.922,21.234 245.954,21.233 245.987,21.233 C246.24,21.233 246.493,21.289 246.747,21.395 C247.527,23.182 248.58,25.125 249.639,25.63 C249.928,25.769 250.225,25.928 250.529,26.104 C251.884,28.811 252.951,32.02 253.382,33.988 C254.249,37.946 252.234,40.372 253.71,46.214 C255.187,52.055 258.329,53.886 264.311,55.721 C270.293,57.555 274.356,57.778 276.446,61.958 C278.274,65.612 290.333,70.133 295.84,70.133 C296.628,70.133 297.282,70.04 297.753,69.84 C301.515,68.233 297.236,65.692 293.092,62.411 C288.946,59.132 285.868,59.038 271.546,54.438 C257.224,49.839 263.821,50.009 260.551,45.366 C257.282,40.725 254.802,35.207 256.422,33.218 C256.714,32.859 257.133,32.705 257.654,32.705 C260.021,32.705 264.48,35.907 268.56,37.679 C273.536,39.84 276.632,43.691 277.894,47.214 C279.154,50.734 286.468,51.843 293.324,54.089 C300.181,56.334 308.907,62.21 314.932,65.573 C320.955,68.935 319.026,72.645 317.794,77.748 C317.41,79.336 316.367,80.339 314.778,80.915 C314.758,80.914 314.738,80.914 314.718,80.914 C314.333,80.914 313.946,81.021 313.567,81.253 C312.547,81.465 311.368,81.558 310.05,81.558" fill="#4E2A1B"/>
      <path d="M347.742,74.496 C340.511,77.763 327.705,89.32 320.351,95.282 C312.995,101.243 310.68,100.237 299.31,101.068 C287.939,101.897 283.739,100.805 280.073,98.387 C276.405,95.97 260.673,88.956 250.942,84.912 C241.211,80.869 236.683,76.614 236.929,71.227 C237.177,65.841 231.769,60.197 228.286,53.741 C224.804,47.285 225.48,42.817 228.471,39.356 C231.462,35.895 233.491,32.839 234.29,25.68 C235.091,18.518 240.438,15.166 243.409,12.153 C246.379,9.14 246.585,4.652 247.978,5.167 C249.37,5.678 252.218,15.704 251.132,18.802 C250.046,21.901 249,24.103 254.08,26.584 C259.162,29.066 260.432,32.272 264.651,32.916 C268.871,33.558 275.038,32.939 279.464,39.44 C283.888,45.938 286.121,48.739 291.692,50.794 C297.265,52.847 300.235,49.835 303.267,55.82 C306.299,61.805 314.432,59.479 315.743,61.789 C317.054,64.097 323.609,65.297 335.779,67.652 C347.948,70.007 348.521,67.784 352.455,64.366 C356.39,60.947 356.941,59.174 357.72,62.809 C358.438,67.788 354.975,71.228 347.742,74.496 M354.836,58.778 C351.393,61.769 347.981,69.258 339.829,66.862 C329.974,63.964 321.269,64.889 318.604,61.169 C315.942,57.448 307.132,59.07 306.292,56.783 C305.452,54.496 300.228,49.984 295.988,49.79 C291.747,49.596 286.441,46.88 284.249,43.181 C282.058,39.482 277.193,32.288 269.183,31.922 C261.172,31.556 258.667,26.313 254.884,24.522 C249.106,21.784 255.786,20.29 252.386,12.039 C252.386,12.039 252.976,9.442 250.784,5.744 C248.593,2.046 252.346,-2.581 246.937,2.119 C241.527,6.82 248.258,4.204 237.159,14.567 C231.176,20.153 231.587,22.858 230.767,30.466 C229.946,38.076 221.896,38.606 222.509,45.831 C223.123,53.054 232.566,63.382 232.771,69.239 C232.976,75.095 236.99,80.226 244.815,84.632 C252.643,89.038 274.828,99.498 278.946,102.384 C283.063,105.271 292.486,105.704 298.142,105.962 C303.796,106.218 320.39,104.729 321.968,101.204 C323.546,97.676 338.379,83.063 345.632,79.346 C352.885,75.63 355.753,74.861 359.298,69.626 C362.843,64.392 358.278,55.786 354.836,58.778" fill="#1A1919"/>
    </g>
    <path d="M328.151,69.251 C327.284,70.498 331.483,72.101 331.483,72.101 C331.483,72.101 331.169,72.087 330.063,75.634 C328.956,79.181 326.443,79.066 328.956,79.181 C331.469,79.296 333.135,77.275 336.359,75.623 C339.583,73.97 346.89,72.507 341.29,71.052 C335.69,69.595 329.162,67.798 328.151,69.251" fill="#50341D"/>
    <path d="M315.319,82.262 C314.14,80.815 312.194,83.625 309.642,86.434 C307.445,88.853 304.8,91.272 301.808,90.975 C293.105,90.114 281.079,87.559 277.259,86.151 C274.474,85.125 274.227,83.391 271.347,82.642 C268.467,81.894 262.574,81.546 261.085,78.702 C259.597,75.859 255.269,73.117 252.36,72.983 C249.453,72.849 244.234,71.918 239.052,64.896 C233.867,57.874 230.113,55.003 221.417,53.988 C217.245,53.18 212.304,47.943 209.761,46.901 C207.218,45.86 207.919,44.659 208.342,42.518 C208.763,40.378 206.476,26.703 204.003,24.122 C202.078,23.726 201.095,23.989 199.619,27.931 C198.144,31.875 192.44,36.24 190.697,38.935 C188.954,41.632 187.943,49.605 187.198,51.73 C186.453,53.855 184.893,59.645 182.574,60.772 C180.257,61.899 176.478,66.66 180.958,74.885 C185.439,83.11 189.935,91.026 190.089,94.735 C190.242,98.442 192.237,104.394 212.606,112.111 C224.001,117.875 234.775,122.993 236.967,124.636 C239.158,126.279 271.751,128.695 276.472,124.592 C281.192,120.491 291.87,106.482 301.143,101.97 C310.415,97.46 322.371,90.913 315.319,82.262" fill="#FFF9BE"/>
    <path d="M190.121,82.325 C188.662,81.37 187.036,80.593 185.242,80.134 C184.457,78.907 183.689,77.652 182.995,76.367 C180.275,71.324 180.022,67.459 181.405,64.332 C180.656,66.319 180.486,69.269 183.156,72.827 C185.579,76.053 188.118,79.177 190.121,82.325" fill="#FBD47F"/>
    <path d="M202.843,24.686 C205.658,23.931 200.7,39.7 200.7,39.7 C200.7,39.7 202.82,46.429 204.96,47.452 C208.015,48.913 211.901,52.616 215.812,54.425 C224.135,58.276 235.032,64.25 236.298,68.47 C236.756,70.003 235.208,72.815 249.326,75.622 C252.304,76.212 256.586,76.185 259.599,79.329 C262.917,82.792 268.074,83.683 271.685,85.897 C276.172,88.646 282.241,90.932 283.822,91.308 C289.667,92.702 299.764,92.607 305.246,90.13 C310.206,87.888 313.288,81.265 314.81,82.779 C319.688,87.63 304.55,94.725 301.031,97.339 C300.326,97.863 298.994,97.792 297.424,97.721 C294.601,97.593 291.007,97.466 288.893,100.795 C286.8,104.09 280.002,104.652 278.06,106.293 C276.479,107.627 269.39,107.279 268.549,108.942 C266.384,113.221 249.246,106.817 240.228,102.241 C231.208,97.665 234.159,96.874 223.496,96.385 C212.833,95.898 212.28,86.562 198.836,83.172 C190.204,80.994 194.477,81.711 193.279,73.877 C192.282,67.354 191.959,75.081 189.558,63.867 C188.597,59.38 185.646,50.27 188.364,43.918 C191.083,37.565 197.308,32.452 202.843,24.686" fill="#F1A948"/>
    <path d="M243.76,74.302 C237.895,72.611 236.812,70.993 236.516,69.738 C238.252,71.356 240.838,72.931 243.76,74.302 M205.875,47.939 C205.563,47.758 205.257,47.594 204.96,47.452 C203.871,46.931 202.787,44.932 201.985,43.095 C203.351,43.664 204.716,45.623 205.875,47.939" fill="#50341D"/>
    <path d="M263.4,101.517 C259.941,101.517 255.461,100.839 250.275,100.027 C238.909,98.246 238.31,97.848 230.14,92.73 C226.625,90.529 223.856,90.198 221.463,90.198 C220.948,90.198 220.45,90.213 219.967,90.228 C219.483,90.244 219.013,90.259 218.553,90.259 C216.639,90.259 214.9,89.994 213.069,88.361 C208.312,84.119 211.644,79.235 203.288,76.953 C194.933,74.669 197.95,73.132 195.038,67.653 C192.126,62.176 194.013,62.515 197.705,58.226 C201.397,53.936 194.113,56.537 192.909,50.586 C191.705,44.633 196.033,43.23 201.102,42.931 C201.136,42.929 201.169,42.928 201.203,42.928 C201.463,42.928 201.724,42.986 201.985,43.095 C202.787,44.932 203.871,46.931 204.96,47.452 C205.257,47.594 205.563,47.758 205.875,47.939 C207.269,50.723 208.366,54.023 208.81,56.048 C209.187,57.773 210.501,58.561 212.004,59.355 L212.165,59.115 C212.803,58.331 214.026,57.988 215.581,57.988 C218.088,57.988 221.456,58.88 224.616,60.253 C229.735,62.476 233.155,63.288 234.452,66.912 C234.787,67.847 235.508,68.8 236.516,69.738 C236.812,70.993 237.895,72.611 243.76,74.302 C245.707,75.216 247.803,76.04 249.895,76.725 C256.947,79.034 265.925,85.079 272.12,88.538 C278.316,91.997 272.153,92.452 270.888,97.699 C270.198,100.553 267.524,101.517 263.4,101.517 M210.119,64.887 C209.594,68.806 208.319,72.019 212.722,73.369 C218.876,75.256 223.056,75.485 225.205,79.784 C227.085,83.542 239.487,88.193 245.153,88.193 C245.964,88.193 246.638,88.097 247.122,87.89 C250.99,86.239 246.59,83.625 242.326,80.25 C238.062,76.878 235.36,77.491 220.628,72.758 C207.587,68.569 211.403,68.224 210.119,64.887" fill="#4E2A1B"/>
    <path d="M305.87,97.715 C298.432,101.077 285.26,112.965 277.694,119.096 C270.128,125.227 267.747,124.193 256.052,125.047 C244.356,125.901 240.036,124.778 236.265,122.291 C232.492,119.805 216.309,112.588 206.3,108.43 C196.29,104.271 191.633,99.894 191.886,94.354 C192.14,88.813 186.577,83.008 182.995,76.367 C179.413,69.726 180.109,65.13 183.186,61.57 C186.263,58.01 188.35,54.867 189.172,47.503 C189.994,40.137 195.495,36.687 198.551,33.589 C201.606,30.49 201.817,25.873 203.25,26.401 C204.683,26.929 207.612,37.241 206.495,40.428 C205.378,43.616 204.302,45.882 209.528,48.432 C214.755,50.986 216.061,54.284 220.401,54.946 C224.742,55.606 231.086,54.969 235.638,61.656 C240.188,68.339 242.485,71.221 248.216,73.336 C253.948,75.448 257.004,72.348 260.122,78.506 C263.241,84.663 271.606,82.269 272.956,84.644 C274.304,87.019 281.047,88.253 293.565,90.675 C306.081,93.098 306.672,90.812 310.718,87.296 C314.765,83.779 315.333,81.956 316.134,85.694 C316.872,90.815 313.31,94.354 305.87,97.715 M313.167,81.548 C309.626,84.625 306.116,92.328 297.73,89.863 C287.593,86.883 278.639,87.834 275.899,84.007 C273.159,80.18 264.098,81.848 263.233,79.496 C262.37,77.143 256.997,72.501 252.635,72.302 C248.273,72.102 242.815,69.309 240.561,65.505 C238.306,61.7 233.302,54.299 225.063,53.923 C216.822,53.547 214.245,48.155 210.355,46.311 C204.412,43.495 211.282,41.958 207.784,33.47 C207.784,33.47 208.392,30.799 206.138,26.996 C203.884,23.191 207.743,18.432 202.179,23.267 C196.616,28.102 203.539,25.412 192.123,36.071 C185.968,41.817 186.391,44.599 185.547,52.425 C184.703,60.253 176.422,60.798 177.053,68.229 C177.685,75.661 187.398,86.284 187.608,92.307 C187.819,98.332 191.948,103.609 199.998,108.141 C208.049,112.672 230.869,123.433 235.105,126.402 C239.341,129.372 249.033,129.816 254.851,130.082 C260.666,130.346 277.735,128.813 279.358,125.187 C280.981,121.559 296.239,106.528 303.7,102.706 C311.161,98.882 314.11,98.092 317.757,92.706 C321.402,87.322 316.708,78.47 313.167,81.548" fill="#1A1919"/>
    <path d="M273.786,90.951 C272.895,92.234 277.214,93.883 277.214,93.883 C277.214,93.883 276.891,93.869 275.753,97.518 C274.614,101.167 267.864,103.586 270.449,103.704 C273.034,103.823 281.323,102.066 284.64,100.367 C287.955,98.668 302.509,95.668 296.748,94.171 C290.988,92.673 274.826,89.456 273.786,90.951" fill="#50341D"/>
    <path d="M276.602,106.184 C275.321,104.711 273.379,107.73 270.801,110.748 C268.603,113.321 265.943,115.894 262.839,115.685 C253.764,115.076 241.179,112.813 237.159,111.475 C234.229,110.5 233.918,108.704 230.899,108.021 C227.881,107.336 221.742,107.17 220.102,104.261 C218.46,101.354 213.872,98.645 210.844,98.603 C207.816,98.559 202.36,97.76 196.741,90.631 C191.122,83.501 187.126,80.637 178.052,79.869 C173.687,79.167 168.38,73.882 165.701,72.883 C163.024,71.883 163.714,70.614 164.083,68.375 C164.45,66.135 161.624,51.994 158.969,49.392 C156.955,49.043 155.94,49.347 154.536,53.496 C153.132,57.643 147.345,62.367 145.622,65.229 C143.898,68.09 143.108,76.41 142.403,78.644 C141.698,80.878 140.267,86.948 137.894,88.196 C135.521,89.443 131.749,94.518 136.676,102.922 C141.604,111.325 146.537,119.407 146.819,123.257 C147.101,127.106 149.37,133.229 170.8,140.584 C182.833,146.201 194.202,151.171 196.534,152.805 C198.866,154.442 232.829,155.884 237.603,151.464 C242.376,147.044 253.018,132.132 262.509,127.138 C272.001,122.144 284.216,114.945 276.602,106.184" fill="#FFF9BE"/>
    <path d="M217.674,151.637 C217.399,151.637 217.12,151.63 216.839,151.615 C212.927,151.06 208.73,149.497 204.87,147.76 C205.028,147.774 205.19,147.788 205.354,147.802 C207.774,148.014 210.474,148.115 213.292,148.115 C214.796,148.115 216.334,148.087 217.883,148.031 C220.496,148.837 222.166,149.604 223.436,150.052 C223.003,150.294 222.559,150.526 222.103,150.746 C220.783,151.38 219.283,151.637 217.674,151.637 M237.302,146.876 C237.217,146.509 237.106,146.159 236.972,145.831 C237.759,145.653 238.503,145.467 239.2,145.272 C239.028,145.421 238.86,145.568 238.693,145.712 C238.21,146.129 237.748,146.516 237.302,146.876 M185.319,136.798 C183.912,136.555 182.45,136.433 181.13,136.295 C181.641,136.195 182.138,136.13 182.643,136.13 C183.476,136.13 184.334,136.307 185.319,136.798 M150.404,118.77 C148.803,116.34 146.356,113.111 143.028,110.712 C141.602,108.685 140.116,106.588 138.842,104.394 C135.847,99.239 135.458,95.229 136.796,91.933 C136.081,94.023 135.999,97.097 138.894,100.709 C143.763,106.784 149.041,112.484 150.404,118.77" fill="#FBD47F"/>
    <path d="M157.781,50.014 C160.684,49.138 156.045,65.695 156.045,65.695 C156.045,65.695 158.471,72.62 160.727,73.614 C163.95,75.033 168.114,78.756 172.239,80.508 C181.019,84.237 192.544,90.089 193.997,94.438 C194.524,96.015 193.007,98.99 207.776,101.443 C210.892,101.961 215.341,101.792 218.577,104.962 C222.14,108.453 227.53,109.211 231.356,111.393 C236.112,114.104 242.497,116.282 244.151,116.622 C250.274,117.878 260.769,117.449 266.387,114.694 C271.469,112.2 274.456,105.213 276.089,106.737 C281.319,111.619 265.813,119.493 262.24,122.326 C261.533,122.887 260.173,122.865 258.566,122.842 C255.618,122.802 251.839,122.761 249.735,126.317 C247.667,129.812 240.618,130.62 238.653,132.387 C237.054,133.827 229.673,133.698 228.852,135.455 C226.741,139.973 208.716,133.878 199.189,129.418 C189.663,124.954 192.705,124.035 181.603,123.878 C170.502,123.721 169.621,114.032 155.534,110.949 C146.489,108.969 150.954,109.573 149.452,101.468 C148.201,94.72 148.118,102.762 145.254,91.184 C144.108,86.55 140.741,77.177 143.36,70.484 C145.978,63.79 152.281,58.27 157.781,50.014" fill="#F1A948"/>
    <path d="M201.943,100.254 C195.792,98.689 194.614,97.042 194.265,95.747 C196.123,97.372 198.862,98.924 201.943,100.254 M191.058,90.815 C188.804,88.922 185.538,86.945 182.004,85.094 C182.477,85.181 182.997,85.33 183.571,85.558 C187.84,87.254 189.728,88.517 191.058,90.815 M161.696,74.091 C161.365,73.913 161.042,73.752 160.727,73.614 C159.579,73.108 158.386,71.066 157.492,69.182 C158.931,69.729 160.415,71.72 161.696,74.091" fill="#50341D"/>
    <path d="M218.298,130.614 C216.782,130.614 215.248,130.525 213.722,130.335 C201.847,128.857 197.052,124.913 188.39,119.86 C185.022,117.895 182.339,117.499 180.016,117.499 C179.232,117.499 178.489,117.545 177.775,117.59 C177.061,117.635 176.377,117.68 175.708,117.68 C173.933,117.68 172.274,117.361 170.501,115.878 C165.416,111.622 164.006,109.795 155.245,107.694 C146.484,105.595 154.284,100.54 151.076,94.94 C147.869,89.341 149.842,89.634 153.54,85.052 C157.237,80.471 149.75,83.413 148.303,77.266 C146.856,71.118 151.31,69.517 156.568,69.041 C156.623,69.036 156.677,69.033 156.732,69.033 C156.983,69.033 157.237,69.085 157.492,69.182 C158.386,71.066 159.579,73.108 160.727,73.614 C161.042,73.752 161.365,73.913 161.696,74.091 C163.236,76.939 164.485,80.335 165.013,82.424 C166.073,86.628 164.001,89.29 165.776,95.486 C167.551,101.683 170.975,103.536 177.434,105.296 C183.892,107.056 188.245,107.158 190.62,111.554 C192.656,115.323 205.221,119.65 211.268,119.65 C212.277,119.65 213.104,119.53 213.671,119.266 C217.638,117.422 204.673,113.672 200.13,110.303 C195.587,106.936 200.954,105.253 185.482,100.816 C181.746,99.745 179.258,99.383 177.581,99.383 C175.845,99.383 174.979,99.771 174.499,100.158 C174.019,100.545 173.925,100.933 173.732,100.933 C173.533,100.933 173.228,100.519 172.284,99.264 C169.264,95.25 168.015,85.065 172.094,85.065 C172.947,85.065 174.034,85.51 175.385,86.55 C175.719,86.807 176.016,86.912 176.3,86.912 C176.907,86.912 177.451,86.433 178.157,85.954 C178.863,85.476 179.732,84.997 180.988,84.997 C181.301,84.997 181.639,85.027 182.004,85.094 C185.538,86.945 188.804,88.922 191.058,90.815 C191.408,91.421 191.72,92.099 192.026,92.876 C192.405,93.837 193.187,94.805 194.265,95.747 C194.614,97.042 195.792,98.689 201.943,100.254 C203.998,101.141 206.205,101.929 208.403,102.573 C215.812,104.742 225.341,110.732 231.897,114.124 C238.452,117.517 240.16,116.216 239.015,121.714 C238.017,126.504 228.57,130.614 218.298,130.614" fill="#4E2A1B"/>
    <path d="M267.285,122.557 C259.661,126.297 246.358,139.089 238.693,145.712 C231.029,152.334 228.519,151.337 216.389,152.607 C204.259,153.878 199.73,152.851 195.728,150.39 C191.724,147.93 174.663,140.958 164.12,136.963 C153.579,132.967 148.593,128.57 148.675,122.801 C148.757,117.035 142.783,111.181 138.842,104.394 C134.9,97.608 135.473,92.807 138.556,89.006 C141.637,85.203 143.703,81.868 144.316,74.183 C144.93,66.501 150.536,62.734 153.61,59.412 C156.686,56.09 156.754,51.283 158.261,51.786 C159.768,52.287 163.151,62.912 162.094,66.262 C161.037,69.613 159.994,72.001 165.511,74.483 C171.027,76.966 172.492,80.352 177.028,80.897 C181.561,81.441 188.136,80.574 193.087,87.374 C198.037,94.174 200.519,97.094 206.547,99.103 C212.575,101.111 215.651,97.79 219.095,104.088 C222.538,110.387 231.157,107.624 232.637,110.049 C234.116,112.474 241.168,113.535 254.261,115.643 C267.353,117.753 267.892,115.355 271.983,111.568 C276.073,107.779 276.605,105.865 277.56,109.723 C278.495,115.025 274.907,118.82 267.285,122.557 M274.34,105.51 C270.76,108.826 267.364,116.951 258.563,114.662 C247.928,111.896 238.649,113.178 235.677,109.29 C232.703,105.402 223.337,107.432 222.362,105.015 C221.387,102.597 215.648,97.949 211.106,97.885 C206.565,97.821 200.8,95.094 198.332,91.214 C195.862,87.333 190.418,79.804 181.84,79.682 C173.262,79.561 170.405,74.041 166.299,72.251 C160.029,69.519 167.121,67.696 163.206,58.987 C163.206,58.987 163.75,56.191 161.282,52.308 C158.813,48.427 162.67,43.354 157.045,48.562 C151.42,53.772 158.528,50.747 147.01,62.203 C140.8,68.38 141.33,71.257 140.71,79.42 C140.09,87.586 131.497,88.424 132.397,96.13 C133.298,103.834 143.745,114.559 144.161,120.814 C144.577,127.071 149.044,132.422 157.561,136.871 C166.078,141.317 190.157,151.754 194.657,154.704 C199.157,157.651 209.249,157.794 215.305,157.88 C221.36,157.964 239.055,155.812 240.623,151.988 C242.192,148.165 257.561,132.037 265.191,127.817 C272.821,123.597 275.862,122.68 279.477,116.962 C283.091,111.243 277.92,102.197 274.34,105.51" fill="#1A1919"/>
    <path d="M246.157,117.61 C245.272,118.972 249.817,120.546 249.817,120.546 C249.817,120.546 249.479,120.542 248.417,124.374 C247.353,128.204 244.661,128.166 247.353,128.204 C250.044,128.242 251.758,126.024 255.149,124.148 C258.54,122.274 266.305,120.461 260.269,119.092 C254.23,117.725 247.188,116.022 246.157,117.61" fill="#50341D"/>
    <path d="M233.669,144.656 C232.293,143.048 229.97,145.509 226.965,147.969 C224.492,149.994 221.557,152.018 218.31,151.776 C208.631,151.053 196.618,143.206 192.341,141.745 C189.224,140.68 188.905,138.762 185.689,138.01 C182.475,137.256 175.927,137.029 174.199,133.914 C172.472,130.798 167.597,127.872 164.367,127.801 C161.138,127.731 155.323,126.835 149.385,119.183 C143.446,111.531 139.204,108.445 129.529,107.551 C124.878,106.767 119.257,101.087 116.407,100.001 C113.56,98.913 114.306,97.562 114.717,95.177 C115.127,92.791 112.224,77.68 109.412,74.881 C107.266,74.494 106.181,74.811 104.649,79.225 C103.118,83.639 96.906,88.634 95.044,91.673 C93.184,94.71 92.274,103.585 91.504,105.96 C90.734,108.338 89.158,114.802 86.616,116.115 C84.075,117.428 80.009,122.812 85.198,131.817 C90.391,140.822 95.59,149.485 95.859,153.595 C96.128,157.705 98.501,164.255 121.306,172.272 C134.101,178.363 146.191,183.754 148.667,185.518 C151.142,187.284 187.368,189.093 192.495,184.416 C197.623,179.739 207.699,169.245 217.866,163.992 C228.033,158.741 241.724,154.064 233.669,144.656" fill="#FFF9BE"/>
    <path d="M179.841,182.13 C179.468,182.13 179.087,182.112 178.696,182.074 C176.289,181.839 173.683,181.306 171.046,180.606 C177.347,180.445 183.85,179.86 189.153,178.93 C188.449,179.281 187.678,179.717 186.833,180.154 C184.919,181.142 182.62,182.13 179.841,182.13 M193.024,178.858 C192.782,178.599 192.527,178.422 192.256,178.314 C192.958,178.156 193.628,177.991 194.26,177.818 C194.073,177.975 193.888,178.131 193.705,178.287 C193.473,178.484 193.247,178.674 193.024,178.858 M95.135,139.198 C93.559,138.353 91.837,137.696 89.867,137.191 C89.041,135.956 88.236,134.696 87.499,133.405 C84.345,127.882 83.962,123.602 85.414,120.096 C84.636,122.32 84.525,125.598 87.583,129.474 C90.188,132.774 92.905,135.972 95.135,139.198" fill="#FBD47F"/>
    <path d="M108.14,75.538 C111.243,74.626 106.163,92.254 106.163,92.254 C106.163,92.254 108.694,99.662 111.096,100.741 C114.523,102.278 118.935,106.285 123.321,108.186 C132.659,112.236 144.909,118.572 146.425,123.223 C146.974,124.912 145.332,128.072 161.071,130.808 C164.392,131.384 169.14,131.239 172.567,134.646 C176.34,138.401 182.087,139.255 186.15,141.612 C191.203,144.542 197.998,146.917 199.761,147.292 C206.284,148.681 216.086,153.64 222.103,150.746 C227.545,148.127 231.388,143.602 233.117,145.242 C238.659,150.492 221.452,155.862 217.618,158.857 C216.722,159.556 215.104,158.457 213.267,157.357 C210.694,155.817 207.69,154.276 205.641,157.681 C203.406,161.393 195.88,162.199 193.768,164.071 C192.051,165.592 184.177,165.397 183.287,167.264 C180.999,172.069 161.815,165.422 151.687,160.586 C141.559,155.748 144.811,154.792 132.967,154.535 C121.124,154.28 120.262,143.934 105.255,140.533 C95.62,138.348 100.38,139.029 98.842,130.369 C97.561,123.159 97.409,131.74 94.446,119.363 C93.259,114.411 89.742,104.381 92.589,97.261 C95.436,90.141 102.205,84.301 108.14,75.538" fill="#F1A948"/>
    <path d="M154.867,129.495 C148.305,127.774 147.061,126.006 146.7,124.621 C148.671,126.371 151.586,128.051 154.867,129.495 M143.244,119.271 C139.565,116.159 133.388,112.823 127.535,110.085 C127.911,110.057 128.29,110.043 128.67,110.043 C130.272,110.043 131.899,110.299 133.422,110.918 C138.08,112.81 141.355,116.004 143.244,119.271 M112.126,101.257 C111.774,101.064 111.43,100.891 111.096,100.741 C109.873,100.192 108.617,98.002 107.678,95.985 C109.21,96.58 110.778,98.717 112.126,101.257" fill="#50341D"/>
    <path d="M180.734,162.916 C177.01,162.916 172.389,162.368 167.184,161.681 C154.526,160.008 149.441,155.761 140.239,150.302 C136.581,148.131 133.673,147.716 131.156,147.716 C130.378,147.716 129.637,147.756 128.923,147.796 C128.209,147.835 127.522,147.875 126.852,147.875 C124.91,147.875 123.106,147.542 121.185,145.909 C115.794,141.33 114.305,139.369 104.974,137.059 C95.643,134.749 104.005,129.418 100.627,123.418 C97.251,117.418 99.352,117.745 103.335,112.887 C107.317,108.029 99.305,111.108 97.81,104.538 C96.315,97.966 101.079,96.294 106.694,95.827 C106.748,95.822 106.8,95.82 106.854,95.82 C107.126,95.82 107.402,95.877 107.678,95.985 C108.617,98.002 109.873,100.192 111.096,100.741 C111.43,100.891 111.774,101.064 112.126,101.257 C113.747,104.308 115.051,107.941 115.597,110.174 C116.695,114.667 114.463,117.493 116.308,124.117 C118.151,130.743 121.788,132.747 128.665,134.677 C135.544,136.606 140.187,136.749 142.687,141.46 C144.84,145.517 158.339,150.261 164.751,150.261 C165.782,150.261 166.631,150.139 167.219,149.871 C171.466,147.934 166.515,145.152 161.694,141.52 C156.874,137.891 153.762,134.817 137.29,129.962 C132.862,128.655 130.113,128.247 128.385,128.247 C126.944,128.247 126.213,128.531 125.811,128.815 C125.409,129.099 125.336,129.383 125.21,129.383 C125.051,129.383 124.809,128.931 123.718,127.458 C119.86,122.253 116.877,116.026 118.671,113.712 C119.877,112.155 123.528,110.378 127.535,110.085 C133.388,112.823 139.565,116.159 143.244,119.271 C143.683,120.029 144.047,120.791 144.336,121.542 C144.732,122.57 145.557,123.607 146.7,124.621 C147.061,126.006 148.305,127.774 154.867,129.495 C157.05,130.456 159.395,131.313 161.731,132.016 C169.618,134.39 179.738,140.859 186.705,144.529 C193.672,148.203 191.572,152.49 190.307,158.344 C189.561,161.793 186.066,162.916 180.734,162.916" fill="#4E2A1B"/>
    <path d="M222.997,159.145 C214.833,163.072 201.935,171.281 193.705,178.287 C185.475,185.29 182.806,184.206 169.853,185.464 C156.899,186.724 152.076,185.592 147.825,182.936 C143.573,180.279 125.426,172.705 114.21,168.357 C102.994,164.009 97.71,159.278 97.843,153.125 C97.977,146.97 91.649,140.678 87.499,133.405 C83.347,126.134 83.997,121.017 87.315,116.985 C90.634,112.953 92.865,109.41 93.581,101.216 C94.297,93.023 100.308,89.05 103.615,85.529 C106.923,82.01 107.034,76.882 108.638,77.429 C110.241,77.977 113.767,89.34 112.611,92.908 C111.457,96.473 110.325,99.014 116.19,101.706 C122.058,104.399 123.595,108.023 128.429,108.641 C133.262,109.257 140.282,108.383 145.511,115.679 C150.738,122.975 153.363,126.109 159.778,128.301 C166.194,130.492 169.502,126.972 173.126,133.72 C176.75,140.468 185.968,137.588 187.528,140.188 C189.087,142.788 196.602,143.975 210.554,146.329 C224.506,148.683 224.115,152.779 228.511,148.77 C232.906,144.761 233.955,146.734 234.664,148.44 C235.618,154.103 231.161,155.216 222.997,159.145 M231.262,143.921 C227.415,147.426 224.524,147.829 215.153,145.317 C203.827,142.281 193.918,143.575 190.776,139.403 C187.636,135.231 177.626,137.323 176.604,134.735 C175.583,132.148 169.499,127.143 164.653,127.038 C159.81,126.933 153.679,123.979 151.076,119.818 C148.474,115.657 142.724,107.581 133.572,107.383 C124.421,107.184 121.417,101.271 117.051,99.329 C110.382,96.364 117.964,94.477 113.856,85.154 C113.856,85.154 114.459,82.173 111.856,78.012 C109.253,73.852 113.409,68.469 107.366,73.981 C101.321,79.494 108.931,76.325 96.551,88.455 C89.875,94.997 90.418,98.071 89.69,106.776 C88.964,115.482 79.79,116.308 80.688,124.537 C81.589,132.764 92.648,144.292 93.042,150.968 C93.436,157.646 98.159,163.392 107.212,168.206 C116.265,173.018 141.87,184.345 146.648,187.528 C151.427,190.711 162.193,190.942 168.653,191.083 C175.112,191.221 194.01,189.065 195.713,184.999 C197.419,180.931 212.548,169.18 220.722,164.738 C228.897,160.297 232.149,159.343 236.051,153.27 C239.952,147.199 235.106,140.412 231.262,143.921" fill="#1A1919"/>
    <path d="M201.894,148.363 C200.938,149.81 205.774,151.526 205.774,151.526 C205.774,151.526 205.415,151.518 204.249,155.597 C203.083,159.675 200.213,159.613 203.083,159.675 C205.955,159.739 207.802,157.384 211.435,155.41 C215.067,153.437 224.027,151.935 217.598,150.428 C211.168,148.921 203.007,146.675 201.894,148.363" fill="#50341D"/>
    <path d="M193.125,178.973 C191.661,177.227 189.668,178.691 186.833,180.154 C184.662,181.274 181.996,182.395 178.696,182.074 C168.462,181.077 154.632,174.677 150.136,173.062 C146.859,171.885 146.567,169.904 143.18,169.044 C139.792,168.184 132.862,167.779 131.108,164.527 C129.353,161.276 124.261,158.135 120.84,157.98 C117.421,157.823 111.282,156.75 105.177,148.717 C99.07,140.686 94.651,137.399 84.425,136.227 C79.517,135.297 73.7,129.305 70.707,128.112 C67.716,126.919 68.54,125.547 69.032,123.101 C69.524,120.657 66.813,105.029 63.902,102.076 C61.639,101.621 60.482,101.919 58.753,106.422 C57.024,110.925 50.323,115.904 48.278,118.982 C46.233,122.059 45.057,131.169 44.184,133.594 C43.311,136.023 41.485,142.635 38.762,143.92 C36.037,145.203 31.601,150.639 36.882,160.045 C42.163,169.447 47.462,178.5 47.649,182.736 C47.835,186.973 50.19,193.777 74.153,202.627 C87.56,209.228 100.237,215.094 102.816,216.975 C105.395,218.855 143.725,221.665 149.27,216.985 C154.814,212.304 165.983,205.387 176.88,200.247 C187.776,195.107 201.43,188.866 193.125,178.973" fill="#FFF9BE"/>
    <path d="M123.378,220.213 C118.144,220.213 113.309,219.727 108.023,218.136 C113.609,218.899 122.705,219.545 130.997,219.545 C136.55,219.545 141.739,219.256 145.279,218.517 C143.101,219.106 140.114,219.415 135.438,219.699 C131.015,219.968 127.095,220.213 123.378,220.213 M84.717,207.773 C78.374,204.898 71.913,202.034 66.837,199.709 C69.019,200.655 71.449,201.628 74.153,202.627 C77.79,204.418 81.375,206.155 84.717,207.773 M61.527,197.221 C60.16,196.557 59.057,195.994 58.294,195.556 C57.448,195.071 56.589,194.51 55.742,193.872 C57.338,194.941 59.245,196.058 61.527,197.221" fill="#9B8866"/>
    <path d="M41.813,168.861 C38.701,163.881 35.229,158.536 34.407,155.878 C33.735,153.705 34.01,151.076 34.824,148.92 C34.029,151.617 34.236,155.333 36.882,160.045 C38.581,163.069 40.281,166.058 41.813,168.861" fill="#FAD79E"/>
    <path d="M130.997,219.545 C122.705,219.545 113.609,218.899 108.023,218.136 C104.423,217.053 100.615,215.457 96.328,213.154 C92.765,211.446 88.765,209.607 84.717,207.773 C81.375,206.155 77.79,204.418 74.153,202.627 C71.449,201.628 69.019,200.655 66.837,199.709 C64.815,198.783 63.015,197.943 61.527,197.221 C59.245,196.058 57.338,194.941 55.742,193.872 C51.576,190.731 47.7,185.714 47.073,178.656 C46.647,176.738 44.35,172.921 41.813,168.861 C40.281,166.058 38.581,163.069 36.882,160.045 C34.236,155.333 34.029,151.617 34.824,148.92 C35.717,146.556 37.26,144.761 38.913,144.761 C39.102,144.761 39.291,144.784 39.481,144.833 C39.481,144.833 33.532,150.023 39.464,157.693 C45.395,165.366 51.923,172.536 52.13,180.474 C52.339,188.412 61.169,195.16 73.587,198.372 C75.935,198.979 77.853,199.188 79.477,199.188 C81.277,199.188 82.718,198.931 83.986,198.674 C85.255,198.417 86.352,198.16 87.465,198.16 C89.544,198.16 91.68,199.057 95.101,202.526 C103.834,211.382 98.183,210.066 112.953,211.799 C117,212.274 121.746,212.503 126.611,212.503 C139.502,212.503 153.241,210.897 157.105,208.004 C150.927,214.611 150.036,217.232 145.279,218.517 C141.739,219.256 136.55,219.545 130.997,219.545" fill="#FBD47F"/>
    <path d="M62.54,102.717 C65.849,101.86 60.042,119.871 60.042,119.871 C60.042,119.871 62.545,127.561 65.061,128.734 C68.656,130.408 73.233,134.645 77.834,136.719 C87.628,141.13 100.45,147.972 101.944,152.798 C102.485,154.549 100.669,157.761 117.275,160.988 C120.778,161.669 125.812,161.643 129.361,165.241 C133.267,169.202 139.333,170.23 143.581,172.762 C148.863,175.911 156.003,178.533 157.862,178.966 C164.738,180.566 174.649,182.169 186.093,182.861 C191.921,180.308 190.734,177.83 192.526,179.561 C205.937,192.516 171.453,193.918 177.794,189.344 C176.86,190.018 175.04,189.265 172.948,188.512 C169.847,187.396 166.145,186.28 163.839,189.813 C161.383,193.575 160.811,195.804 158.53,197.673 C156.674,199.196 148.338,198.788 147.351,200.687 C144.81,205.573 119.633,203.12 109.02,197.878 C98.408,192.634 101.877,191.735 89.337,191.161 C76.798,190.588 75.813,182.967 60,179.073 C49.847,176.572 55.191,174.349 53.771,165.397 C52.589,157.942 49.817,160.282 46.977,147.465 C45.84,142.337 42.355,131.925 45.544,124.67 C48.73,117.416 56.042,111.582 62.54,102.717" fill="#F1A948"/>
    <path d="M52.68,161.409 C52.267,160.706 51.93,160.082 51.664,159.519 C52.032,160.118 52.373,160.71 52.68,161.409" fill="#50341D"/>
    <path d="M133.831,199.884 C132.088,199.884 130.255,199.856 128.351,199.818 C114.655,199.545 108.77,195.046 98.354,189.636 C95.314,188.056 92.807,187.582 90.626,187.582 C88.992,187.582 87.54,187.848 86.185,188.114 C84.829,188.38 83.569,188.646 82.316,188.646 C80.766,188.646 79.228,188.239 77.537,186.922 C71.286,182.056 69.483,179.858 59.272,178.335 C49.061,176.81 57.411,169.088 53.156,162.197 C52.987,161.923 52.829,161.661 52.68,161.409 C52.373,160.71 52.032,160.118 51.664,159.519 C49.62,155.188 51.742,154.432 54.907,148.886 C58.634,142.361 50.413,147.269 48.106,139.413 C45.8,131.554 50.706,128.831 56.647,127.469 C56.784,127.438 56.922,127.423 57.063,127.423 C60.884,127.423 66.105,138.66 67.704,143.833 C69.364,149.194 67.286,152.976 69.972,160.851 C72.658,168.726 76.757,170.675 84.308,172.079 C91.86,173.48 96.831,173.004 100.011,178.436 C102.482,182.659 114.881,186.27 122.307,186.27 C124.431,186.27 126.149,185.974 127.11,185.313 C131.435,182.339 125.848,179.617 120.31,175.838 C114.771,172.061 111.115,168.724 93.005,165.077 C74.895,161.429 82.939,160.386 78.256,154.535 C73.574,148.683 69.716,141.459 71.382,138.363 C71.762,137.655 72.441,137.366 73.34,137.366 C76.372,137.366 81.895,140.656 86.814,142.241 C93.194,144.294 97.545,149.074 99.616,153.75 C101.687,158.424 110.646,162.36 119.319,164.166 C127.996,165.971 139.501,172.488 147.335,176.018 C155.171,179.547 153.393,185.106 152.675,192.473 C152.057,198.816 144.626,199.884 133.831,199.884" fill="#4E2A1B"/>
    <path d="M182.433,195.392 C173.689,199.22 159.587,203.712 150.699,210.707 C141.812,217.701 139.011,216.515 125.259,217.473 C111.508,218.43 106.427,217.14 101.987,214.294 C97.548,211.45 78.507,203.177 66.73,198.409 C54.955,193.642 49.472,188.633 49.761,182.305 C50.051,175.974 43.501,169.333 39.279,161.738 C35.058,154.145 35.868,148.895 39.481,144.833 C43.094,140.769 45.542,137.181 46.499,128.768 C47.454,120.353 53.917,116.42 57.505,112.884 C61.095,109.348 61.335,104.073 63.02,104.679 C64.706,105.284 68.166,117.072 66.857,120.713 C65.548,124.352 64.288,126.938 70.436,129.862 C76.585,132.787 78.126,136.557 83.233,137.319 C88.337,138.081 95.796,137.365 101.157,145.01 C106.52,152.656 109.224,155.951 115.967,158.375 C122.71,160.797 126.299,157.259 129.975,164.3 C133.651,171.34 143.485,168.619 145.074,171.334 C146.664,174.049 157.2,179.228 171.923,182.016 C186.646,184.804 182.969,188.727 187.722,184.715 C192.474,180.705 193.141,178.622 194.087,182.894 C194.963,188.747 191.174,191.562 182.433,195.392 z M190.593,178.152 C186.434,181.662 183.767,183.627 173.9,180.797 C161.976,177.377 151.761,174.987 148.535,170.609 C145.308,166.234 134.655,168.125 133.636,165.436 C132.616,162.747 126.29,157.435 121.161,157.201 C116.031,156.967 109.61,153.766 106.953,149.416 C104.297,145.064 98.4,136.603 88.712,136.159 C79.022,135.715 75.983,129.551 71.405,127.438 C64.413,124.213 72.488,122.467 68.362,112.764 C68.362,112.764 69.073,109.713 66.417,105.362 C63.76,101.012 68.292,95.581 61.757,101.096 C55.222,106.612 63.358,103.549 49.95,115.71 C42.723,122.267 43.223,125.446 42.243,134.387 C41.263,143.329 31.526,143.94 32.279,152.432 C33.034,160.924 44.472,173.076 44.729,179.961 C44.985,186.844 49.85,192.88 59.321,198.071 C68.794,203.261 95.645,215.59 100.63,218.99 C105.616,222.388 117.015,222.911 123.854,223.223 C130.692,223.535 150.763,221.809 152.665,217.669 C154.568,213.526 171.12,205.447 179.888,201.09 C188.654,196.734 192.121,195.836 196.4,189.687 C200.679,183.54 194.751,174.641 190.593,178.152" fill="#1A1919"/>
    <path d="M158.71,180.178 C157.663,181.641 162.744,183.534 162.744,183.534 C162.744,183.534 162.364,183.517 161.032,187.685 C159.698,191.852 156.659,191.713 159.698,191.852 C162.738,191.992 164.437,193.079 168.333,191.143 C172.229,189.207 181.065,187.497 174.29,185.777 C167.515,184.058 159.931,178.471 158.71,180.178" fill="#50341D"/>
  </g>
</svg>
