<svg xmlns="http://www.w3.org/2000/svg" width="212.308" height="115.03" viewBox="0 0 212.308 115.03"><defs><style>.a,.b,.c,.f,.h,.k,.m{isolation:isolate;}.b,.k,.l{fill:#22353b;}.b{stroke:#22353b;}.b,.c,.d,.j{stroke-miterlimit:10;}.c,.e,.m{fill:#2f4b55;}.c,.d{stroke:#2f4b55;}.d{fill:none;}.f{fill:#eaeaea;}.g{fill:#fff;}.h{fill:#cb5847;}.i{fill:#f9d6bb;opacity:0.45;}.j{fill:#868c93;stroke:#868c93;opacity:0.15;}.n{fill:#646f79;}</style></defs><g class="a"><path class="b" d="M106.141,21.943V82.589c0,11.84-23.652,21.443-52.816,21.443S.5,94.447.5,82.607V21.961C.5,10.1,24.152.5,53.325.5S106.141,10.1,106.141,21.943Z" transform="translate(0 0)"/><path class="c" d="M51.726,46.876v60.646c-16.908-.326-31.681-3.892-40.8-9.2V37.68C19.973,42.984,34.79,46.551,51.726,46.876Z" transform="translate(-0.989 -3.526)"/><ellipse class="d" cx="52.825" cy="21.443" rx="52.825" ry="21.443" transform="translate(0.5 0.5)"/><path class="e" d="M53.325,7.741c30.069,0,45.575,9.957,45.575,14.2s-15.505,14.2-45.575,14.2S7.741,26.188,7.741,21.943s15.505-14.2,45.584-14.2m0-7.241C24.152.5.5,10.1.5,21.943S24.152,43.387,53.325,43.387s52.816-9.6,52.816-21.443S82.489.5,53.325.5Z" transform="translate(0 0)"/><path class="f" d="M48.951,39.115c1.928,1.421,5.739,1.928,8.518,1.122a6.335,6.335,0,0,0,1.358-.552,4.463,4.463,0,0,0,.507.226,9.658,9.658,0,0,0,7.314-.959,3.449,3.449,0,0,0,1.1-1.023,3.467,3.467,0,0,0,1,.525,9.7,9.7,0,0,0,7.314-.905,4.245,4.245,0,0,0,.76-.625,10.455,10.455,0,0,0,7.241-.625c1.122-.561,1.747-1.231,1.81-1.865a9.875,9.875,0,0,0,5.82-1.249c1.122-.715,1.53-1.539,1.276-2.245a8.147,8.147,0,0,0,2.3.045c2.272-.326,3.422-1.647,2.562-2.969a2.5,2.5,0,0,0-.407-.48,7.169,7.169,0,0,0,1.14-.072c2.272-.317,3.422-1.638,2.562-2.96a4.037,4.037,0,0,0-2.019-1.43,6.4,6.4,0,0,0,2.824-.543c1.548-.842.778-2.326-1.729-3.313a10.861,10.861,0,0,0-1.331-.425,3.621,3.621,0,0,0,1.367-.688c1.2-1.077-.145-2.516-3.014-3.2a13.433,13.433,0,0,0-2.534-.344c1.358-1.032.462-2.516-2.154-3.394a12.908,12.908,0,0,0-4.607-.606h0c.905-1.014-.588-2.263-3.34-2.788a11.767,11.767,0,0,0-5.168.127c.679-1.014-.8-2.154-3.394-2.643a11.26,11.26,0,0,0-5.431.208A2.544,2.544,0,0,0,69.118,4.42a10.4,10.4,0,0,0-6.943.643,2.906,2.906,0,0,0-1.738-1.231,10.862,10.862,0,0,0-7.549.688,5.286,5.286,0,0,0-2.9-1.159,8.735,8.735,0,0,0-5.947,1.294,6.065,6.065,0,0,0-2.435-.815c-2.806-.362-5.884.652-6.87,2.263a2.263,2.263,0,0,0-.172.371,11.034,11.034,0,0,0-5.431-.6c-2.308.317-3.829,1.3-4.046,2.444a11.6,11.6,0,0,0-3.268,0c-2.172.3-3.621,1.195-4,2.245a12.075,12.075,0,0,0-1.81.109c-3.014.425-4.788,1.892-4.345,3.44a10.6,10.6,0,0,0-1.358.253c-2.715.733-3.729,2.372-2.489,3.838-2.172.643-3.458,1.747-3.078,2.906.226.742,1.2,1.394,2.553,1.828-1.222.652-1.81,1.5-1.548,2.39s1.738,1.81,3.621,2.227A1.584,1.584,0,0,0,8.862,29.2C9.332,30.624,12,31.656,15.2,31.765a1.6,1.6,0,0,0,.778,1.675c1.186.905,3.376,1.312,5.63,1.222.054.643.561,1.267,1.584,1.747a11.767,11.767,0,0,0,6.961.416c.226.833,1.186,1.575,2.77,2a11.894,11.894,0,0,0,6.273-.172,5.965,5.965,0,0,0,3.268,1.385,10.79,10.79,0,0,0,6.49-.923Z" transform="translate(-0.396 -0.263)"/><ellipse class="g" cx="3.657" cy="1.693" rx="3.657" ry="1.693" transform="translate(84.707 13.706)"/><ellipse class="g" cx="3.657" cy="1.693" rx="3.657" ry="1.693" transform="translate(90.98 21.454)"/><ellipse class="g" cx="3.657" cy="1.693" rx="3.657" ry="1.693" transform="translate(79.475 27.745)"/><path class="g" d="M89.31,25.964a6.879,6.879,0,0,1-1.62-.181,3.973,3.973,0,0,0,.57-2,3.847,3.847,0,0,0-.172-1.1,6.526,6.526,0,0,1,1.222-.109c2.019,0,3.621.76,3.621,1.7S91.329,25.964,89.31,25.964Z" transform="translate(-8.269 -2.093)"/><path class="g" d="M81.006,16.334a6.508,6.508,0,0,1-.851-.054c-.733-.281-1.5-.552-2.317-.8a1.122,1.122,0,0,1-.5-.842c0-.905,1.647-1.7,3.621-1.7s3.621.76,3.621,1.7S83.024,16.334,81.006,16.334Z" transform="translate(-7.287 -1.18)"/><ellipse class="g" cx="3.657" cy="1.693" rx="3.657" ry="1.693" transform="translate(66.921 5.949)"/><ellipse class="g" cx="3.657" cy="1.693" rx="3.657" ry="1.693" transform="translate(41.821 8.864)"/><ellipse class="g" cx="3.657" cy="1.693" rx="3.657" ry="1.693" transform="translate(8.348 21.934)"/><ellipse class="g" cx="3.657" cy="1.693" rx="3.657" ry="1.693" transform="translate(16.72 28.234)"/><path class="g" d="M40.561,35.647c-2.019,0-3.621-.76-3.621-1.693s1.34-1.557,3.1-1.675h0a34.766,34.766,0,0,0,3.847.905h0a1.023,1.023,0,0,1,.353.733C44.236,34.842,42.579,35.647,40.561,35.647Z" transform="translate(-3.456 -3.014)"/><ellipse class="g" cx="3.657" cy="1.693" rx="3.657" ry="1.693" transform="translate(42.862 34.525)"/><path class="g" d="M65.986,37.217c-2.019,0-3.666-.76-3.666-1.693a1.358,1.358,0,0,1,.842-1.077c1.575-.081,3.114-.217,4.589-.407,1.131.29,1.892.842,1.892,1.484C69.643,36.457,68,37.217,65.986,37.217Z" transform="translate(-5.863 -3.181)"/><ellipse class="g" cx="3.657" cy="1.693" rx="3.657" ry="1.693" transform="translate(71.103 33.077)"/><ellipse class="g" cx="3.657" cy="1.693" rx="3.657" ry="1.693" transform="translate(27.175 7.406)"/><ellipse class="g" cx="3.657" cy="1.693" rx="3.657" ry="1.693" transform="translate(14.621 13.218)"/><ellipse class="g" cx="3.141" cy="1.457" rx="3.141" ry="1.457" transform="translate(79.466 8.366)"/><path class="g" d="M65.979,43.8a.8.8,0,0,1-.2-.5c0-.806,1.4-1.457,3.141-1.457,1.448,0,2.661.453,3.023,1.077A10.274,10.274,0,0,1,65.979,43.8Z" transform="translate(-6.191 -3.921)"/><path class="g" d="M35.418,42.067H34.93a3.114,3.114,0,0,1-2.154-1.81l-.425.091c.272-.67,1.548-1.168,3.068-1.168,1.738,0,3.141.652,3.141,1.448S37.156,42.067,35.418,42.067Z" transform="translate(-3.021 -3.668)"/><ellipse class="g" cx="3.141" cy="1.457" rx="3.141" ry="1.457" transform="translate(53.316 4.981)"/><path class="g" d="M28.481,22.805c-1.738,0-3.141-.652-3.141-1.457s1.4-1.448,3.141-1.448a5.6,5.6,0,0,1,2.082.362,5.187,5.187,0,0,0-1.475,2.516C28.888,22.8,28.653,22.805,28.481,22.805Z" transform="translate(-2.356 -1.84)"/><path class="g" d="M45.812,6.264c-1.729,0-3.132-.643-3.132-1.448,0-.38.308-.724.824-.978a9.052,9.052,0,0,1,1.72.063,6.173,6.173,0,0,1,2.435.8,5.594,5.594,0,0,1,.905-.552.905.905,0,0,1,.353.67C48.953,5.622,47.55,6.264,45.812,6.264Z" transform="translate(-4 -0.315)"/><path class="h" d="M82.731,22.9c0,2.154-1.946,4.146-5.232,5.757a34.822,34.822,0,0,1-8.364,2.715,61.205,61.205,0,0,1-6.273.905c-2.172.2-4.444.308-6.8.308s-4.634-.109-6.807-.308a56.438,56.438,0,0,1-9.414-1.684,30.142,30.142,0,0,1-5.223-1.937c-3.286-1.611-5.232-3.621-5.232-5.757s1.946-4.146,5.232-5.748a30.142,30.142,0,0,1,5.223-1.937,55.487,55.487,0,0,1,9.414-1.693c2.172-.2,4.453-.308,6.807-.308s4.625.109,6.8.308,4.327.534,6.273.905A35.211,35.211,0,0,1,77.5,17.138C80.785,18.75,82.731,20.75,82.731,22.9Z" transform="translate(-2.74 -1.205)"/><path class="i" d="M64.945,13.518V32.273c-2.172.2-4.444.308-6.8.308s-4.634-.109-6.807-.308V13.518c2.172-.2,4.453-.308,6.807-.308S62.8,13.319,64.945,13.518Z" transform="translate(-4.822 -1.205)"/><path class="i" d="M40.393,15.42V30.808a30.142,30.142,0,0,1-5.223-1.937V17.357a30.142,30.142,0,0,1,5.223-1.937Z" transform="translate(-3.288 -1.415)"/><path class="i" d="M81.664,17.277v11.5A34.822,34.822,0,0,1,73.3,31.5V14.58a35.21,35.21,0,0,1,8.364,2.7Z" transform="translate(-6.904 -1.335)"/><path class="j" d="M105.972,16.619A49.2,49.2,0,0,0,87.145,38.433a8.282,8.282,0,0,1-3.2-.38,4.272,4.272,0,0,1-.76.634,8.9,8.9,0,0,1-3.53,1.186c4.843-10.817,12.717-19.37,22.3-24.123a12.944,12.944,0,0,1,2.417.335,8.97,8.97,0,0,1,1.6.534Z" transform="translate(-7.507 -1.446)"/><path class="k" d="M220.037,63.145c0,19.425-8.816,36.387-21.968,45.575a39.076,39.076,0,0,1-22.484,7.241H126.425c-10.971,0-21.018-4.716-28.766-12.546C88.056,93.731,82,79.284,82,63.145S88.056,32.56,97.659,22.875c7.748-7.839,17.8-12.555,28.766-12.555h49.159a39.085,39.085,0,0,1,22.484,7.241C211.221,26.758,220.037,43.72,220.037,63.145Z" transform="translate(-7.729 -0.931)"/><path class="l" d="M126.425,13.938c22.511,0,40.832,22.077,40.832,49.2s-18.275,49.168-40.832,49.168-40.8-22.041-40.8-49.168,18.311-49.2,40.832-49.2m0-3.621C101.914,10.317,82,33.969,82,63.142s19.914,52.789,44.425,52.789,44.452-23.643,44.452-52.816S150.964,10.29,126.425,10.29Z" transform="translate(-7.729 -0.928)"/><path class="m" d="M228.969,66.488A61.089,61.089,0,0,1,225.7,86.357H176.56a62.221,62.221,0,0,0-.38-40.787h49.159a61.125,61.125,0,0,1,3.63,20.918Z" transform="translate(-16.661 -4.274)"/><path class="n" d="M223.781,43.268H174.622A52.291,52.291,0,0,0,159.75,21.3h49.159a52.291,52.291,0,0,1,14.872,21.968Z" transform="translate(-15.103 -1.973)"/><path class="m" d="M206.19,20.257H157.031A39.719,39.719,0,0,0,131.08,10.3h49.159a39.085,39.085,0,0,1,22.484,7.241C203.918,18.4,205.068,19.3,206.19,20.257Z" transform="translate(-12.384 -0.929)"/><path class="f" d="M163.33,68.307c3.078-1.919,4.173-5.739,2.435-8.527a5.557,5.557,0,0,0-1.195-1.358,3.185,3.185,0,0,0,.48-.507c1.53-2.1.606-5.377-2.055-7.314a7.242,7.242,0,0,0-2.227-1.086,3.856,3.856,0,0,0,1.15-1.014c1.521-2.1.606-5.377-2.055-7.314a8.074,8.074,0,0,0-1.358-.76c1.521-1.937.969-5.105-1.349-7.241a6.861,6.861,0,0,0-4.028-1.81,6.019,6.019,0,0,0-2.715-5.829,6.6,6.6,0,0,0-4.87-1.276,3.675,3.675,0,0,0,.1-2.29c-.688-2.281-3.557-3.431-6.4-2.571a6.245,6.245,0,0,0-1.041.416,3.62,3.62,0,0,0-.136-1.077c-.679-2.281-3.548-3.431-6.4-2.571a6.128,6.128,0,0,0-3.005,1.982,3.621,3.621,0,0,0-1.186-2.815c-1.81-1.557-5.015-.778-7.151,1.72a7.477,7.477,0,0,0-.905,1.34,3.919,3.919,0,0,0-1.484-1.367c-2.335-1.213-5.431.136-6.924,3.014a6.952,6.952,0,0,0-.742,2.525c-2.236-1.358-5.431-.453-7.332,2.154a6.671,6.671,0,0,0-1.312,4.616h0c-2.2-.905-4.9.6-6.028,3.349a5.721,5.721,0,0,0,.272,5.168c-2.127-.606-4.589.842-5.657,3.449a5.6,5.6,0,0,0,.453,5.431,3.983,3.983,0,0,0-2.245,1.466c-1.394,1.91-.742,4.825,1.394,6.952A4.607,4.607,0,0,0,87.1,56.893c-1.566,2.163-.905,5.386,1.484,7.549a4.707,4.707,0,0,0-2.489,2.906c-.625,2.19.579,4.526,2.779,5.929a4.58,4.58,0,0,0-1.738,2.435c-.787,2.815,1.394,5.893,4.888,6.87.262.072.525.127.787.181a5.748,5.748,0,0,0-1.294,5.431,5.929,5.929,0,0,0,5.34,3.992,5.431,5.431,0,0,0-.063,3.268,5.856,5.856,0,0,0,4.852,4,5.6,5.6,0,0,0,.235,1.81,6.635,6.635,0,0,0,7.413,4.354,6.445,6.445,0,0,0,.561,1.349,6.635,6.635,0,0,0,8.282,2.5,6.336,6.336,0,0,0,6.282,3.069,6.056,6.056,0,0,0,4.019-2.553,6.39,6.39,0,0,0,5.168,1.539,6.463,6.463,0,0,0,4.815-3.621,6.336,6.336,0,0,0,3.548.507,6.734,6.734,0,0,0,5.54-6.336,5.521,5.521,0,0,0,3.621-.778,5.874,5.874,0,0,0,2.643-5.621,5.612,5.612,0,0,0,3.729-1.6,6.01,6.01,0,0,0,.905-6.961,5.757,5.757,0,0,0,4.327-2.77,5.9,5.9,0,0,0-.371-6.264,5.639,5.639,0,0,0,2.987-3.277A5.974,5.974,0,0,0,163.33,68.307Z" transform="translate(-8.102 -1.332)"/><circle class="g" cx="3.657" cy="3.657" r="3.657" transform="translate(100.919 23.518)"/><circle class="g" cx="3.657" cy="3.657" r="3.657" transform="translate(117.655 17.236)"/><circle class="g" cx="3.657" cy="3.657" r="3.657" transform="translate(131.25 28.741)"/><path class="g" d="M134.933,37.676a3.485,3.485,0,0,1-.389,1.62,16.239,16.239,0,0,0-6.716-.4,3.476,3.476,0,0,1-.217-1.222,3.661,3.661,0,0,1,7.323,0Z" transform="translate(-12.055 -3.179)"/><path class="g" d="M114.138,45.765a2.924,2.924,0,0,1-.109.851,23.477,23.477,0,0,0-1.729,2.326,3.621,3.621,0,1,1,1.81-3.177Z" transform="translate(-10.088 -3.953)"/><circle class="g" cx="3.657" cy="3.657" r="3.657" transform="translate(84.182 41.296)"/><circle class="g" cx="3.657" cy="3.657" r="3.657" transform="translate(90.455 66.396)"/><circle class="g" cx="3.657" cy="3.657" r="3.657" transform="translate(118.696 99.869)"/><circle class="g" cx="3.657" cy="3.657" r="3.657" transform="translate(132.291 91.505)"/><path class="g" d="M155.741,86.212a3.632,3.632,0,1,1-7.241.561h0a29.271,29.271,0,0,0,2.009-3.811h0a3.5,3.5,0,0,1,1.575-.362A3.666,3.666,0,0,1,155.741,86.212Z" transform="translate(-14.036 -7.786)"/><circle class="g" cx="3.657" cy="3.657" r="3.657" transform="translate(145.896 65.355)"/><path class="g" d="M159.278,60.773A3.621,3.621,0,0,1,153.3,63.6a32.523,32.523,0,0,0-.905-4.6,3.621,3.621,0,0,1,6.861,1.81Z" transform="translate(-14.405 -5.357)"/><circle class="g" cx="3.657" cy="3.657" r="3.657" transform="translate(142.755 37.114)"/><circle class="g" cx="3.657" cy="3.657" r="3.657" transform="translate(87.323 81.041)"/><circle class="g" cx="3.657" cy="3.657" r="3.657" transform="translate(99.869 93.596)"/><circle class="g" cx="3.141" cy="3.141" r="3.141" transform="translate(89.405 29.782)"/><path class="g" d="M173.427,60.9a3.078,3.078,0,0,1-1.077.2,3.132,3.132,0,0,1-.833-6.155C173.391,56.633,174.151,59.04,173.427,60.9Z" transform="translate(-16 -5.163)"/><path class="g" d="M169.711,91.46a2.18,2.18,0,0,1-.045.489,5.793,5.793,0,0,1-3.91,2.154c.072.145.136.281.2.434A3.141,3.141,0,1,1,169.7,91.46Z" transform="translate(-15.451 -8.328)"/><circle class="g" cx="3.141" cy="3.141" r="3.141" transform="translate(82.082 55.932)"/><path class="g" d="M128.112,98.5a3.141,3.141,0,1,1-5.485-2.082,16.981,16.981,0,0,0,5.431,1.475,3.36,3.36,0,0,1,.054.606Z" transform="translate(-11.507 -9.097)"/><path class="g" d="M92.387,81.065a3.123,3.123,0,0,1-5.25,2.308,4.526,4.526,0,0,1,.136-1.711,4.625,4.625,0,0,1,1.738-2.435,8.39,8.39,0,0,1-1.2-.905,3.014,3.014,0,0,1,1.448-.362,3.132,3.132,0,0,1,3.132,3.1Z" transform="translate(-8.214 -7.346)"/><ellipse class="h" cx="20.918" cy="26.675" rx="20.918" ry="26.675" transform="translate(97.253 35.539)"/><path class="i" d="M143.757,89.48c-3.775,4.843-9.052,7.839-14.808,7.839s-11.034-3-14.808-7.839Z" transform="translate(-10.778 -8.439)"/><path class="i" d="M149.227,68.351a33.119,33.119,0,0,1-1.665,10.455H109.055a33.12,33.12,0,0,1-1.665-10.455c0-1.068.054-2.118.145-3.141h41.547C149.172,66.233,149.227,67.283,149.227,68.351Z" transform="translate(-10.137 -6.137)"/><path class="i" d="M148.027,57.4H108.87a28.54,28.54,0,0,1,3.992-8.4h31.174A28.54,28.54,0,0,1,148.027,57.4Z" transform="translate(-10.278 -4.6)"/></g></svg>