<svg xmlns="http://www.w3.org/2000/svg" width="191.7" height="139.6" viewBox="0 0 191.7 139.6"><defs><style>.a{fill:#22353b;}.a,.b,.d,.e,.f,.g,.h,.i{isolation:isolate;}.c{fill:#646f79;}.d{fill:#2f4b55;}.e{fill:#aa7f4d;}.f{fill:#9e7349;}.g{fill:#fdfdfe;}.h{fill:#f5f1de;}.i{fill:#fbe6be;}.j{fill:#305643;}.k{fill:#739181;opacity:0.39;}</style></defs><path class="a" d="M191.7,43.75A95.85,95.85,0,0,1,0,43.75c0-2.76.12-5.5.35-8.2q.1-1.36.27-2.73h0C4.38,14.44,45.58,0,95.85,0s91.47,14.44,95.22,32.77h0q.16,1.36.27,2.73Q191.7,39.625,191.7,43.75Z"/><g class="b"><path class="c" d="M83.25,138.78A95.87,95.87,0,0,1,0,43.75c0-2.76.12-5.5.35-8.2C.4,48.74,19.77,60.23,48.51,66.34,52.47,104.4,66.23,133.6,83.25,138.78Z"/></g><path class="d" d="M93.57,139.57A95.84,95.84,0,0,1,0,43.75c0-2.76.12-5.5.35-8.2,0,6.66,5,12.9,13.6,18.22C18.18,101.2,52,138.34,93.57,139.57Z"/><path class="d" d="M128.58,68.86c-4.46,38.23-18.86,67-36.38,70.4h0c-.44.09-.89.16-1.34.22-2.56-.14-5.1-.37-7.6-.7-17-5.18-30.78-34.38-34.74-72.44,2.32.5,4.7,1,7.14,1.37A238.221,238.221,0,0,0,95.85,71a243.85,243.85,0,0,0,32.73-2.14Z"/><path class="e" d="M184.49,48.73C170.38,61.79,136,71,95.85,71S21.32,61.79,7.21,48.73a2.265,2.265,0,0,1,.12-.72h0c3.48-17,41.78-30.46,88.51-30.46s85,13.42,88.51,30.46h0A4.575,4.575,0,0,1,184.49,48.73Z"/><path class="f" d="M56.35,35.23v4.5L37.9,47.63l-.19.08v-4.5l.19-.08L53,36.66h.01Z"/><path class="f" d="M37.71,43.21v4.5l-.05.02-6.23-5.71v-4.5l3.33,3.04,2.9,2.67Z"/><path class="g" d="M56.35,32.23l-18.69,8L31.41,34.5l18.69-8Z"/><path class="h" d="M56.35,32.23v4.5L37.9,44.63l-.19.08v-4.5l.19-.08L53,33.66h.01Z"/><path class="i" d="M37.71,40.21v4.5l-.05.02-6.23-5.71v-4.5l3.33,3.04,2.9,2.67Z"/><path class="f" d="M105.41,48.23v4.5l18.45,7.9.2.08v-4.5l-.2-.08-15.1-6.47h0Z"/><path class="f" d="M124.06,56.21v4.5l.04.02,6.23-5.71v-4.5L127,53.56l-2.9,2.67Z"/><path class="g" d="M105.42,46.23l18.68,8,6.25-5.73-18.68-8Z"/><path class="i" d="M105.41,46.23v4.5l18.45,7.9.2.08v-4.5l-.2-.08-15.1-6.47h0Z"/><path class="h" d="M124.06,54.21v4.5l.04.02,6.23-5.71v-4.5L127,51.56l-2.9,2.67Z"/><path class="f" d="M88.35,22.06V25.9l14.8,6.75.15.06V28.87l-.15-.07L91.03,23.28h0Z"/><path class="f" d="M103.3,28.87v3.84l.04.02,4.99-4.88V24.01l-2.66,2.6-2.33,2.28Z"/><path class="g" d="M88.35,20.06l14.99,6.83L108.35,22,93.36,15.16Z"/><path class="i" d="M88.35,20.06V23.9l14.8,6.74.15.07V26.87l-.15-.07L91.03,21.28h0Z"/><path class="h" d="M103.3,26.87v3.84l.04.02,4.99-4.88V22.01l-2.66,2.6-2.33,2.28Z"/><path class="f" d="M80.35,54.06V57.9l-14.8,6.74-.15.07V60.87l.15-.07,12.12-5.52h0Z"/><path class="f" d="M65.4,60.87v3.84l-.04.02-4.99-4.88V56.01l2.66,2.6,2.33,2.28Z"/><path class="g" d="M80.35,53.06,65.36,59.89,60.35,55l14.98-6.84Z"/><path class="i" d="M80.35,53.06V56.9l-14.8,6.75-.15.06V59.87l.15-.07,12.12-5.52h0Z"/><path class="i" d="M65.4,59.87v3.84l-.04.02-4.99-4.88V55.01l2.66,2.6,2.33,2.28Z"/><path class="f" d="M164.35,33.06V36.9l-14.8,6.75-.15.06V39.87l.15-.07,12.11-5.52h.01Z"/><path class="f" d="M149.4,39.87v3.84l-.04.02-4.99-4.88V35.01l2.66,2.6,2.33,2.28Z"/><path class="g" d="M164.35,30.06l-14.99,6.83L144.35,32l14.99-6.84Z"/><path class="h" d="M164.35,30.06V33.9l-14.8,6.75-.15.06V36.87l.15-.07,12.11-5.52h.01Z"/><path class="i" d="M149.4,36.87v3.84l-.04.02-4.99-4.88V32.01l2.66,2.6,2.33,2.28Z"/><rect class="j" width="4" height="10.33" transform="translate(74.785 33.235) rotate(-47.75)"/><path class="k" d="M78.86,31.52l-2.47-.06.44-.49,1.47.04Z"/><path class="k" d="M80.48,33l-5.37-.14.45-.49,4.36.11Z"/><path class="k" d="M82.24,34.59l-6.12-.16-.57-.51,6.12.16Z"/><path class="k" d="M85.11,37.21l-.44.49-5.1-.13-.56-.51Z"/><path class="k" d="M83.46,39.04l-.45.48-1.33-.03-.56-.51Z"/><path class="k" d="M83.94,36.13l-6.13-.15-.56-.52,6.12.16Z"/><rect class="j" width="10.33" height="4" transform="translate(95.526 40.301) rotate(-32.57)"/><path class="k" d="M104.8,39.13l.71-2.37.35.55-.42,1.41Z"/><path class="k" d="M102.95,40.31l1.54-5.15.36.56-1.26,4.18Z"/><path class="k" d="M100.96,41.58l1.75-5.86.64-.41-1.75,5.86Z"/><path class="k" d="M97.67,43.67l-.35-.55,1.46-4.89.64-.41Z"/><path class="k" d="M96.34,41.59l-.35-.55.39-1.27.64-.42Z"/><path class="k" d="M99.02,42.82l1.76-5.87.64-.41-1.75,5.87Z"/><rect class="j" width="4" height="10.33" transform="translate(57.409 45.366) rotate(-70.42)"/><path class="k" d="M60.52,42.23l-2.3.89.22-.62,1.37-.53Z"/><path class="k" d="M62.59,42.96l-5.01,1.95.22-.62,4.07-1.58Z"/><path class="k" d="M64.82,43.76l-5.71,2.21-.72-.25L64.1,43.5Z"/><path class="k" d="M68.48,45.07l-.22.62-4.75,1.84-.72-.25Z"/><path class="k" d="M67.66,47.39l-.22.62-1.24.48-.72-.25Z"/><path class="k" d="M66.98,44.52l-5.71,2.22-.71-.26,5.7-2.21Z"/><rect class="j" width="10.33" height="4" transform="matrix(0.949, -0.316, 0.316, 0.949, 28.419, 52.947)"/><path class="k" d="M30.2,52.36l-1.27,2.12-.21-.62.76-1.26Z"/><path class="k" d="M32.28,51.66l-2.75,4.62-.21-.63,2.24-3.75Z"/><path class="k" d="M34.52,50.92l-3.13,5.25-.72.25,3.13-5.26Z"/><path class="k" d="M38.22,49.7l.21.62L35.82,54.7l-.72.24Z"/><path class="k" d="M39,52.03l.21.63-.69,1.14-.72.24Z"/><path class="k" d="M36.7,50.19l-3.13,5.26-.73.24,3.14-5.26Z"/><rect class="j" width="10.33" height="4" transform="matrix(0.949, -0.316, 0.316, 0.949, 156.418, 52.943)"/><path class="k" d="M158.2,52.36l-1.27,2.12-.21-.62.76-1.26Z"/><path class="k" d="M160.28,51.66l-2.75,4.62-.21-.63,2.24-3.75Z"/><path class="k" d="M162.53,50.92l-3.14,5.25-.72.25,3.13-5.26Z"/><path class="k" d="M166.22,49.7l.21.62-2.61,4.38-.72.24Z"/><path class="k" d="M167,52.03l.21.63-.68,1.14-.73.24Z"/><path class="k" d="M164.7,50.19l-3.13,5.26-.73.24,3.14-5.26Z"/><rect class="j" width="2.41" height="7.85" transform="translate(57.275 25.417) rotate(-49.66)"/><path class="k" d="M59.93,24.51l-1.72-.18.26-.3,1.01.11Z"/><path class="k" d="M61.2,25.59l-3.73-.39.26-.3,3.03.32Z"/><path class="k" d="M62.57,26.76l-4.25-.45-.44-.38,4.25.45Z"/><path class="k" d="M64.82,28.68l-.26.3-3.53-.37-.44-.38Z"/><path class="k" d="M63.86,29.81l-.25.3-.93-.1-.44-.37Z"/><path class="k" d="M63.9,27.89l-4.25-.45-.44-.37,4.25.44Z"/><rect class="j" width="2.41" height="7.85" transform="matrix(0.476, -0.879, 0.879, 0.476, 91.024, 55.232)"/><path class="k" d="M93.43,53.8l-1.72.18.19-.35,1.02-.11Z"/><path class="k" d="M94.89,54.59l-3.72.39.19-.35,3.02-.31Z"/><path class="k" d="M96.48,55.45l-4.25.44-.51-.28,4.25-.44Z"/><path class="k" d="M99.08,56.87l-.19.35-3.54.36-.51-.28Z"/><path class="k" d="M98.37,58.17l-.19.35-.92.09-.51-.27Z"/><path class="k" d="M98.01,56.28l-4.25.44-.51-.27,4.25-.44Z"/><rect class="j" width="3.7" height="9.68" transform="translate(134.537 44.593) rotate(-42.77)"/><path class="k" d="M139.91,50.41l2.29.28-.44.41-1.36-.17Z"/><path class="k" d="M138.52,48.9l4.97.6-.45.41L139,49.43Z"/><path class="k" d="M137.01,47.27l5.67.68.48.53-5.66-.68Z"/><path class="k" d="M134.54,44.59l.45-.41,4.72.56.48.53Z"/><path class="k" d="M136.21,43.04l.45-.41,1.23.15.49.52Z"/><path class="k" d="M135.55,45.7l5.67.67.48.53-5.67-.68Z"/><rect class="j" width="2.98" height="7.78" transform="translate(134.352 24.491) rotate(-42.77)"/><path class="k" d="M138.67,29.18l1.85.21-.36.34-1.1-.13Z"/><path class="k" d="M137.55,27.96l4,.48-.36.33-3.25-.39Z"/><path class="k" d="M136.34,26.65l4.56.54.39.42-4.56-.54Z"/><path class="k" d="M134.36,24.49l.36-.33,3.79.45.39.43Z"/><path class="k" d="M135.7,23.25l.36-.33.99.12.39.42Z"/><path class="k" d="M135.17,25.38l4.56.55.39.42-4.56-.55Z"/><rect class="j" width="7.55" height="2.92" transform="translate(122.53 36.301) rotate(-32.57)"/><path class="k" d="M129.3,35.45l.52-1.74.26.41-.31,1.03Z"/><path class="k" d="M127.95,36.31l1.13-3.76.25.4-.91,3.06Z"/><path class="k" d="M126.49,37.24l1.29-4.29.46-.29-1.28,4.28Z"/><path class="k" d="M124.09,38.77l-.26-.41,1.07-3.57.47-.3Z"/><path class="k" d="M123.12,37.25l-.26-.41.28-.93.47-.3Z"/><path class="k" d="M125.08,38.14l1.28-4.28.47-.3-1.28,4.28Z"/><rect class="j" width="2.92" height="7.55" transform="translate(114.604 27.639) rotate(-85.05)"/><path class="k" d="M116.22,24.85l-1.47,1.06.05-.48.87-.63Z"/><path class="k" d="M117.82,24.98l-3.18,2.3.04-.48,2.58-1.86Z"/><path class="k" d="M119.54,25.13l-3.63,2.62-.55-.05,3.63-2.61Z"/><path class="k" d="M122.37,25.39l-.04.48-3.02,2.18-.55-.05Z"/><path class="k" d="M122.22,27.18l-.04.48-.79.57-.56-.05Z"/><path class="k" d="M121.21,25.28l-3.63,2.62-.55-.05,3.63-2.62Z"/><g class="b"><path class="c" d="M95.85,7c23.47,0,45.76,3.24,62.77,9.13,11.35,3.93,24,10.7,25.57,18a1.292,1.292,0,0,1,0,.19,6.311,6.311,0,0,1,.12,1.25c0,6.07-9,13.17-23.45,18.53C143.63,60.47,120.53,64,95.85,64s-47.78-3.53-65-9.94C16.36,48.7,7.37,41.6,7.35,35.5a6.11,6.11,0,0,1,.07-1l.21-.63v-.32C9.65,26.52,22,20,33.08,16.13,50.09,10.24,72.38,7,95.85,7m0-7C45.58,0,4.38,14.44.63,32.77h0A13.39,13.39,0,0,0,.35,35.5h0C.42,55.14,43.15,71,95.85,71s95.43-15.86,95.5-35.45h0a13.39,13.39,0,0,0-.27-2.68h0C187.32,14.44,146.12,0,95.85,0Z"/></g></svg>