<svg xmlns="http://www.w3.org/2000/svg" width="203.318" height="110.028" viewBox="0 0 203.318 110.028"><defs><style>.a{fill:#eaeaea;}.a,.c,.f,.g,.h,.i,.j{isolation:isolate;}.b{fill:#fff;}.c{fill:#e06655;}.d{fill:#b7b7b7;opacity:0.25;}.e{fill:#d87366;}.f{fill:#cb5847;}.g{fill:#c7473a;}.h{fill:#f9d6bb;opacity:0.45;}.i{fill:#22353b;}.j{fill:#2f4b55;}</style></defs><g transform="translate(0.019 0.004)"><path class="a" d="M199.955,79.552a8.191,8.191,0,0,0-4.719-7.474,8.824,8.824,0,0,0-6.092-6.12c.9-3.246-1.122-6.965-4.791-8.666a8.6,8.6,0,0,0-6.2-.491,6.422,6.422,0,0,0-.763-2.282,6.99,6.99,0,0,0-9.7-2.191,7.171,7.171,0,0,0-.816.555,8.431,8.431,0,0,0-1-2.873,8.017,8.017,0,0,0-10.991-3.019,7.3,7.3,0,0,0-1.274.909,7.936,7.936,0,0,0-.4-.837c-2.3-4.028-7.815-5.156-12.319-2.519a10.717,10.717,0,0,0-2.019,1.537,9.334,9.334,0,0,0-3.392-2.855c-3.984-1.982-8.577-.909-10.623,2.446a9.192,9.192,0,0,0-3.732-3.355c-4.037-2.019-8.712-.837-10.7,2.6a8.173,8.173,0,0,0-1.256-1.664,7.582,7.582,0,0,0-10.829-.182,8.082,8.082,0,0,0-.763.909A10.1,10.1,0,0,0,94.5,41.817c-3.589-1.673-7.626-1.028-9.869,1.346a9.419,9.419,0,0,0-.9-.436,8.968,8.968,0,0,0-9.071.618,9.1,9.1,0,0,0-1.983-1.255c-4.136-1.891-8.873-.318-10.6,3.519a1.229,1.229,0,0,1-.063.164,11,11,0,0,0-2.871-1.891c-4.172-1.919-8.64-1.037-9.986,1.973a4.3,4.3,0,0,0-.341,1.191,10.43,10.43,0,0,0-4.863-1.819c-4.54-.555-8.542,1.646-8.972,4.928a4.414,4.414,0,0,0,0,.973,13.836,13.836,0,0,0-4.28-1.218c-5.186-.627-9.69,1.509-10.085,4.792a3.967,3.967,0,0,0,.278,1.955,12.46,12.46,0,0,0-1.857-.382c-5.186-.627-9.78,2.228-10.273,6.365a6.164,6.164,0,0,0,0,.909A7.337,7.337,0,0,0,8.721,74.77,7.277,7.277,0,0,0,5.33,79.825a7.451,7.451,0,0,0,1.305,5.5A7.262,7.262,0,0,0,11.4,88.272a7.374,7.374,0,0,0,1.794.064,6.393,6.393,0,0,0-.4.737c-1.543,3.419.458,7.711,4.486,9.575a8.438,8.438,0,0,0,7.052.164,6.426,6.426,0,0,0,.807,2.61,6.99,6.99,0,0,0,9.7,2.191A8.084,8.084,0,0,0,36.3,102.5a5.65,5.65,0,0,0,.35.7,8.017,8.017,0,0,0,10.991,3.019,7.3,7.3,0,0,0,1.274-.909,7.937,7.937,0,0,0,.4.837c2.3,4.028,7.815,5.156,12.319,2.519a10.718,10.718,0,0,0,2.019-1.537,9.334,9.334,0,0,0,3.391,2.855c3.984,1.982,8.577.909,10.623-2.446A9.193,9.193,0,0,0,81.4,110.9c4.037,2.019,8.712.837,10.7-2.6a8.173,8.173,0,0,0,1.256,1.664,7.582,7.582,0,0,0,10.829.182,8.087,8.087,0,0,0,.763-.909,10.1,10.1,0,0,0,3.068,2.164c3.589,1.673,7.626,1.018,9.914-1.346a9.431,9.431,0,0,0,.852.436,8.968,8.968,0,0,0,9.071-.618,9.1,9.1,0,0,0,1.983,1.255c4.136,1.891,8.874.318,10.6-3.519a1.228,1.228,0,0,1,.063-.164,10.994,10.994,0,0,0,2.871,1.891c4.172,1.919,8.64,1.037,9.986-1.973a4.592,4.592,0,0,0,.341-1.191,10.429,10.429,0,0,0,4.863,1.819c4.54.555,8.542-1.655,8.972-4.928a4.413,4.413,0,0,0,0-.973,13.836,13.836,0,0,0,4.28,1.218c5.186.627,9.69-1.519,10.085-4.792a4.078,4.078,0,0,0-.278-1.955,12.238,12.238,0,0,0,1.857.382c5.186.627,9.78-2.228,10.273-6.365a6.284,6.284,0,0,0-.592-3.455C196.931,86.19,199.8,83.208,199.955,79.552Z" transform="translate(-0.477 -3.709)"/><path class="b" d="M94.058,67.187l9.657-7.865a5.8,5.8,0,0,0-7.329-9l-9.6,7.829a5.8,5.8,0,1,0,7.275,9.039Z" transform="translate(-8.769 -4.446)"/><path class="b" d="M56.269,95.421l-9.411-8.184a5.456,5.456,0,1,0-7.138,8.247l9.411,8.184a5.456,5.456,0,1,0,7.138-8.247Z" transform="translate(-3.908 -7.783)"/><path class="b" d="M78.618,102.128,86.8,92.753a5.8,5.8,0,0,0-8.747-7.6l-8.184,9.375a5.81,5.81,0,0,0,8.747,7.638Z" transform="translate(-7.098 -7.562)"/><path class="b" d="M156.121,87.955l10.257-4.328c2.61-1.1,3.719-4.392,2.473-7.347s-4.374-4.446-6.983-3.346l-10.257,4.319c-2.619,1.109-3.728,4.392-2.482,7.347S153.512,89.056,156.121,87.955Z" transform="translate(-15.395 -6.583)"/><path class="b" d="M173.929,104.491l9.166-9.238a5.81,5.81,0,1,0-8.248-8.184l-9.165,9.248a5.81,5.81,0,1,0,8.248,8.184Z" transform="translate(-16.988 -7.742)"/><path class="b" d="M205.949,80.6l-7.565-10.566a5.81,5.81,0,1,0-9.438,6.756l7.565,10.566a5.81,5.81,0,1,0,9.438-6.756Z" transform="translate(-19.647 -6.112)"/><path class="b" d="M165.511,59.893l1.928-12.848a5.8,5.8,0,0,0-11.475-1.728l-1.973,12.9a5.81,5.81,0,1,0,11.484,1.719Z" transform="translate(-15.867 -3.663)"/><path class="b" d="M137.053,72.241l6.774-11.093a5.81,5.81,0,1,0-9.911-6.047l-6.774,11.093a5.81,5.81,0,1,0,9.911,6.047Z" transform="translate(-13.05 -4.726)"/><path class="b" d="M147.018,97.1l-10.43-7.747a5.81,5.81,0,1,0-6.929,9.32l10.439,7.747a5.81,5.81,0,1,0,6.92-9.32Z" transform="translate(-13.186 -7.99)"/><path class="b" d="M70.938,81.365l4.146-11.739a5.8,5.8,0,0,0-10.912-3.865L59.981,77.482a5.81,5.81,0,0,0,10.912,3.874Z" transform="translate(-6.173 -5.648)"/><path class="b" d="M53.363,63.66,48,52.43a5.8,5.8,0,1,0-10.475,5L42.888,68.67a5.81,5.81,0,0,0,10.475-5.01Z" transform="translate(-3.82 -4.456)"/><path class="b" d="M28.389,87.554,30.344,75.26a5.8,5.8,0,1,0-11.466-1.819L16.923,85.726a5.8,5.8,0,0,0,11.466,1.819Z" transform="translate(-1.53 -6.218)"/><path class="c" d="M44.779,66.02c-2.055.846-4.41,1.819-6.983,2.792-1.409.555-2.464.909-3.5,1.282L15.5,33.467c.773-.673,1.528-1.309,2.291-1.937a69.469,69.469,0,0,1,6.874-4.71Z" transform="translate(-1.408 -2.433)"/><path class="d" d="M198.637,74.937a13.688,13.688,0,0,1-1.22,1.191,20.726,20.726,0,0,1-7.491,3.965A24.559,24.559,0,0,1,176.47,81c-2.969-.691-7.266-3.128-10.765-4.546-4.485-1.819-7.177-2.728-12.559-4.546a119.315,119.315,0,0,0-12.559-3.637c-6.019-1.491-10.02-2.728-20.633-2.728-9.868,0-14.353-.155-26.912,0-10.451.127-14.56.473-17.044.909-7.392,1.291-16.973,2.328-24.221,5.456-1.579.682-7.374,3.255-15.25,6.365a35.885,35.885,0,0,1-5.382,1.819,26.421,26.421,0,0,1-13.456,0,25.877,25.877,0,0,1-6.28-2.728l-1.041-.6c-.718-.418-1.489-.909-2.261-1.437a6.64,6.64,0,0,1,.727-.518,7.338,7.338,0,0,1,.054-11.221,6.166,6.166,0,0,1,0-.909c.493-4.165,5.1-7.02,10.272-6.365a12.234,12.234,0,0,1,1.857.382,4.078,4.078,0,0,1-.278-1.955c.395-3.283,4.907-5.456,10.083-4.792A13.832,13.832,0,0,1,35.1,51.168a4.414,4.414,0,0,1,0-.973c.395-3.283,4.4-5.456,8.971-4.928a10.427,10.427,0,0,1,4.862,1.819,4.593,4.593,0,0,1,.341-1.191c1.346-3.01,5.813-3.892,9.984-1.973a10.993,10.993,0,0,1,2.871,1.891,1.228,1.228,0,0,0,.063-.164,7.822,7.822,0,0,1,10.594-3.519,9.1,9.1,0,0,1,1.983,1.255,8.966,8.966,0,0,1,9.069-.618,9.417,9.417,0,0,1,.9.436c2.288-2.373,6.28-3.019,9.868-1.346a9.993,9.993,0,0,1,3.068,2.164,8.083,8.083,0,0,1,.763-.909,7.58,7.58,0,0,1,10.828.182,8.172,8.172,0,0,1,1.256,1.664c1.992-3.437,6.665-4.619,10.7-2.6a9.281,9.281,0,0,1,3.741,3.355c2.036-3.319,6.629-4.428,10.612-2.446a9.333,9.333,0,0,1,3.391,2.855,10.715,10.715,0,0,1,2.018-1.537C145.467,41.948,151,43.075,153.3,47.1a7.932,7.932,0,0,1,.4.837,7.3,7.3,0,0,1,1.274-.909,7.978,7.978,0,0,1,7.524-.255,8.175,8.175,0,0,1,4.461,6.147,7.171,7.171,0,0,1,.816-.555,6.988,6.988,0,0,1,9.7,2.191,6.424,6.424,0,0,1,.763,2.282,8.594,8.594,0,0,1,6.2.491c3.669,1.7,5.652,5.456,4.79,8.666a8.85,8.85,0,0,1,6.1,6.12,9.074,9.074,0,0,1,3.31,2.819Z" transform="translate(-0.569 -3.712)"/><path class="e" d="M201.986,56.492a18.575,18.575,0,0,1-3.591,6.365,15.484,15.484,0,0,1-1.5,1.491,20.747,20.747,0,0,1-7.478,3.965,24.593,24.593,0,0,1-13.466.909c-2.971-.691-7.272-3.128-10.773-4.546-4.489-1.819-7.182-2.728-12.568-4.546a119.471,119.471,0,0,0-12.568-3.637C134.019,55,130.016,53.764,119.4,53.764c-9.875,0-14.364-.155-26.932,0-10.458.127-14.57.473-17.057.909C68.01,55.964,58.422,57,51.168,60.129c-1.58.682-7.379,3.255-15.261,6.365a35.929,35.929,0,0,1-5.386,1.819,26.458,26.458,0,0,1-13.466,0,25.905,25.905,0,0,1-6.284-2.728l-1.041-.6A19.776,19.776,0,0,1,1.793,57.4,12.089,12.089,0,0,1,0,51.945c-.171-3.637.9-6.529,4.489-10.912a79.851,79.851,0,0,1,11.67-11.821c5.6-4.7,26.312-16.476,35.954-20,8.618-3.155,25.9-6.2,35.864-7.274a159.33,159.33,0,0,1,36.807.909,143.681,143.681,0,0,1,31.42,8.184,139.334,139.334,0,0,1,26.034,13.639s5.934,3.955,16.159,14.549a15.816,15.816,0,0,1,4.489,7.274A17.065,17.065,0,0,1,201.986,56.492Z" transform="translate(0 -0.116)"/><path class="f" d="M202.3,57.97l-.108.246a18.576,18.576,0,0,1-3.59,6.365,19.323,19.323,0,0,1-8.975,5.456,24.583,24.583,0,0,1-13.463.909c-2.971-.691-7.27-3.128-10.77-4.546-4.488-1.819-7.18-2.728-12.565-4.546a119.426,119.426,0,0,0-12.565-3.637c-6.022-1.491-10.025-2.728-20.643-2.728-9.873,0-14.36-.155-26.926,0-10.456.127-14.567.473-17.053.909-7.4,1.291-16.981,2.328-24.233,5.456-1.58.682-7.378,3.255-15.258,6.365a35.916,35.916,0,0,1-5.385,1.819,26.447,26.447,0,0,1-13.463,0,25.9,25.9,0,0,1-6.283-2.728c-2.63-1.5-6.184-3.528-8.589-7.52A80.534,80.534,0,0,1,14.286,48.213c15.9-12.912,35.91-19.623,37.122-20,12.96-4.237,26.764-6.2,37.095-7.274a169.954,169.954,0,0,1,38.019.909,152.173,152.173,0,0,1,32.455,8.184A145.787,145.787,0,0,1,185.9,43.666S191.871,47.558,202.3,57.97Z" transform="translate(-0.222 -1.839)"/><path class="g" d="M197.817,68.158a15.86,15.86,0,0,1-2.493,1.819l-.332.2a22.854,22.854,0,0,1-3.686,1.628l-.493.173-.484.145a24.54,24.54,0,0,1-13.451.909c-2.968-.691-7.264-3.128-10.761-4.546-4.484-1.819-7.174-2.728-12.554-4.546A119.237,119.237,0,0,0,141.009,60.3c-6.017-1.491-10.016-2.728-20.625-2.728-9.864,0-14.348-.155-26.9,0-10.447.127-14.554.473-17.038.909-7.389,1.291-16.966,2.328-24.212,5.456-1.578.682-7.371,3.255-15.244,6.365a35.862,35.862,0,0,1-5.38,1.819,26.4,26.4,0,0,1-13.451,0,25.862,25.862,0,0,1-6.277-2.728l-1.04-.6c10.474-3.283,22.346-9.4,36.909-15.767,18.831-8.184,32.166-8.02,42.146-9.093a158.978,158.978,0,0,1,36.766.909c14.276,2.064,25.35,5.565,31.385,8.184,6.277,2.728,20.858,11.293,27.8,13.639A40.4,40.4,0,0,0,197.817,68.158Z" transform="translate(-0.985 -3.926)"/><path class="h" d="M44.779,66.02c-2.055.846-4.41,1.819-6.983,2.792-1.409.555-2.464.909-3.5,1.282L15.5,33.467c.773-.673,1.528-1.309,2.291-1.937a69.469,69.469,0,0,1,6.874-4.71Z" transform="translate(-1.408 -2.433)"/><path class="h" d="M77.514,55.856c-3.455.536-7.183,1.109-10.8,1.891L57,10.092l.973-.364A88.2,88.2,0,0,1,67.539,7Z" transform="translate(-5.905 -0.635)"/><path class="h" d="M169.58,10.826l-11.512,46.92-2.846-.691c-2.728-.673-5.083-1.291-7.793-1.764L159.169,7.48C163.3,8.635,166.8,9.771,169.58,10.826Z" transform="translate(-15.286 -0.679)"/><path class="h" d="M209.412,33.868,190.726,70.149c-2.31-1.009-4.81-2.246-7.029-3.155-1.1-.436-2.091-.827-3.037-1.182L200.737,26.83l.236.155A79.315,79.315,0,0,1,209.412,33.868Z" transform="translate(-19.009 -2.434)"/><path class="i" d="M131.011,1.746V109.115s-10,.909-20,.909h-3.637c-3.128-.064-6.129-.191-8.684-.336-4.546-.255-7.665-.536-7.665-.536V1.746A105.769,105.769,0,0,1,111.006,0a118.571,118.571,0,0,1,20,1.746Z" transform="translate(-9.565 0)"/><path class="j" d="M91,52.365V46a3.183,3.183,0,1,1,0,6.365Z" transform="translate(-9.326 -4.173)"/><path class="j" d="M92.384,73.546a2.273,2.273,0,0,1-1.364-.455V69.455a2.273,2.273,0,1,1,1.364,4.092Z" transform="translate(-9.33 -6.259)"/><path class="j" d="M95.546,96.546A4.546,4.546,0,0,1,91,101.093V92A4.546,4.546,0,0,1,95.546,96.546Z" transform="translate(-9.333 -8.345)"/><path class="j" d="M91.475,15.183a3.7,3.7,0,0,1-.455,0V7a3.7,3.7,0,0,1,.455,0,4.092,4.092,0,0,1,0,8.184Z" transform="translate(-9.335 -0.635)"/><circle class="j" cx="1.819" cy="1.819" r="1.819" transform="translate(84.383 77.29)"/><circle class="j" cx="2.273" cy="2.273" r="2.273" transform="translate(84.378 20.913)"/><circle class="j" cx="2.273" cy="2.273" r="2.273" transform="translate(86.172 34.553)"/><circle class="j" cx="1.819" cy="1.819" r="1.819" transform="translate(87.075 59.104)"/><circle class="j" cx="1.819" cy="1.819" r="1.819" transform="translate(88.87 99.113)"/><circle class="j" cx="2.273" cy="2.273" r="2.273" transform="translate(89.762 2.728)"/><circle class="j" cx="3.637" cy="3.637" r="3.637" transform="translate(87.951 43.646)"/><circle class="j" cx="2.273" cy="2.273" r="2.273" transform="translate(91.557 84.564)"/><path class="j" d="M108.134,120.69c-3.128-.064-6.129-.191-8.684-.336a4.683,4.683,0,0,1,8.684.336Z" transform="translate(-10.224 -10.666)"/><circle class="j" cx="4.092" cy="4.092" r="4.092" transform="translate(93.33 14.548)"/><circle class="j" cx="3.183" cy="3.183" r="3.183" transform="translate(95.136 30.006)"/><circle class="j" cx="2.273" cy="2.273" r="2.273" transform="translate(96.942 98.203)"/><circle class="j" cx="2.273" cy="2.273" r="2.273" transform="translate(96.942 54.557)"/><circle class="j" cx="4.092" cy="4.092" r="4.092" transform="translate(94.227 67.287)"/><circle class="j" cx="1.819" cy="1.819" r="1.819" transform="translate(103.23 63.65)"/><path class="j" d="M112.05,0h.909c2.528,0,4.965.091,7.211.246a4.083,4.083,0,0,1-4.055,3.392A4.083,4.083,0,0,1,112.05,0Z" transform="translate(-11.515 0)"/><circle class="j" cx="2.273" cy="2.273" r="2.273" transform="translate(105.019 90.02)"/><circle class="j" cx="2.273" cy="2.273" r="2.273" transform="translate(105.917 29.097)"/><circle class="j" cx="4.546" cy="4.546" r="4.546" transform="translate(102.296 77.29)"/><circle class="j" cx="4.092" cy="4.092" r="4.092" transform="translate(104.096 98.203)"/><circle class="j" cx="2.273" cy="2.273" r="2.273" transform="translate(107.712 51.829)"/><circle class="j" cx="2.273" cy="2.273" r="2.273" transform="translate(108.609 20.913)"/><circle class="j" cx="4.546" cy="4.546" r="4.546" transform="translate(105.884 8.183)"/><circle class="j" cx="4.546" cy="4.546" r="4.546" transform="translate(106.782 37.281)"/><circle class="j" cx="2.273" cy="2.273" r="2.273" transform="translate(112.199 61.832)"/><circle class="j" cx="2.273" cy="2.273" r="2.273" transform="translate(113.994 91.838)"/><circle class="j" cx="2.273" cy="2.273" r="2.273" transform="translate(114.891 74.562)"/><path class="j" d="M134.728,4.049v4.5a2.482,2.482,0,0,1-.455.045,2.273,2.273,0,0,1,0-4.546,2.482,2.482,0,0,1,.455,0Z" transform="translate(-13.523 -0.367)"/><path class="j" d="M134.546,32v9.093a4.546,4.546,0,0,1,0-9.093Z" transform="translate(-13.332 -2.903)"/><path class="j" d="M134.293,58a2.483,2.483,0,0,1,.455,0v4.546a2.482,2.482,0,0,1-.455,0,2.273,2.273,0,0,1,0-4.546Z" transform="translate(-13.525 -5.26)"/><path class="j" d="M134.293,112a2.484,2.484,0,0,1,.455,0v4.546a2.484,2.484,0,0,1-.455,0,2.273,2.273,0,0,1,0-4.546Z" transform="translate(-13.525 -10.158)"/></g></svg>