<svg xmlns="http://www.w3.org/2000/svg" width="177.778" height="1031.685" viewBox="0 0 177.778 1031.685"><defs><style>.a{fill:#e8e8e8;}</style></defs><g transform="translate(-2048.745 -835.661)"><path class="a" d="M70.291,908.169a2.155,2.155,0,0,0,2.094,1.6,1.119,1.119,0,0,0,.3-.027c.544-.082,1.115-.136,1.686-.19,1.305-.136,2.638-.3,3.97-.571a68.252,68.252,0,0,0,22.163-9.518,82.06,82.06,0,0,0,15.664-12.836,96.683,96.683,0,0,0,12.292-16.017c1.713-2.8,3.535-5.548,5.439-8.213,2.8-3.97,2.855-6.69.163-10.769-.109-.163-.245-.326-.354-.49,1.033-.163,2.121-.272,3.263-.354.408-.027.843-.082,1.251-.109.6-.054,1.115-.082,1.523-.082h0c1.5,0,1.9,0,3.046,3.073a25.334,25.334,0,0,1,1.333,10.66l-.082,1.659c-.272,4.759-.544,9.654-.517,14.522a52.985,52.985,0,0,0,1.061,10.769,30.287,30.287,0,0,0,6.771,14.413,27.2,27.2,0,0,0,13.815,8.185,54.146,54.146,0,0,0,10.687,1.795c2.176.136,4.405.19,6.826.19,2.475,0,5.167-.054,8.158-.19a59.619,59.619,0,0,0,19.743-4.242c6.091-2.448,8.974-4.977,10.633-6.663a8.574,8.574,0,0,0,1.659-10.47,7.066,7.066,0,0,0-.354-.653,4.792,4.792,0,0,1-.381-.734c-.435-1.006-.87-1.985-1.278-2.964-1.088-2.529-2.23-5.14-3.182-7.75-.625-1.74-1.115-3.535-1.632-5.439-.272-1.061-.571-2.121-.9-3.209a7.9,7.9,0,0,0-.789-1.713,13.41,13.41,0,0,1-.653-1.278,2.217,2.217,0,0,0-1.958-1.2,1.114,1.114,0,0,0-.3.027,2.227,2.227,0,0,0-1.849,1.768c-.136.789-.272,1.441-.381,2.012-.218,1.088-.381,1.931-.489,2.8a77.28,77.28,0,0,1-3.263,14.386,12.688,12.688,0,0,1-9.083,8.621l-.489.136a26.814,26.814,0,0,1-3.481.843c-1.088.163-2.176.3-3.345.408-1.006.109-2.04.218-3.1.381a34.461,34.461,0,0,1-5.085.354,57.308,57.308,0,0,1-12.645-1.659c-6.907-1.6-10.9-5.9-12.21-13.162a46.375,46.375,0,0,1,.027-14.032,44.219,44.219,0,0,1,3.7-13.951c.9-1.849,1.414-3.427,1.061-5.085-.326-1.55-1.36-2.8-2.91-4.269.625-.054,1.251-.082,1.931-.109.653-.027,1.333-.054,2.012-.109.381-.027.734-.054,1.061-.054a3.6,3.6,0,0,1,3.617,1.849,4.335,4.335,0,0,0,3.834,2.257,6.855,6.855,0,0,0,2.8-.707,9.141,9.141,0,0,0,4.405-4.3,23.263,23.263,0,0,0,1.333-3.617c1.033-3.617,2.067-7.315,3.073-10.878,1.468-5.221,2.991-10.606,4.514-15.881q.53-1.8.979-3.59c1.523-5.629,2.964-10.932,6.2-15.609a5.684,5.684,0,0,0,1.2-4.324,6.115,6.115,0,0,0-2.5-3.508,21.6,21.6,0,0,0-4.487-2.774c-1.441-.653-2.883-1.2-4.3-1.713-.87-.326-1.795-.653-2.665-1.006a11.821,11.821,0,0,0-4.351-.87,12.662,12.662,0,0,0-5.357,1.278,56.215,56.215,0,0,1-16.4,4.813,25.577,25.577,0,0,0-4.161.952,3.381,3.381,0,0,0-2.339,2.583,3.722,3.722,0,0,0,1.305,3.617,7.035,7.035,0,0,0,4.623,1.659,9.591,9.591,0,0,0,1.713-.163c2.583-.49,5.384-1.115,8.566-1.9,1.061-.245,2.094-.544,3.1-.843,1.5-.435,2.91-.843,4.351-1.115a3.721,3.721,0,0,1,.517-.054c.354,0,.843,0,1.142,1.251a7.957,7.957,0,0,1,.218,2.04v.544c-.027,2.012-.054,3.889-.218,5.792a62.08,62.08,0,0,1-1.006,6.635,1.069,1.069,0,0,1-.109.354,1.232,1.232,0,0,1-.381.027H172a6.963,6.963,0,0,1-1.2-.163,17.037,17.037,0,0,0-1.876-.218h-1.115a15.772,15.772,0,0,0-3.209.272c-4.6.952-9.246,1.985-13.76,2.991l-.707.163a1.364,1.364,0,0,1-.326.054,4.175,4.175,0,0,0-3.7,3.073,2.139,2.139,0,0,0,.68,2.121l.218.19c2.257,2.012,3.046,2.583,6.064,2.638h.952a76.531,76.531,0,0,0,8.376-.462,31.9,31.9,0,0,0,4.025-.734c.87-.19,1.686-.381,2.5-.517.272-.054.517-.109.761-.136a8.283,8.283,0,0,1,1.251-.19h.027a89.945,89.945,0,0,1-4.514,17.7,3.2,3.2,0,0,1-.517.789,19.078,19.078,0,0,0-2.8-.653l-.381-.054a29.925,29.925,0,0,0-4.215-.408c-.354,0-.707,0-1.061.027-2.148.163-4.3.489-6.363.788-.925.136-1.876.272-2.8.408l-.87.109a289.244,289.244,0,0,1-30.022,2.991H117.2a11.573,11.573,0,0,1-1.305-.082,28.63,28.63,0,0,1-.789-6.037,39.061,39.061,0,0,0-.544-5.248,15.289,15.289,0,0,1-.354-4.841c.218-.054.435-.109.625-.136,1.713-.326,3.454-.625,5.112-.924,3.1-.571,6.282-1.142,9.409-1.74a12.313,12.313,0,0,0,3.426-1.305,3.679,3.679,0,0,0,1.931-3.127,3.576,3.576,0,0,0-1.632-3.182,15.7,15.7,0,0,0-4.433-2.094,9.557,9.557,0,0,0-2.665-.354,13.506,13.506,0,0,0-4.6.87c-2.447.843-4.868,1.686-7.342,2.447a5.684,5.684,0,0,1-1.142.218c-1.006-4.895-1.55-9.817-2.094-14.6-.082-.68-.163-1.36-.218-2.067,11.476-7.261,21.918-13.9,31.98-20.26.625-.408,2.583-1.632,2.828-3.753a5.27,5.27,0,0,0-1.795-4.134,22.779,22.779,0,0,0-12.645-6.363,9.833,9.833,0,0,0-1.468-.136h0a4.819,4.819,0,0,0-4.949,4.134c-1.088,4.7-4.106,8.539-6.853,11.775a123.822,123.822,0,0,1-12.536,12.836,4.03,4.03,0,0,1-2.692,1.332,3.118,3.118,0,0,1-.843-.109,13.487,13.487,0,0,0-2.91-.3c-.87,0-1.74.054-2.5.109a3.754,3.754,0,0,0-3.182,2.067,3.9,3.9,0,0,0,.326,3.834c.381.571.816,1.061,1.169,1.5l.082.081a19.9,19.9,0,0,1,4.487,9.056c.109.544.218,1.088.354,1.6.544,2.5,1.088,5.085,1.441,7.641,1.305,9.029,2.475,17.894,3.454,25.372a19.041,19.041,0,0,0,2.611,7.832q1.795,2.855,4.161,2.855c1.6,0,2.964-.979,4.079-2.91a7.02,7.02,0,0,0,.489-1.033,5.439,5.439,0,0,1,.326-.68c.027-.027.054-.081.082-.109.925-.054,1.795-.082,2.665-.082.653,0,1.305.027,1.931.054a16.736,16.736,0,0,1-.245,3.073,32.771,32.771,0,0,1-4.732,10.769A84.084,84.084,0,0,1,98.9,885.6c-9.137,7.968-17.268,13.624-25.535,17.73-.571.272-1.088.571-1.632.87-.218.136-.462.245-.68.381a2.178,2.178,0,0,0-1.061,2.475Z" transform="translate(1986.074 258.276)"/><path class="a" d="M764.264,2251.952a105.658,105.658,0,0,0,16.643-24.529c1.74-3.508,3.454-7.1,5.112-10.579.979-2.066,1.985-4.188,3.019-6.255.136-.272.245-.571.354-.816v-.027c.109.191.217.408.353.68s.272.544.435.816c.979,1.713,1.958,3.481,2.883,5.194.517.925,1.006,1.849,1.523,2.774,8.376,15.093,18.764,30.185,33.666,48.949a18.082,18.082,0,0,0,11.122,6.744,52.268,52.268,0,0,0,9.273,1.006h.19c5.874-.027,11.857-.381,17.486-.707,2.937-.19,5.874-.544,8.729-.925.462-.054.9-.109,1.332-.163a6.687,6.687,0,0,0,2.04-.707c.245-.109.517-.245.789-.354a2.188,2.188,0,0,0,1.115-3.019,9.861,9.861,0,0,0-5.167-4.569l-.136-.054c-1.115-.517-2.23-1.061-3.318-1.6-4.324-2.067-8.784-4.215-13.3-6.173-14-6.037-27.112-15.229-40.03-28.064-4.677-4.65-9.028-9.844-12.863-14.467-2.148-2.556-4.188-5.3-6.2-7.94-1.332-1.8-2.747-3.617-4.161-5.412a3.97,3.97,0,0,1-.653-4.623c1.74-4.025,3.1-8.1,4.106-11.2.571-1.795,1.115-3.617,1.6-5.357a74.355,74.355,0,0,1,4.079-11.639c1.55-3.263.789-6.391-2.148-8.811a35.578,35.578,0,0,0-10.878-5.983,9.254,9.254,0,0,0-2.284-.408,6.65,6.65,0,0,0-.734-.027,5.455,5.455,0,0,0-4.514,1.849,5.64,5.64,0,0,0-.761,4.977,29.023,29.023,0,0,1,.816,10.442c-.3,2.339-.625,4.6-1.033,6.744-2.42,12.971-6.8,26.3-13.379,40.682a124.966,124.966,0,0,1-25.97,36.848,221.034,221.034,0,0,1-18.084,15.909c-.027.027-.082.054-.109.082a3.688,3.688,0,0,0-1.305,1.36,3.271,3.271,0,0,0,.082,3.046,2.175,2.175,0,0,0,1.931,1.2.749.749,0,0,0,.245-.027c.19-.027.408-.027.625-.055a7.713,7.713,0,0,0,2.312-.38c.6-.218,1.224-.435,1.822-.625a44.821,44.821,0,0,0,6.554-2.665A102.4,102.4,0,0,0,764.264,2251.952Z" transform="translate(1325.17 -409.489)"/><path class="a" d="M355.712,1510.07l.027-.054a4.626,4.626,0,0,0-.3-5.874,16.3,16.3,0,0,0-3.753-3.209,46.472,46.472,0,0,0-4.161-2.148c-.6-.272-1.224-.571-1.795-.87a10.077,10.077,0,0,0-4.46-1.088,11.062,11.062,0,0,0-4.079.843c-5.956,2.475-12.237,3.209-18.873,3.97l-2.2.245a6.349,6.349,0,0,1-.789.054c-.408,0-.87-.027-1.333-.054a3.918,3.918,0,0,1-.245-1.033c-.082-3.182-.136-6.935.027-10.742a6.428,6.428,0,0,1,.245-1.985,6.941,6.941,0,0,1,2.23-.408c2.611-.245,5.3-.408,7.913-.544,1.523-.082,3.073-.19,4.623-.3l.218-.027a25.934,25.934,0,0,0,3.97-.49,3.711,3.711,0,0,0,2.583-2.257,3.857,3.857,0,0,0-.354-3.535c-.6-.87-1.224-1.686-1.9-2.556a.828.828,0,0,1-.136-.19c.109-.326.245-.68.354-1.006,1.659-4.7,3.236-9.137,6.391-12.754a18.773,18.773,0,0,0,2.039-2.747,5.049,5.049,0,0,0-.625-6.554,10.756,10.756,0,0,0-2.148-1.795,21.491,21.491,0,0,0-11.068-3.318,18.649,18.649,0,0,0-5.684.9c-1.033.326-2.067.68-3.073,1.006-1.169.381-2.366.789-3.535,1.142-.136.054-.3.082-.435.136a5.741,5.741,0,0,1-1.115.3l.082-1.713c.136-3.263.272-6.663.571-9.953.245-2.692.734-5.466,1.169-8.131.082-.544.19-1.061.272-1.6.19-1.2.68-3.97-1.523-6.01a16.649,16.649,0,0,0-11.258-4.514h-.136a3.9,3.9,0,0,0-2.937,1.251,4.434,4.434,0,0,0-1.088,3.454,13.562,13.562,0,0,0,.354,2.067,47.893,47.893,0,0,1,1.169,12.4c-.027,2.475-.027,5-.027,7.451v4.623c0,.9,0,1.768-.054,2.583a4.737,4.737,0,0,1-.218,1.332,3.575,3.575,0,0,1-1.033.326c-2.04.435-4.215.816-7.1,1.169h-.082c-.109,0-.245-.027-.381-.027a2.826,2.826,0,0,1-.054-.408c0-1.577.054-3.127.163-4.569.163-1.931.354-4.161.68-6.336.816-5.411-1.523-9.382-6.771-11.53-.245-.109-.462-.19-.734-.326a13.21,13.21,0,0,0-2.42-.9,8.306,8.306,0,0,0-2.067-.218c-.381,0-.816.027-1.224.054a4.176,4.176,0,0,0-2.828,1.55,4.055,4.055,0,0,0-.87,3.018,13.094,13.094,0,0,0,.9,3.481c1.849,4.487,2.611,9.491,2.42,15.718a9.045,9.045,0,0,1-.163,1.822,6.22,6.22,0,0,1-1.577.3c-1.632.218-3.318.381-4.949.517-.761.054-1.55.136-2.312.218-.843.082-1.659.163-2.719.272l-1.876.19a2.174,2.174,0,0,0-1.6,3.345c.245.381.435.68.6.952a6.431,6.431,0,0,0,1.088,1.468,9.083,9.083,0,0,0,6.255,2.312h.571c.761,0,1.523,0,2.257-.027.707,0,1.468-.027,2.176-.027h.19a10.976,10.976,0,0,1,1.931.109,9.829,9.829,0,0,1,.163,2.067c.054,2.42.027,4.922.027,7.315v.435a13.031,13.031,0,0,1-.272,3.345,13.679,13.679,0,0,1-3.426.653c-2.611.3-5.276.544-7.886.789-1.115.109-2.2.191-3.318.3-.3.027-.626.054-.952.082-.571.027-1.142.082-1.74.163-3.154.408-3.726,2.5-3.807,3.372a4.931,4.931,0,0,0,.653,2.692l.163.326a3.493,3.493,0,0,0,1.441,1.55c1.441.925,2.04,2.393,2.094,5.058.109,6.336-1.577,10.8-5.248,14.087-2.067,1.849-3.426,3.209-3.508,5.194-.082,1.9,1.088,3.617,2.91,6.01a5.986,5.986,0,0,0,4.732,2.774,7.792,7.792,0,0,0,3.671-1.088,12.088,12.088,0,0,0,1.224-.734c.353-.218.68-.435.952-.571.707-.354,1.414-.68,2.121-1.033,2.23-1.088,4.514-2.2,6.8-3.127.408-.163.734-.3,1.006-.381-.027.245-.082.571-.163.952-2.257,11.557-5.548,25.019-12.836,37.337-.326.544-.571,1.061-.87,1.686-.136.326-.326.68-.517,1.061a2.177,2.177,0,0,0,.245,2.284,2.151,2.151,0,0,0,1.713.843,2.4,2.4,0,0,0,.435-.054,9.889,9.889,0,0,0,5.412-3.209l.109-.109a51.836,51.836,0,0,0,9.164-12.319,88.782,88.782,0,0,0,7.669-21.32c.761-3.182,1.333-6.418,1.849-9.518.19-1.169.626-1.305,1.251-1.414.6-.109,1.169-.19,1.768-.3,2.774-.462,5.629-.952,8.43-1.332a1.375,1.375,0,0,1,.245.054v.245c.054,1.2.109,2.339.109,3.454v14.25c0,9.165-.027,18.628.054,27.956.027,4.215.3,8.484.544,12.591.082,1.2.136,2.393.218,3.563a11.756,11.756,0,0,0,.816,3.617,5.454,5.454,0,0,0,1.36,1.849l.544.544a2.185,2.185,0,0,0,1.632.734h.136a2.169,2.169,0,0,0,1.659-.925,6.825,6.825,0,0,1,.517-.653,5.3,5.3,0,0,0,1.169-2.04c.19-.68.381-1.414.571-2.094a40.413,40.413,0,0,0,1.523-7.125c1.033-12.02,2.012-24.964,1.958-37.936-.027-3.644,0-7.37.027-10.959,0-1.55.027-3.127.027-4.677v-.68c0-.625,0-1.224.027-1.795a4.519,4.519,0,0,1,.3-1.822c.054-.054.354-.218,1.632-.381.326-.054.625-.081.952-.136a45.01,45.01,0,0,1,4.868-.517l1.251-.027c2.611-.082,5.3-.163,7.941-.163,1.468,0,2.828.027,4.106.082a3.535,3.535,0,0,1,2.257.625c.245.272.517.9.489,2.5a29.738,29.738,0,0,1-4.3,14.63,2.5,2.5,0,0,1-2.311,1.469,3.666,3.666,0,0,1-.9-.109c-.925-.19-1.822-.462-2.774-.734-.707-.19-1.468-.408-2.2-.6-.843-.218-1.686-.381-2.747-.6-.544-.109-1.142-.245-1.822-.381a2.736,2.736,0,0,0-.435-.054,2.227,2.227,0,0,0-1.849,1.006,2.171,2.171,0,0,0,.109,2.475c.381.49.68.87.925,1.2.435.571.761.979,1.061,1.387.489.653.979,1.306,1.441,1.985,1.632,2.2,3.318,4.487,4.922,6.744.3.435.6.952.9,1.5a16.076,16.076,0,0,0,.843,1.414c1.333,2.04,2.937,4.215,5.52,4.215,1.795,0,3.372-1.033,5.248-2.611a27.062,27.062,0,0,0,8.43-13.38c.816-2.774,1.577-5.765,2.42-9.382,1.142-5,2.284-9.11,5.357-12.292C355.467,1510.451,355.63,1510.206,355.712,1510.07Zm-41.824-45.931a3.178,3.178,0,0,1,.136-.979,2.278,2.278,0,0,1,.734-.163,61.224,61.224,0,0,1,7.4-.381h.952c.082,0,.163,0,.19.027a3.635,3.635,0,0,1,.136.544,5.5,5.5,0,0,1,.027,1.142c-.544,3.154-1.115,6.227-1.74,9.328a1.716,1.716,0,0,1-1.659,1.632c-.68.109-1.36.218-2.012.354a21.769,21.769,0,0,1-4.161.517h-.027c0-.49,0-.952-.027-1.441C313.833,1471.21,313.806,1467.647,313.887,1464.139Zm-23.6,40.465c.163-3.453.408-7.152.734-11.639a5.172,5.172,0,0,1,.3-1.795,4.872,4.872,0,0,1,1.74-.462c2.23-.354,4.7-.626,7.56-.843h.19v.163c.082,4.378.054,8.838,0,13.162v.218c0,.136-.027.218-.027.272-.381.082-.734.19-1.115.272a36.5,36.5,0,0,1-8.974,1.523h-.326A4.943,4.943,0,0,1,290.283,1504.6Zm10.578-27a3.776,3.776,0,0,1-.136,1.169,3.817,3.817,0,0,1-1.006.272c-.952.163-1.9.354-2.8.571a23.008,23.008,0,0,1-4.841.734h-.408v-1.224c.027-3.617.054-7.342.19-10.986a6.8,6.8,0,0,1,.109-1.088,6.792,6.792,0,0,1,1.169-.3c.68-.136,1.332-.272,1.985-.435a23.969,23.969,0,0,1,5.112-.761h.408a5.472,5.472,0,0,1,.218.925C300.916,1470.72,300.943,1474.256,300.861,1477.6Zm-21.782,14.984c.027.081.027.19.054.326a17.871,17.871,0,0,1,.027,2.692c-.272,3.753-.571,7.533-.87,11.231l-.027.381c-.054.789-.354.87-.625.925a41.919,41.919,0,0,1-5.194,1.142c-.082,0-.163.027-.218.027h-.163a1.39,1.39,0,0,1-.109-.49,18.636,18.636,0,0,1,0-4.269,29.28,29.28,0,0,1,1.061-5.14c.489-1.659,1.061-3.318,1.686-5.085.163-.435.3-.87.462-1.305.136-.027.245-.027.381-.054,1.2-.163,2.339-.3,3.426-.381Z" transform="translate(1858.423 -219.185)"/><path class="a" d="M34.663,1551.767h.19a1.218,1.218,0,0,0,.3-.027,5.057,5.057,0,0,0,1.333-.19,73.444,73.444,0,0,0,35.951-22.381c1.36-1.55,2.692-3.155,4-4.732.843-1.006,1.713-2.067,2.583-3.073v.3c-.027,1.251-.082,2.475-.109,3.726-.109,4.46-.245,9.056-.571,13.543-.435,5.955-1.088,12.156-1.931,18.438a37.241,37.241,0,0,1-2.04,7.478c-.354.979-1.142,2.312-3.78,2.393h-.544a31.214,31.214,0,0,1-7.859-1.2c-.272-.054-.544-.163-.843-.245a10.5,10.5,0,0,0-3.29-.653h-.408a2.171,2.171,0,0,0-1.686,3.372c.136.19.218.354.326.49a8.381,8.381,0,0,0,.707,1.006c1.632,1.849,3.236,3.726,4.868,5.575,2.339,2.665,4.759,5.439,7.125,8.185,1.224,1.387,2.91,2.991,5.248,2.991a7.782,7.782,0,0,0,4.759-2.012,23.232,23.232,0,0,0,6.5-7.587,39.352,39.352,0,0,0,4.3-13.053c.979-7.56,1.577-13.787,1.849-19.607.272-5.548.19-11.15.136-16.588-.027-1.17-.027-2.366-.027-3.535a136.83,136.83,0,0,0-2.8-25.426,48.572,48.572,0,0,0-6.119-16.072,20.057,20.057,0,0,1-.979-1.876v-.027a6.025,6.025,0,0,1,.381-.653c5.14-6.363,10.388-12.836,15.283-18.9,1.822-2.23,2.583-4.324.408-7.315a20.713,20.713,0,0,0-9.464-7.315,7.952,7.952,0,0,0-2.91-.6c-1.061,0-4.569.381-4.949,5.3,0,.027-.027.136-.027.218a3.176,3.176,0,0,0-.082.6c-.68,6.69-4.079,12.047-8.457,18.329-.68-.408-1.333-.816-2.012-1.224-1.224-.761-2.447-1.5-3.671-2.257-2.91-1.795-5.955-3.671-8.947-5.466a2.41,2.41,0,0,0-.272-.163,5.093,5.093,0,0,0-2.8-1.006,4.037,4.037,0,0,0-2.719,1.088,2.139,2.139,0,0,0-.707,2.067,7.667,7.667,0,0,0,3.236,4.46c.272.19.517.408.734.571,1.305,1.142,2.665,2.257,3.97,3.345,1.768,1.469,3.59,2.964,5.276,4.514a21.716,21.716,0,0,1,2.094,2.04,19.626,19.626,0,0,1-1.74,2.257,175.876,175.876,0,0,1-19.96,20.069c-.082.082-.218.163-.354.272a4.89,4.89,0,0,0-2.339,4.161,2.257,2.257,0,0,0,.789,1.686,2.161,2.161,0,0,0,1.387.49,2.056,2.056,0,0,0,.408-.027,27.133,27.133,0,0,0,8.131-3.155c5.983-3.263,12.917-7.37,18.927-13.3l.109-.109a9.4,9.4,0,0,1,2.2-1.795,1.217,1.217,0,0,1,.272.354c4.052,8.865,4.378,10.279-.6,18.111a108.346,108.346,0,0,1-7.288,9.953c-4.6,5.684-9.219,11.15-14.957,15.609-2.583,2.012-5.221,4.025-7.777,5.983-2.855,2.2-5.82,4.46-8.729,6.717-.027.027-.109.054-.19.109a4.17,4.17,0,0,0-1.441,1.142,3.219,3.219,0,0,0-.489,2.991A2.173,2.173,0,0,0,34.663,1551.767Z" transform="translate(2019.381 -237.387)"/><path class="a" d="M357.353,2815.82c2.611-.435,5.276-.843,7.859-1.2,1.795-.272,3.617-.544,5.439-.816a23.919,23.919,0,0,0,9.844-3.481c1.876-1.278,2.855-2.747,2.855-4.378,0-1.6-.9-3.073-2.692-4.324a14.069,14.069,0,0,0-8.185-2.828,12.811,12.811,0,0,0-3.481.489c-4.732,1.333-9.763,2.692-16.316,4.406-7.261,1.9-14,3.617-20.613,5.248-.272.082-.544.136-.789.218l-.245.082c.054-.109.136-.218.19-.354,1.006-1.985,2.039-4,3.046-5.956,1.795-3.508,3.644-7.125,5.439-10.714,1.305-2.638,2.611-5.33,3.889-7.913,1.414-2.91,2.883-5.9,4.351-8.838a7.357,7.357,0,0,0-.9-8.4,22.181,22.181,0,0,0-7.968-6.064,9.915,9.915,0,0,0-4.215-1.2,4.092,4.092,0,0,0-3.7,2.148,9.573,9.573,0,0,0-1.033,4.188,82.836,82.836,0,0,1-5.112,22.218A184.077,184.077,0,0,1,310.58,2819c-2.638,4.405-5.466,8.811-8.213,13.08-1.333,2.067-2.692,4.215-4.052,6.336-.027.054-.109.136-.163.245a4.834,4.834,0,0,0-.87,1.686,3.327,3.327,0,0,0,.789,2.964,2.1,2.1,0,0,0,1.441.762,4.031,4.031,0,0,0,.571.027,6.849,6.849,0,0,0,4.3-1.849c.163-.109.3-.245.462-.353a68.077,68.077,0,0,0,12.536-12.183c2.5-3.155,4.841-6.5,6.989-9.627a2.191,2.191,0,0,1,2.148-1.2h.3c1.713.082,3.726.19,5.792.19,1.795,0,3.4-.082,4.922-.218a9.288,9.288,0,0,1,1.142-.054c.68,0,.9.081.925.136a7.306,7.306,0,0,1,.761,2.067l.082.3a26.318,26.318,0,0,1,.952,4.052c.163,1.2.326,2.42.49,3.59a104.153,104.153,0,0,1,1.169,10.85,363.568,363.568,0,0,1-.761,39.3,22.508,22.508,0,0,1-1.142,4.976,1.1,1.1,0,0,1-1.169.9h-.245a46.15,46.15,0,0,1-4.895-.68c-2.067-.462-4.161-.979-6.2-1.468-1.414-.354-2.883-.707-4.351-1.061a.97.97,0,0,0-.272-.054,6.468,6.468,0,0,0-1.632-.245,4.092,4.092,0,0,0-3.236,1.6,2.178,2.178,0,0,0,0,2.8,4.648,4.648,0,0,1,.272.381,7.068,7.068,0,0,0,1.332,1.441c5.765,4.378,11.829,9.273,16.969,15.419a7.856,7.856,0,0,0,6.119,3.155,9.039,9.039,0,0,0,5.765-2.339,18.152,18.152,0,0,0,6.255-11.395,67.692,67.692,0,0,0,.979-13.407c-.272-7.424-.571-14.957-.843-22.245l-.19-5.113a8.451,8.451,0,0,0-.082-.9c-.027-.163-.027-.326-.054-.463-.571-8.267-1.006-17.894.761-27.167a8.915,8.915,0,0,0-1.115-7.043c.3-.054.625-.082.952-.136A4.53,4.53,0,0,1,357.353,2815.82Z" transform="translate(1826.596 -1193.766)"/><path class="a" d="M54.475,2866.239c3.59-2.692,7.315-5.466,10.742-8.539a87.3,87.3,0,0,0,6.771-7.1c.734-.843,1.523-1.713,2.284-2.556.9-.979,1.278-1.251,1.9-1.251h.082c1.795.054,3.726.082,5.9.082,1.115,0,2.311,0,3.753-.027h.027c.571,0,.653.136.761.517s.218.789.354,1.2a20.248,20.248,0,0,1,.952,4.27c.408,6.418.68,12.944.816,19.444a41.87,41.87,0,0,1-.245,4.433c-.109,1.36-.245,2.747-.272,4.161a58.114,58.114,0,0,1-1.985,15.337,28.089,28.089,0,0,0-.789,10.28,16.857,16.857,0,0,0,3.318,8.729,5.305,5.305,0,0,0,4.161,2.2,5.071,5.071,0,0,0,3.671-1.659,16.2,16.2,0,0,0,2.937-4.623,22.781,22.781,0,0,0,1.305-8.974c0-3.263,0-6.608.027-9.817.027-7.179.054-14.6-.054-21.918-.109-9.192,1.224-14.005,2.393-17.16.163-.462.272-.9.381-1.278.054-.191.082-.381.136-.544a7.191,7.191,0,0,0-1.849-7.288h0c1.088-.272,2.2-.517,3.29-.761,1.169-.245,2.366-.517,3.535-.816l.925-.218c3.454-.816,7.016-1.659,10.524-2.611a16.614,16.614,0,0,0,4.106-1.74,4.464,4.464,0,0,0,2.339-3.78,4.4,4.4,0,0,0-2.393-3.78,14.821,14.821,0,0,0-7.451-2.121,13.551,13.551,0,0,0-4.786.9c-8.947,3.318-18.519,5.357-27.765,7.342l-.9.19-.245.054c-.082.027-.163.027-.245.054v-.027c.843-1.278,1.713-2.556,2.556-3.807L87,2830.75c2.747-4.079,5.112-8.43,7.4-12.618a131.573,131.573,0,0,1,8.512-14.2,6.011,6.011,0,0,0-.19-7.424,22.7,22.7,0,0,0-10.279-7.56,5.8,5.8,0,0,0-1.305-.3h-.054a4.674,4.674,0,0,0-.87-.054h0a4.607,4.607,0,0,0-4.569,3.4,19.077,19.077,0,0,0-.816,4.324,48.378,48.378,0,0,1-4.732,17.159A178.2,178.2,0,0,1,62.307,2843.8c-4.813,6.635-10.171,13.325-15.881,19.879a1.635,1.635,0,0,1-.218.218,3.6,3.6,0,0,0-1.088,4.269,2.176,2.176,0,0,0,1.985,1.278h.19c.245-.027.462-.027.653-.054a7.431,7.431,0,0,0,5.167-1.985A7.421,7.421,0,0,1,54.475,2866.239Z" transform="translate(2010.365 -1214.734)"/><path class="a" d="M1834.505,2958.242c-2.556-1.251-4.922-2.339-7.234-3.318a16.061,16.061,0,0,0-6.2-1.224,18.876,18.876,0,0,0-4.487.544c-6.173,1.414-12.836,2.774-20.341,4.215-13.951,2.637-25.508,4.732-36.3,6.635-4.3.762-8.7,1.414-12.972,2.067-2.91.435-5.928.9-8.892,1.387a8.469,8.469,0,0,0-2.448.87c-.354.163-.707.354-1.115.517a2.22,2.22,0,0,0-1.306,1.632,2.191,2.191,0,0,0,.68,1.985c4.134,3.753,8.158,5.52,12.618,5.52a20.644,20.644,0,0,0,4.65-.571c7.859-1.822,15.963-3.7,24.121-5.167.925-.163,1.713-.326,2.393-.49a13.214,13.214,0,0,1,2.094-.354,24.889,24.889,0,0,1,1.414,4.623c1.5,6.391,1.876,13.026,2.176,19.852.19,4.677.109,9.382,0,13.76-.19,7.016-.462,14.141-.816,21.211a20.5,20.5,0,0,1-.952,4.977c-.49,1.523-.843,1.523-1.333,1.523a6.229,6.229,0,0,1-1.088-.136,53.019,53.019,0,0,1-5.221-1.523c-.272-.082-.544-.19-.816-.272-.625-.19-1.251-.435-1.9-.707-.843-.326-1.713-.68-2.638-.952a19.32,19.32,0,0,0-2.665-.49c-.435-.054-.9-.109-1.414-.19a1.327,1.327,0,0,0-.326-.027,2.182,2.182,0,0,0-1.795.952,2.155,2.155,0,0,0-.082,2.312,6.129,6.129,0,0,1,.435.816,5.952,5.952,0,0,0,1.061,1.577,130.858,130.858,0,0,1,15.446,17.132c1.5,2.012,3.127,2.991,5,2.991a7.894,7.894,0,0,0,4.786-1.985c3.97-3.046,6.309-7.234,7.179-12.863a111.237,111.237,0,0,0,.625-23.441c-.109-1.713-.218-3.454-.326-5.167-.6-9.763-1.224-19.879-1.006-29.8a56.7,56.7,0,0,1,.87-9.137,17.67,17.67,0,0,0,.054-7.478,3.4,3.4,0,0,1,.789-.163c5.765-.49,10.443-.816,14.685-1.061,2.42-.136,4.868-.245,7.261-.353,2.883-.136,5.874-.245,8.811-.435A25.035,25.035,0,0,0,1833.2,2967l.272-.082c3.182-.843,3.834-3.019,3.916-4.215C1837.469,2961.614,1837.224,2959.6,1834.505,2958.242Z" transform="translate(389.123 -2074.937)"/><path class="a" d="M1573.845,2954.677a6.435,6.435,0,0,0-3.807-4.786,45.4,45.4,0,0,0-9.028-3.073,6.43,6.43,0,0,0-1.55-.218c-2.447,0-4.106,1.686-4.405,4.514a22.807,22.807,0,0,1-4.242,10.578c-.517.734-1.033,1.469-1.523,2.23-2.529,3.7-5.167,7.505-8.05,10.959a209.664,209.664,0,0,1-28.336,28.146,12.385,12.385,0,0,0-1.224,1.2c-.245.272-.544.6-.952.979a2.181,2.181,0,0,0-.354,2.583,2.141,2.141,0,0,0,1.9,1.115,2.981,2.981,0,0,0,.489-.055c.517-.109.925-.19,1.251-.272a7.363,7.363,0,0,0,1.659-.462,72.145,72.145,0,0,0,15.664-9.463c1.36-1.115,2.774-2.23,4.161-3.291a141.389,141.389,0,0,0,12.971-11.1,1.068,1.068,0,0,1,.082.381c.082.653.19,1.305.3,1.958a42.313,42.313,0,0,1,.68,6.771c-.082,6.146-.381,12.509-.9,18.954-.326,4-.87,8.186-2.747,11.775-2.311,4.433-2.339,9.137-.054,14.385.653,1.5,1.387,3.209,2.2,4.841a13.383,13.383,0,0,0,1.767,2.611,4.075,4.075,0,0,0,3.073,1.441,3.988,3.988,0,0,0,3.345-1.877,20.3,20.3,0,0,0,1.768-3.453,42.435,42.435,0,0,0,2.61-14.821c.054-2.883.082-5.819.109-8.675.027-3.862.054-7.832.19-11.721a152.346,152.346,0,0,1,1.278-16.181,14.314,14.314,0,0,0-2.692-11.421c-.734-.979-1.441-1.985-2.2-3.073-.109-.163-.218-.327-.326-.462a24.835,24.835,0,0,1,3.97-4.949c2.638-2.611,5.411-5.194,8.077-7.7l2.284-2.121A7.3,7.3,0,0,0,1573.845,2954.677Z" transform="translate(551.531 -2069.768)"/><path class="a" d="M1625.935,2802.706a21.348,21.348,0,0,0-7.777-6.363,8.413,8.413,0,0,0-3.7-1.142,3.874,3.874,0,0,0-3.209,1.659,7.837,7.837,0,0,0-1.224,3.59,23.3,23.3,0,0,1-2.91,8.62c-4.677,8.213-11.15,16.126-20.423,24.991-1.169,1.115-2.339,2.2-3.7,3.453-.68.626-1.387,1.278-2.148,1.985a2.19,2.19,0,0,0-.6,2.23,2.218,2.218,0,0,0,1.74,1.523,4.53,4.53,0,0,0,.87.054,12.427,12.427,0,0,0,4.46-.952c8.974-4.188,17.241-10.361,25.263-18.791,3.1-3.291,6.119-6.717,9.056-10.062,1.305-1.5,2.665-3.046,4.025-4.569A4.469,4.469,0,0,0,1625.935,2802.706Z" transform="translate(500.529 -1959.539)"/><path class="a" d="M1810.917,2853.413a32.4,32.4,0,0,0,7.778.952,32.064,32.064,0,0,0,4.242-.272l1.278-.163c3.29-.408,6.662-.843,10.008-1.441,6.8-1.2,13.678-2.556,20.069-3.807a22.808,22.808,0,0,0,4.569-1.468c2.692-1.169,3.182-2.937,3.263-3.889.054-.925-.19-2.665-2.556-4.079a36.266,36.266,0,0,0-5.14-2.366l-.3-.109a11.57,11.57,0,0,0-4.324-.87,11.87,11.87,0,0,0-4.46.9,54.061,54.061,0,0,1-6.336,2.094,207.387,207.387,0,0,1-27.33,5.548c-.136.027-.272.027-.408.055a9.427,9.427,0,0,0-5.439,2.039,2.178,2.178,0,0,0-.3,3.019C1807.709,2852.325,1808.117,2852.706,1810.917,2853.413Z" transform="translate(336.785 -1989.171)"/><path class="a" d="M48.166,2192.3c5.357-1.169,11.721-2.5,18.193-3.454,7.75-1.142,15.99-2.121,24.475-2.91.68-.055,1.224-.109,1.632-.109a4.4,4.4,0,0,1,.816.054,9.755,9.755,0,0,1,.245,2.692c.054,2.638.027,5.33.027,7.913v5.085c.027,3.154.027,6.281.054,9.436.054,11.721.109,23.876.245,35.788a39.737,39.737,0,0,0,.843,6.771l.245,1.305a4.576,4.576,0,0,0,1.251,2.23,4.9,4.9,0,0,1,.489.626,2.149,2.149,0,0,0,1.686.9h.082a2.174,2.174,0,0,0,1.659-.761c.19-.245.408-.435.625-.68a5.569,5.569,0,0,0,1.523-2.148c.136-.353.245-.707.381-1.061a30.856,30.856,0,0,0,1.795-6.445l.027-.19c.816-5.928,1.632-12.047,1.876-18.139.354-8.648.517-17.431.653-25.916.054-3.345.109-6.8.19-10.2.027-.87.027-1.767.027-2.638,0-1.468,0-2.855.082-4.269a4.7,4.7,0,0,1,.136-1.142,5.79,5.79,0,0,1,1.006-.19l.6-.082c2.148-.272,4.405-.544,6.554-.6,11.313-.272,22.816-.517,33.938-.734l4.269-.082c.653,0,1.333-.027,2.176-.027h6.88c2.583,0,5.276,0,7.941-.082a17.981,17.981,0,0,0,4.378-.734,4.036,4.036,0,0,0,2.556-2.284,4.344,4.344,0,0,0-.3-3.7,10.908,10.908,0,0,0-5.194-4.6c-1.931-.87-3.916-1.577-5.82-2.284-.789-.3-1.577-.571-2.366-.87a12.917,12.917,0,0,0-4.65-.843,14.188,14.188,0,0,0-2.991.326,307.556,307.556,0,0,1-31.164,4.541c-5,.517-9.627.87-14.168,1.088-.707.027-1.441.054-2.067.054a5.767,5.767,0,0,1-1.468-.109,18.05,18.05,0,0,1-.19-3.4c0-2.611.027-5.276.054-7.859.027-2.557.054-5.194.054-7.8,0-8.185.163-16.887,2.284-25.372a13.246,13.246,0,0,0,.245-1.577v-.027a6.6,6.6,0,0,0-3.155-6.5c-.435-.272-.87-.489-1.278-.707h.082c8.566-1.2,16.452-2.339,24.094-3.481a18.676,18.676,0,0,0,3.834-1.033,4.559,4.559,0,0,0,3.073-3.562,4.474,4.474,0,0,0-1.958-4.188,11.269,11.269,0,0,0-1.659-1.006l-.136-.055a18.03,18.03,0,0,0-8.4-2.067,22.606,22.606,0,0,0-5.82.789c-14.658,3.7-29.941,5.684-44.272,7.26-2.067.218-4.079.489-6.2.789-.979.136-1.958.245-2.937.381a2.2,2.2,0,0,0-1.9,2.012,4.866,4.866,0,0,0,3.454,5.384,20.408,20.408,0,0,0,6.146,1.333h1.006c3.019,0,6.064-.136,9.028-.272,1.169-.054,2.366-.109,3.535-.136.653-.027,1.305-.054,1.931-.109.952-.054,1.876-.108,2.774-.108.082,0,.109,0,.136.027a.387.387,0,0,1,.082.19l.245.734a11.739,11.739,0,0,1,.625,2.176c.109.979.245,1.958.381,2.883a84.813,84.813,0,0,1,.9,9.382c.136,7.968.109,16.1.082,23.958,0,2.964-.027,6.037-.027,9.056v.381a23.738,23.738,0,0,1-.082,2.448,6.116,6.116,0,0,1-.218,1.278,3.673,3.673,0,0,1-1.088.3,25.519,25.519,0,0,1-2.665.326c-.354.027-.68.054-1.033.109-2.121.217-4.269.408-6.363.6-4.6.408-9.355.843-14.032,1.523a215.6,215.6,0,0,1-31.192,2.366H35.792a38.61,38.61,0,0,0-4.868.245c-.163.027-.326.027-.489.054a8.107,8.107,0,0,0-2.556.571,3.976,3.976,0,0,0-2.284,3.182c-.381,2.91,2.094,4.215,3.29,4.84.082.054.163.082.245.136a28.665,28.665,0,0,0,13.651,3.7A33.887,33.887,0,0,0,48.166,2192.3Z" transform="translate(2024.37 -717.178)"/><path class="a" d="M389.163,2187.109a53.871,53.871,0,0,0-6.248-2.8,4.454,4.454,0,0,0-1.849-.408,3.958,3.958,0,0,0-3.562,2.312,14.337,14.337,0,0,0-.707,1.714c-.109.3-.218.571-.326.843-.381.925-.761,1.849-1.115,2.774a43.349,43.349,0,0,1-2.556,5.792c-.489.87-.952,1.74-1.441,2.61-3.481,6.309-7.07,12.863-11.422,18.71a7.227,7.227,0,0,0-.68,1.2l-.408.816a2.152,2.152,0,0,0,.109,2.176,2.18,2.18,0,0,0,1.822,1.006h.082a9.238,9.238,0,0,0,5.548-2.23c.136-.081.245-.19.381-.272,8.185-5.928,16.235-12.346,23.9-19.117a18.484,18.484,0,0,0,2.067-2.067c2.774-3.29,2.692-6.472-.245-9.436C391.263,2189.366,390.795,2188.17,389.163,2187.109Z" transform="translate(1786.891 -774.476)"/><path class="a" d="M132.6,2222.009a2.153,2.153,0,0,0-1.686.816,2.191,2.191,0,0,0-.435,1.822c.082.354.136.707.19,1.006a9.61,9.61,0,0,0,.571,2.23c1.278,2.855,2.366,5.139,3.426,7.179,2.393,4.6,4.405,8.4,6.663,12.292a17.531,17.531,0,0,0,3.807,4.514,5.508,5.508,0,0,0,3.59,1.387,5.773,5.773,0,0,0,4.868-2.964,7.05,7.05,0,0,0,1.115-2.937c.435-4.976.381-12.237-5.439-17.812a33.786,33.786,0,0,0-12.754-7.37,5.522,5.522,0,0,0-1.713-.272c-.381,0-.734.027-1.088.055C133.3,2221.982,132.949,2222.009,132.6,2222.009Z" transform="translate(1948.017 -802.143)"/></g></svg>