<svg xmlns="http://www.w3.org/2000/svg" xmlns:xlink="http://www.w3.org/1999/xlink" width="220.68" height="114.498" viewBox="0 0 220.68 114.498"><defs><style>.a{stroke:#000;stroke-miterlimit:10;}.b{fill:url(#c);}.c{filter:url(#l);}.d{filter:url(#j);}.e{filter:url(#h);}.f{filter:url(#f);}.g{filter:url(#d);}.h{filter:url(#a);}</style><filter id="a" x="20.357" y="19.633" width="83.617" height="94.865" filterUnits="userSpaceOnUse"><feOffset dy="3" input="SourceAlpha"/><feGaussianBlur stdDeviation="5" result="b"/><feFlood flood-opacity="0.302"/><feComposite operator="in" in2="b"/><feComposite in="SourceGraphic"/></filter><linearGradient id="c" x1="0.821" y1="0.883" x2="0.179" y2="0.117" gradientUnits="objectBoundingBox"><stop offset="0" stop-color="#f9c41c"/><stop offset="1" stop-color="#f78c0d"/></linearGradient><filter id="d" x="0" y="0" width="95.725" height="95.725" filterUnits="userSpaceOnUse"><feOffset dy="3" input="SourceAlpha"/><feGaussianBlur stdDeviation="5" result="e"/><feFlood flood-opacity="0.302"/><feComposite operator="in" in2="e"/><feComposite in="SourceGraphic"/></filter><filter id="f" x="22.907" y="17.479" width="84.377" height="94.241" filterUnits="userSpaceOnUse"><feOffset dy="3" input="SourceAlpha"/><feGaussianBlur stdDeviation="5" result="g"/><feFlood flood-opacity="0.302"/><feComposite operator="in" in2="g"/><feComposite in="SourceGraphic"/></filter><filter id="h" x="76.578" y="12.448" width="72.81" height="80.06" filterUnits="userSpaceOnUse"><feOffset dy="3" input="SourceAlpha"/><feGaussianBlur stdDeviation="5" result="i"/><feFlood flood-opacity="0.302"/><feComposite operator="in" in2="i"/><feComposite in="SourceGraphic"/></filter><filter id="j" x="122.784" y="11.373" width="56.399" height="78.038" filterUnits="userSpaceOnUse"><feOffset dy="3" input="SourceAlpha"/><feGaussianBlur stdDeviation="5" result="k"/><feFlood flood-opacity="0.302"/><feComposite operator="in" in2="k"/><feComposite in="SourceGraphic"/></filter><filter id="l" x="152.595" y="12.237" width="68.086" height="70.479" filterUnits="userSpaceOnUse"><feOffset dy="3" input="SourceAlpha"/><feGaussianBlur stdDeviation="5" result="m"/><feFlood flood-opacity="0.302"/><feComposite operator="in" in2="m"/><feComposite in="SourceGraphic"/></filter></defs><g transform="translate(15 12)"><g class="h" transform="matrix(1, 0, 0, 1, -15, -12)"><path class="a" d="M91.979,102.975,40.92,39.963l.535-.443,51.676,62.509Z" transform="translate(-4.86 -7.18)"/></g><g class="g" transform="matrix(1, 0, 0, 1, -15, -12)"><circle class="b" cx="32.862" cy="32.862" r="32.862" transform="translate(15 12)"/></g><g class="f" transform="matrix(1, 0, 0, 1, -15, -12)"><path class="a" d="M97.706,98.163,45.88,35.773l.53-.443L98.848,97.2Z" transform="translate(-7.27 -5.15)"/></g><g class="e" transform="matrix(1, 0, 0, 1, -15, -12)"><path d="M148.81,70.314l2.11,3.937a18.632,18.632,0,0,0,6.324-5.2A29.31,29.31,0,0,0,163.291,58.5a47.663,47.663,0,0,0,1.992-9.813,64.8,64.8,0,0,0,.118-8.609c-.139-2.949-.314-6.4-.314-6.4h6.463V62.353h5.033V33.674h7.554V63.233h5.146V33.674h2.336V28.58H164.15a12.738,12.738,0,0,0-.35-1.992,16.787,16.787,0,0,0-.88-2.4L158.8,25.42a15.309,15.309,0,0,1,.6,1.544,4.446,4.446,0,0,1,.309,1.657h-3.191v5.012h3.6s.484,3.4.648,6.062a54.694,54.694,0,0,1-.031,8.707,36.768,36.768,0,0,1-3.088,11.321,22.55,22.55,0,0,1-4.194,6.391,32.419,32.419,0,0,1-4.652,4.2Z" transform="translate(-57.23 0.26)"/></g><g class="d" transform="matrix(1, 0, 0, 1, -15, -12)"><path d="M240.113,65.666l1.374,4.472a25.73,25.73,0,0,0,7.354-4.184,32.157,32.157,0,0,0,7.5-9.232,48.171,48.171,0,0,0,4.724-11.836,42.715,42.715,0,0,0,1.287-7.657c.2-2.146.154-4.606.154-4.606H265V27.653h-2.166V22.1H258v5.481H238.6v5.048h18.9s0,3.175-.216,5.553a45.863,45.863,0,0,1-2.007,9.6,44.682,44.682,0,0,1-4.4,8.872,23.239,23.239,0,0,1-5.414,5.769C243.988,63.531,240.113,65.666,240.113,65.666Z" transform="translate(-100.82 1.27)"/></g><g class="c" transform="matrix(1, 0, 0, 1, -15, -12)"><path d="M301.918,64.259H306.9V33.516h19.714a20.683,20.683,0,0,1-2.136,4.986,20.584,20.584,0,0,1-5.4,6.288,18.484,18.484,0,0,1-5.28,3.324,24.907,24.907,0,0,1-4.513,1.07l.767,4.878a31.086,31.086,0,0,0,7.894-2.439,23.688,23.688,0,0,0,7.446-6.175,30.362,30.362,0,0,0,4.446-6.391A45.586,45.586,0,0,0,333,31.53c.648-2.264,1.616-6.777,1.616-6.777l-4.395-.973a18.782,18.782,0,0,1-.463,2.527c-.216.849-.7,2.161-.7,2.161H296.53v4.981h5.388Z" transform="translate(-128.94 0.46)"/></g></g></svg>